{
  "accessors": [
    {
      "bufferView": 2,
      "componentType": 5126,
      "count": 8018,
      "max": [
        1.4502226114273071,
        1.6017924547195435,
        1.1045278310775757
      ],
      "min": [
        -1.4032883644104004,
        -1.1648917198181152,
        -0.9910771250724792
      ],
      "type": "VEC3"
    },
    {
      "bufferView": 2,
      "byteOffset": 96216,
      "componentType": 5126,
      "count": 8018,
      "max": [
        0.9996553659439087,
        0.9999998807907104,
        0.9999619722366333
      ],
      "min": [
        -0.9996553659439087,
        -0.999773383140564,
        -0.9998598098754883
      ],
      "type": "VEC3"
    },
    {
      "bufferView": 1,
      "componentType": 5126,
      "count": 8018,
      "max": [
        1.000000238418579,
        1.000000238418579
      ],
      "min": [
        0.0,
        0.0
      ],
      "type": "VEC2"
    },
    {
      "bufferView": 0,
      "componentType": 5125,
      "count": 36624,
      "type": "SCALAR"
    },
    {
      "bufferView": 2,
      "byteOffset": 192432,
      "componentType": 5126,
      "count": 262,
      "max": [
        0.23311030864715576,
        -0.12477361410856247,
        1.0041742324829102
      ],
      "min": [
        -0.27525797486305237,
        -0.6488726735115051,
        0.4960935115814209
      ],
      "type": "VEC3"
    },
    {
      "bufferView": 2,
      "byteOffset": 195576,
      "componentType": 5126,
      "count": 262,
      "max": [
        0.9915700554847717,
        0.9748402237892151,
        0.976929247379303
      ],
      "min": [
        -0.9967570900917053,
        -0.9774098992347717,
        -0.5131459832191467
      ],
      "type": "VEC3"
    },
    {
      "bufferView": 1,
      "byteOffset": 64144,
      "componentType": 5126,
      "count": 262,
      "max": [
        0.2999999225139618,
        0.450000137090683
      ],
      "min": [
        0.24999994039535522,
        0.35000020265579224
      ],
      "type": "VEC2"
    },
    {
      "bufferView": 0,
      "byteOffset": 146496,
      "componentType": 5125,
      "count": 768,
      "type": "SCALAR"
    },
    {
      "bufferView": 2,
      "byteOffset": 198720,
      "componentType": 5126,
      "count": 55,
      "max": [
        0.9217033982276917,
        -1.1419053077697754,
        0.6462792754173279
      ],
      "min": [
        -0.92170250415802,
        -1.191674828529358,
        -0.3616759181022644
      ],
      "type": "VEC3"
    },
    {
      "bufferView": 2,
      "byteOffset": 199380,
      "componentType": 5126,
      "count": 55,
      "max": [
        0.5509647727012634,
        -0.8341532945632935,
        0.35963931679725647
      ],
      "min": [
        -0.5509647727012634,
        -0.99961256980896,
        -0.4110671877861023
      ],
      "type": "VEC3"
    },
    {
      "bufferView": 1,
      "byteOffset": 66240,
      "componentType": 5126,
      "count": 55,
      "max": [
        0.3750000596046448,
        0.7708333730697632
      ],
      "min": [
        0.1250000149011612,
        0.4791666865348816
      ],
      "type": "VEC2"
    },
    {
      "bufferView": 0,
      "byteOffset": 149568,
      "componentType": 5125,
      "count": 192,
      "type": "SCALAR"
    },
    {
      "bufferView": 2,
      "byteOffset": 200040,
      "componentType": 5126,
      "count": 503,
      "max": [
        1.3137234449386597,
        1.468970775604248,
        0.14537368714809418
      ],
      "min": [
        -0.8297296762466431,
        0.10887376964092255,
        -0.44306421279907227
      ],
      "type": "VEC3"
    },
    {
      "bufferView": 2,
      "byteOffset": 206076,
      "componentType": 5126,
      "count": 503,
      "max": [
        0.9438323974609375,
        0.9688541293144226,
        -0.14579078555107117
      ],
      "min": [
        -0.9891920685768127,
        -0.4942057132720947,
        -0.9842392802238464
      ],
      "type": "VEC3"
    },
    {
      "bufferView": 1,
      "byteOffset": 66680,
      "componentType": 5126,
      "count": 503,
      "max": [
        1.000000238418579,
        1.000000238418579
      ],
      "min": [
        0.0,
        0.0
      ],
      "type": "VEC2"
    },
    {
      "bufferView": 0,
      "byteOffset": 150336,
      "componentType": 5125,
      "count": 1920,
      "type": "SCALAR"
    },
    {
      "bufferView": 2,
      "byteOffset": 212112,
      "componentType": 5126,
      "count": 5344,
      "max": [
        0.7758832573890686,
        0.5284113883972168,
        0.9761466979980469
      ],
      "min": [
        -0.6906359791755676,
        -0.41347116231918335,
        0.14668232202529907
      ],
      "type": "VEC3"
    },
    {
      "bufferView": 2,
      "byteOffset": 276240,
      "componentType": 5126,
      "count": 5344,
      "max": [
        0.9998242855072021,
        0.9999548196792603,
        0.9998693466186523
      ],
      "min": [
        -0.9998242855072021,
        -0.9999548196792603,
        -0.9998693466186523
      ],
      "type": "VEC3"
    },
    {
      "bufferView": 1,
      "byteOffset": 70704,
      "componentType": 5126,
      "count": 5344,
      "max": [
        0.9991431832313538,
        0.9991142749786377
      ],
      "min": [
        0.0013767830096185207,
        0.0010718009434640408
      ],
      "type": "VEC2"
    },
    {
      "bufferView": 0,
      "byteOffset": 158016,
      "componentType": 5125,
      "count": 23808,
      "type": "SCALAR"
    }
  ],
  "asset": {
    "extras": {
      "author": "DreamNoms (https://sketchfab.com/DreamNoms)",
      "license": "CC-BY-4.0 (http://creativecommons.org/licenses/by/4.0/)",
      "source": "https://sketchfab.com/3d-models/jigglypuff-76ab579e21b74697a90efe566a7293c3",
      "title": "Jigglypuff"
    },
    "generator": "Sketchfab-12.57.0",
    "version": "2.0"
  },
  "bufferViews": [
    {
      "buffer": 0,
      "byteLength": 253248,
      "name": "floatBufferViews",
      "target": 34963
    },
    {
      "buffer": 0,
      "byteLength": 113456,
      "byteOffset": 253248,
      "byteStride": 8,
      "name": "floatBufferViews",
      "target": 34962
    },
    {
      "buffer": 0,
      "byteLength": 340368,
      "byteOffset": 366704,
      "byteStride": 12,
      "name": "floatBufferViews",
      "target": 34962
    }
  ],
  "buffers": [
    {
      "byteLength": 707072,
      "uri": "scene.bin"
    }
  ],
  "images": [
    {
      "uri": "textures/Material_baseColor.png"
    }
  ],
  "materials": [
    {
      "doubleSided": true,
      "name": "material",
      "pbrMetallicRoughness": {
        "baseColorFactor": [
          0.7991027380144088,
          0.5028864580325685,
          0.6795424696330941,
          1.0
        ],
        "metallicFactor": 0.0
      }
    },
    {
      "doubleSided": true,
      "name": "NewMouth",
      "pbrMetallicRoughness": {
        "baseColorFactor": [
          0.8,
          0.0317728,
          0.112272,
          1.0
        ],
        "metallicFactor": 0.0,
        "roughnessFactor": 0.5
      }
    },
    {
      "doubleSided": true,
      "name": "Pads",
      "pbrMetallicRoughness": {
        "baseColorFactor": [
          0.8,
          0.335842,
          0.408372,
          1.0
        ],
        "metallicFactor": 0.0,
        "roughnessFactor": 0.5
      }
    },
    {
      "doubleSided": true,
      "name": "Black",
      "pbrMetallicRoughness": {
        "baseColorFactor": [
          0.023153366178110403,
          0.023153366178110403,
          0.023153366178110403,
          1.0
        ],
        "metallicFactor": 0.0
      }
    },
    {
      "doubleSided": true,
      "name": "Material",
      "pbrMetallicRoughness": {
        "baseColorTexture": {
          "index": 0
        },
        "metallicFactor": 0.0,
        "roughnessFactor": 0.15
      }
    }
  ],
  "meshes": [
    {
      "name": "Object_0",
      "primitives": [
        {
          "attributes": {
            "NORMAL": 1,
            "POSITION": 0,
            "TEXCOORD_0": 2
          },
          "indices": 3,
          "material": 0,
          "mode": 4
        }
      ]
    },
    {
      "name": "Object_1",
      "primitives": [
        {
          "attributes": {
            "NORMAL": 5,
            "POSITION": 4,
            "TEXCOORD_0": 6
          },
          "indices": 7,
          "material": 1,
          "mode": 4
        }
      ]
    },
    {
      "name": "Object_2",
      "primitives": [
        {
          "attributes": {
            "NORMAL": 9,
            "POSITION": 8,
            "TEXCOORD_0": 10
          },
          "indices": 11,
          "material": 2,
          "mode": 4
        }
      ]
    },
    {
      "name": "Object_3",
      "primitives": [
        {
          "attributes": {
            "NORMAL": 13,
            "POSITION": 12,
            "TEXCOORD_0": 14
          },
          "indices": 15,
          "material": 3,
          "mode": 4
        }
      ]
    },
    {
      "name": "Object_4",
      "primitives": [
        {
          "attributes": {
            "NORMAL": 17,
            "POSITION": 16,
            "TEXCOORD_0": 18
          },
          "indices": 19,
          "material": 4,
          "mode": 4
        }
      ]
    }
  ],
  "nodes": [
    {
      "children": [
        1
      ],
      "matrix": [
        1.0,
        0.0,
        0.0,
        0.0,
        0.0,
        2.220446049250313e-16,
        -1.0,
        0.0,
        0.0,
        1.0,
        2.220446049250313e-16,
        0.0,
        0.0,
        0.0,
        0.0,
        1.0
      ],
      "name": "Sketchfab_model"
    },
    {
      "children": [
        2
      ],
      "name": "root"
    },
    {
      "children": [
        3
      ],
      "matrix": [
        1.0,
        0.0,
        0.0,
        0.0,
        0.0,
        2.220446049250313e-16,
        1.0,
        0.0,
        0.0,
        -1.0,
        2.220446049250313e-16,
        0.0,
        0.0,
        0.0,
        0.0,
        1.0
      ],
      "name": "GLTF_SceneRootNode"
    },
    {
      "children": [
        4,
        5,
        6,
        7,
        8
      ],
      "name": "Jigglypuff_2"
    },
    {
      "mesh": 0,
      "name": "Object_4"
    },
    {
      "mesh": 1,
      "name": "Object_5"
    },
    {
      "mesh": 2,
      "name": "Object_6"
    },
    {
      "mesh": 3,
      "name": "Object_7"
    },
    {
      "mesh": 4,
      "name": "Object_8"
    }
  ],
  "samplers": [
    {
      "magFilter": 9729,
      "minFilter": 9987,
      "wrapS": 10497,
      "wrapT": 10497
    }
  ],
  "scene": 0,
  "scenes": [
    {
      "name": "Sketchfab_Scene",
      "nodes": [
        0
      ]
    }
  ],
  "textures": [
    {
      "sampler": 0,
      "source": 0
    }
  ]
}
