{
  "accessors": [
    {
      "bufferView": 2,
      "componentType": 5126,
      "count": 1602,
      "max": [
        0.8015923500061035,
        0.8015923500061035,
        0.8015923500061035
      ],
      "min": [
        -0.8015922904014587,
        -0.8015923500061035,
        -0.8015923500061035
      ],
      "type": "VEC3"
    },
    {
      "bufferView": 2,
      "byteOffset": 19224,
      "componentType": 5126,
      "count": 1602,
      "max": [
        1.0,
        1.0,
        1.0
      ],
      "min": [
        -1.0,
        -1.0,
        -1.0
      ],
      "type": "VEC3"
    },
    {
      "bufferView": 1,
      "componentType": 5126,
      "count": 1602,
      "max": [
        0.8794827461242676,
        0.9763317108154297
      ],
      "min": [
        0.014409065246582031,
        0.10728886723518372
      ],
      "type": "VEC2"
    },
    {
      "bufferView": 0,
      "componentType": 5125,
      "count": 9216,
      "type": "SCALAR"
    },
    {
      "bufferView": 2,
      "byteOffset": 38448,
      "componentType": 5126,
      "count": 3298,
      "max": [
        2.02402663230896,
        1.2566044330596924,
        0.7845649719238281
      ],
      "min": [
        -0.7892064452171326,
        -5.021824836730957,
        -2.1000280380249023
      ],
      "type": "VEC3"
    },
    {
      "bufferView": 2,
      "byteOffset": 78024,
      "componentType": 5126,
      "count": 3298,
      "max": [
        0.9999305605888367,
        0.9999997615814209,
        0.9999814629554749
      ],
      "min": [
        -0.9999118447303772,
        -0.9995401501655579,
        -0.9999085664749146
      ],
      "type": "VEC3"
    },
    {
      "bufferView": 1,
      "byteOffset": 12816,
      "componentType": 5126,
      "count": 3298,
      "max": [
        0.8750002384185791,
        1.000000238418579
      ],
      "min": [
        0.1250000149011612,
        0.0
      ],
      "type": "VEC2"
    },
    {
      "bufferView": 0,
      "byteOffset": 36864,
      "componentType": 5125,
      "count": 18432,
      "type": "SCALAR"
    },
    {
      "bufferView": 2,
      "byteOffset": 117600,
      "componentType": 5126,
      "count": 3338,
      "max": [
        2.466446876525879,
        1.079437255859375,
        0.7815344333648682
      ],
      "min": [
        -0.7156630754470825,
        -0.9079190492630005,
        -0.19920580089092255
      ],
      "type": "VEC3"
    },
    {
      "bufferView": 2,
      "byteOffset": 157656,
      "componentType": 5126,
      "count": 3338,
      "max": [
        0.9992767572402954,
        0.9997285008430481,
        0.999971866607666
      ],
      "min": [
        -0.9992767572402954,
        -0.9997614622116089,
        -0.9999997019767761
      ],
      "type": "VEC3"
    },
    {
      "bufferView": 1,
      "byteOffset": 39200,
      "componentType": 5126,
      "count": 3338,
      "max": [
        0.8750002384185791,
        1.000000238418579
      ],
      "min": [
        0.4374999403953552,
        0.0
      ],
      "type": "VEC2"
    },
    {
      "bufferView": 0,
      "byteOffset": 110592,
      "componentType": 5125,
      "count": 19200,
      "type": "SCALAR"
    },
    {
      "bufferView": 3,
      "componentType": 5126,
      "count": 4,
      "type": "VEC3",
      "min": [
        -4,
        -2,
        -2
      ],
      "max": [
        4,
        3,
        -2
      ]
    },
    {
      "bufferView": 4,
      "componentType": 5126,
      "count": 4,
      "type": "VEC3"
    },
    {
      "bufferView": 5,
      "componentType": 5123,
      "count": 6,
      "type": "SCALAR",
      "min": [
        0
      ],
      "max": [
        3
      ]
    }
  ],
  "asset": {
    "extras": {
      "author": "Super Tabl\u00e9 (https://sketchfab.com/metaknightable1001)",
      "license": "CC-BY-4.0 (http://creativecommons.org/licenses/by/4.0/)",
      "source": "https://sketchfab.com/3d-models/kirby-5f01ca60ccc64a6489ade4ad0bd79e40",
      "title": "Kirby"
    },
    "generator": "Sketchfab-17.19.0",
    "version": "2.0"
  },
  "bufferViews": [
    {
      "buffer": 0,
      "byteLength": 187392,
      "name": "floatBufferViews",
      "target": 34963
    },
    {
      "buffer": 0,
      "byteLength": 65904,
      "byteOffset": 187392,
      "byteStride": 8,
      "name": "floatBufferViews",
      "target": 34962
    },
    {
      "buffer": 0,
      "byteLength": 197712,
      "byteOffset": 253296,
      "byteStride": 12,
      "name": "floatBufferViews",
      "target": 34962
    },
    {
      "buffer": 1,
      "byteOffset": 0,
      "byteLength": 48,
      "target": 34962
    },
    {
      "buffer": 1,
      "byteOffset": 48,
      "byteLength": 48,
      "target": 34962
    },
    {
      "buffer": 1,
      "byteOffset": 96,
      "byteLength": 12,
      "target": 34963
    }
  ],
  "buffers": [
    {
      "byteLength": 451008,
      "uri": "scene.bin"
    },
    {
      "byteLength": 108,
      "uri": "data:application/octet-stream;base64,"
    }
  ],
  "images": [
    {
      "uri": "textures/CARA_baseColor.png"
    },
    {
      "uri": "textures/MANOS_baseColor.png"
    }
  ],
  "materials": [
    {
      "doubleSided": true,
      "name": "CARA",
      "pbrMetallicRoughness": {
        "baseColorTexture": {
          "index": 0
        },
        "metallicFactor": 0.0,
        "roughnessFactor": 0.49273255813953487
      }
    },
    {
      "doubleSided": true,
      "name": "MANOS",
      "pbrMetallicRoughness": {
        "baseColorTexture": {
          "index": 1
        },
        "metallicFactor": 0.0,
        "roughnessFactor": 0.821115
      }
    },
    {
      "doubleSided": true,
      "name": "ROJO",
      "pbrMetallicRoughness": {
        "baseColorFactor": [
          0.5054543983643133,
          0.00785199640630404,
          0.05439536501231183,
          1.0
        ],
        "metallicFactor": 0.3648255813953488,
        "roughnessFactor": 0.5305232558139534
      }
    },
    {
      "name": "AzureBlueBackdrop",
      "doubleSided": true,
      "pbrMetallicRoughness": {
        "baseColorFactor": [
          0.53,
          0.81,
          0.98,
          1.0
        ],
        "metallicFactor": 0.0,
        "roughnessFactor": 1.0
      }
    }
  ],
  "meshes": [
    {
      "name": "Object_0",
      "primitives": [
        {
          "attributes": {
            "NORMAL": 1,
            "POSITION": 0,
            "TEXCOORD_0": 2
          },
          "indices": 3,
          "material": 0,
          "mode": 4
        }
      ]
    },
    {
      "name": "Object_1",
      "primitives": [
        {
          "attributes": {
            "NORMAL": 5,
            "POSITION": 4,
            "TEXCOORD_0": 6
          },
          "indices": 7,
          "material": 1,
          "mode": 4
        }
      ]
    },
    {
      "name": "Object_2",
      "primitives": [
        {
          "attributes": {
            "NORMAL": 9,
            "POSITION": 8,
            "TEXCOORD_0": 10
          },
          "indices": 11,
          "material": 2,
          "mode": 4
        }
      ]
    },
    {
      "name": "BlueBackdropQuad",
      "primitives": [
        {
          "attributes": {
            "POSITION": 12,
            "NORMAL": 13
          },
          "indices": 14,
          "material": 3,
          "mode": 4
        }
      ]
    }
  ],
  "nodes": [
    {
      "children": [
        1
      ],
      "matrix": [
        1.0,
        0.0,
        0.0,
        0.0,
        0.0,
        2.220446049250313e-16,
        -1.0,
        0.0,
        0.0,
        1.0,
        2.220446049250313e-16,
        0.0,
        0.0,
        0.0,
        0.0,
        1.0
      ],
      "name": "Sketchfab_model"
    },
    {
      "children": [
        2
      ],
      "name": "root"
    },
    {
      "children": [
        3
      ],
      "matrix": [
        1.0,
        0.0,
        0.0,
        0.0,
        0.0,
        2.220446049250313e-16,
        1.0,
        0.0,
        0.0,
        -1.0,
        2.220446049250313e-16,
        0.0,
        0.0,
        0.0,
        0.0,
        1.0
      ],
      "name": "GLTF_SceneRootNode"
    },
    {
      "children": [
        4
      ],
      "matrix": [
        1.0,
        0.0,
        0.0,
        0.0,
        0.0,
        2.220446049250313e-16,
        -1.0,
        0.0,
        0.0,
        1.0,
        2.220446049250313e-16,
        0.0,
        0.0,
        0.0,
        0.0,
        1.0
      ],
      "name": "Sketchfab_model_0"
    },
    {
      "children": [
        5
      ],
      "matrix": [
        0.009999999776482582,
        0.0,
        0.0,
        0.0,
        0.0,
        0.0,
        0.009999999776482582,
        0.0,
        0.0,
        -0.009999999776482582,
        0.0,
        0.0,
        0.0,
        0.0,
        0.0,
        1.0
      ],
      "name": "613bde74ea7a4246afb5170c8699967b.fbx_1"
    },
    {
      "children": [
        6,
        9,
        12
      ],
      "name": "RootNode_2"
    },
    {
      "children": [
        7
      ],
      "matrix": [
        100.0,
        0.0,
        0.0,
        0.0,
        0.0,
        -1.6292067812173627e-05,
        -100.0,
        0.0,
        0.0,
        100.0,
        -1.6292067812173627e-05,
        0.0,
        0.0,
        0.0,
        0.0,
        1.0
      ],
      "name": "Cube_3"
    },
    {
      "children": [
        8
      ],
      "name": "Cube_CARA_0_4"
    },
    {
      "mesh": 0,
      "name": "Object_8"
    },
    {
      "children": [
        10
      ],
      "matrix": [
        35.025672912597656,
        8.187657272173965e-07,
        9.813139915466309,
        0.0,
        8.905489921569824,
        -10.294123649597168,
        -31.78603172302246,
        0.0,
        2.9077372550964355,
        34.5620002746582,
        -10.378479957580566,
        0.0,
        0.0,
        -12.000874519348145,
        -73.85746765136719,
        1.0
      ],
      "name": "Cube.001_5"
    },
    {
      "children": [
        11
      ],
      "name": "Cube.001_MANOS_0_6"
    },
    {
      "mesh": 1,
      "name": "Object_11"
    },
    {
      "children": [
        13
      ],
      "matrix": [
        3.822615326498635e-06,
        5.621289685223433e-15,
        50.632076263427734,
        0.0,
        50.632076263427734,
        -2.21319851334556e-06,
        -3.822615326498635e-06,
        0.0,
        2.21319851334556e-06,
        50.632076263427734,
        -1.7988126992714987e-13,
        0.0,
        4.731653690338135,
        -98.34061431884766,
        -44.32291030883789,
        1.0
      ],
      "name": "Cube.002_7"
    },
    {
      "children": [
        14
      ],
      "name": "Cube.002_ROJO_0_8"
    },
    {
      "mesh": 2,
      "name": "Object_14"
    },
    {
      "name": "KirbyFacingCamera",
"rotation": [0, -0.70710678, 0, 0.70710678],
      "children": [
        0
      ]
    },
    {
      "name": "BlueBackdropQuad",
      "mesh": 3,
      "scale": [
        0.35,
        0.5,
        1.0
      ]
    }
  ],
  "samplers": [
    {
      "magFilter": 9729,
      "minFilter": 9987,
      "wrapS": 10497,
      "wrapT": 10497
    }
  ],
  "scene": 0,
  "scenes": [
    {
      "name": "Sketchfab_Scene",
      "nodes": [
        15,
        16
      ]
    }
  ],
  "textures": [
    {
      "sampler": 0,
      "source": 0
    },
    {
      "sampler": 0,
      "source": 1
    }
  ]
}