{
	"asset":{
		"generator":"Khronos glTF Blender I/O v4.1.63",
		"version":"2.0"
	},
	"extensionsUsed":[
		"KHR_materials_specular",
		"KHR_materials_transmission"
	],
	"scene":0,
	"scenes":[
		{
			"name":"Scene",
			"nodes":[
				0,
				1,
				2,
				3,
				4,
				5
			]
		}
	],
	"nodes":[
		{
			"mesh":0,
			"name":"WoodenTable",
			"scale":[
				6.182124614715576,
				6.182124614715576,
				6.182124614715576
			],
			"translation":[
				0.09994099289178848,
				-5.485054969787598,
				-0.6551686525344849
			]
		},
		{
			"mesh":1,
			"name":"Toothless",
			"rotation":[
				0,
				-0.5931625962257385,
				0,
				0.8050826787948608
			],
			"scale":[
				23.154590606689453,
				23.154590606689453,
				23.154590606689453
			],
			"translation":[
				5.865047931671143,
				-0.6620748043060303,
				-2.200699806213379
			]
		},
		{
			"mesh":2,
			"name":"Ironman",
			"rotation":[
				0,
				0.5029155015945435,
				0,
				0.8643355965614319
			],
			"scale":[
				9.49843692779541,
				9.49843692779541,
				9.49843692779541
			],
			"translation":[
				-3.2946958541870117,
				-0.6620724201202393,
				-2.0990209579467773
			]
		},
		{
			"mesh":3,
			"name":"Kirby",
			"rotation":[
				0,
				0.8057927489280701,
				0,
				0.5921976566314697
			],
			"scale":[
				6.182125091552734,
				6.182124614715576,
				6.182125091552734
			],
			"translation":[
				-1.8432989120483398,
				-0.6620736122131348,
				1.305267095565796
			]
		},
		{
			"mesh":4,
			"name":"Spheal",
			"rotation":[
				0,
				-0.767192006111145,
				0,
				0.6414175033569336
			],
			"scale":[
				6.182124614715576,
				6.182124614715576,
				6.182124614715576
			],
			"translation":[
				1.6287965774536133,
				-0.6620743274688721,
				1.0502309799194336
			]
		},
		{
			"mesh":5,
			"name":"Walle",
			"rotation":[
				0,
				0.8294951319694519,
				0,
				0.5585139393806458
			],
			"scale":[
				6.365497589111328,
				6.3654961585998535,
				6.365497589111328
			],
			"translation":[
				-3.3269824981689453,
				-0.6620721817016602,
				0.14168846607208252
			]
		}
	],
	"materials":[
		{
			"doubleSided":true,
			"name":"WoodenTable / Table",
			"normalTexture":{
				"index":0
			},
			"occlusionTexture":{
				"index":1
			},
			"pbrMetallicRoughness":{
				"baseColorTexture":{
					"index":2
				},
				"metallicRoughnessTexture":{
					"index":1
				}
			}
		},
		{
			"doubleSided":true,
			"name":"Toothless / Claws",
			"normalTexture":{
				"index":3
			},
			"occlusionTexture":{
				"index":4
			},
			"pbrMetallicRoughness":{
				"baseColorTexture":{
					"index":5
				},
				"metallicRoughnessTexture":{
					"index":4
				}
			}
		},
		{
			"doubleSided":true,
			"name":"Toothless / Eyes",
			"normalTexture":{
				"index":6
			},
			"occlusionTexture":{
				"index":7
			},
			"pbrMetallicRoughness":{
				"baseColorTexture":{
					"index":8
				},
				"metallicRoughnessTexture":{
					"index":7
				},
				"roughnessFactor":0.9102514982223511
			}
		},
		{
			"doubleSided":true,
			"name":"Toothless / WingSpines",
			"normalTexture":{
				"index":9
			},
			"occlusionTexture":{
				"index":10
			},
			"pbrMetallicRoughness":{
				"baseColorTexture":{
					"index":11
				},
				"metallicRoughnessTexture":{
					"index":10
				}
			}
		},
		{
			"doubleSided":true,
			"name":"Toothless / Spikes1",
			"normalTexture":{
				"index":12
			},
			"occlusionTexture":{
				"index":13
			},
			"pbrMetallicRoughness":{
				"baseColorTexture":{
					"index":14
				},
				"metallicRoughnessTexture":{
					"index":13
				}
			}
		},
		{
			"doubleSided":true,
			"name":"Toothless / Membranes1",
			"normalTexture":{
				"index":15
			},
			"occlusionTexture":{
				"index":16
			},
			"pbrMetallicRoughness":{
				"baseColorTexture":{
					"index":17
				},
				"metallicRoughnessTexture":{
					"index":16
				}
			}
		},
		{
			"doubleSided":true,
			"name":"Toothless / Body",
			"normalTexture":{
				"index":18
			},
			"occlusionTexture":{
				"index":19
			},
			"pbrMetallicRoughness":{
				"baseColorTexture":{
					"index":20
				},
				"metallicRoughnessTexture":{
					"index":19
				}
			}
		},
		{
			"doubleSided":true,
			"name":"Toothless / Head1",
			"normalTexture":{
				"index":21
			},
			"occlusionTexture":{
				"index":22
			},
			"pbrMetallicRoughness":{
				"baseColorTexture":{
					"index":23
				},
				"metallicRoughnessTexture":{
					"index":22
				}
			}
		},
		{
			"doubleSided":true,
			"extensions":{
				"KHR_materials_specular":{
					"specularFactor":0.4433942139148712
				}
			},
			"name":"Ironman / Silver_Part",
			"normalTexture":{
				"index":24
			},
			"pbrMetallicRoughness":{
				"baseColorTexture":{
					"index":25
				},
				"metallicRoughnessTexture":{
					"index":26
				}
			}
		},
		{
			"doubleSided":true,
			"name":"Ironman / Arc_Reactor",
			"normalTexture":{
				"index":27
			},
			"pbrMetallicRoughness":{
				"baseColorTexture":{
					"index":28
				},
				"metallicRoughnessTexture":{
					"index":29
				}
			}
		},
		{
			"doubleSided":true,
			"name":"Ironman / Gold_Part",
			"normalTexture":{
				"index":30
			},
			"pbrMetallicRoughness":{
				"baseColorTexture":{
					"index":31
				},
				"metallicRoughnessTexture":{
					"index":32
				}
			}
		},
		{
			"doubleSided":true,
			"name":"Ironman / Red_Part",
			"normalTexture":{
				"index":33
			},
			"pbrMetallicRoughness":{
				"baseColorTexture":{
					"index":34
				},
				"metallicRoughnessTexture":{
					"index":35
				}
			}
		},
		{
			"doubleSided":true,
			"emissiveFactor":[
				1,
				1,
				1
			],
			"emissiveTexture":{
				"index":36
			},
			"name":"Ironman / Lights",
			"pbrMetallicRoughness":{
				"baseColorTexture":{
					"index":37
				},
				"metallicFactor":0,
				"roughnessFactor":0.6000000238418579
			}
		},
		{
			"alphaMode":"BLEND",
			"doubleSided":true,
			"name":"Ironman / Glass",
			"pbrMetallicRoughness":{
				"baseColorFactor":[
					1,
					1,
					1,
					0
				],
				"metallicFactor":0,
				"roughnessFactor":0.6000000238418579
			}
		},
		{
			"doubleSided":true,
			"name":"Kirby / CARA",
			"pbrMetallicRoughness":{
				"baseColorTexture":{
					"index":38
				},
				"roughnessFactor":0.20000000298023224
			}
		},
		{
			"doubleSided":true,
			"name":"Kirby / MANOS",
			"pbrMetallicRoughness":{
				"baseColorTexture":{
					"index":39
				},
				"roughnessFactor":0.20000000298023224
			}
		},
		{
			"doubleSided":true,
			"name":"Kirby / ROJO",
			"pbrMetallicRoughness":{
				"baseColorFactor":[
					0.505454421043396,
					0.007851996459066868,
					0.054395366460084915,
					1
				],
				"roughnessFactor":0.20000000298023224
			}
		},
		{
			"doubleSided":true,
			"extensions":{
				"KHR_materials_transmission":{
					"transmissionFactor":1
				}
			},
			"name":"Spheal / puzo_i_nos",
			"pbrMetallicRoughness":{
				"baseColorTexture":{
					"index":40
				},
				"metallicFactor":0,
				"roughnessFactor":0
			}
		},
		{
			"alphaMode":"BLEND",
			"doubleSided":true,
			"name":"Walle / Atlas_Metal",
			"normalTexture":{
				"index":41
			},
			"occlusionTexture":{
				"index":42
			},
			"pbrMetallicRoughness":{
				"baseColorTexture":{
					"index":43
				},
				"metallicRoughnessTexture":{
					"index":42
				}
			}
		},
		{
			"alphaMode":"BLEND",
			"doubleSided":true,
			"name":"Walle / Atlas_Painted_metal",
			"normalTexture":{
				"index":44
			},
			"occlusionTexture":{
				"index":45
			},
			"pbrMetallicRoughness":{
				"baseColorTexture":{
					"index":46
				},
				"metallicRoughnessTexture":{
					"index":45
				}
			}
		},
		{
			"alphaMode":"BLEND",
			"doubleSided":true,
			"name":"Walle / Tread",
			"normalTexture":{
				"index":47
			},
			"occlusionTexture":{
				"index":48
			},
			"pbrMetallicRoughness":{
				"baseColorTexture":{
					"index":49
				},
				"metallicRoughnessTexture":{
					"index":48
				}
			}
		}
	],
	"meshes":[
		{
			"name":"WoodenTable",
			"primitives":[
				{
					"attributes":{
						"POSITION":0,
						"NORMAL":1,
						"TEXCOORD_0":2
					},
					"indices":3,
					"material":0
				}
			]
		},
		{
			"name":"Toothless",
			"primitives":[
				{
					"attributes":{
						"POSITION":4,
						"NORMAL":5,
						"TEXCOORD_0":6
					},
					"indices":7,
					"material":1
				},
				{
					"attributes":{
						"POSITION":8,
						"NORMAL":9,
						"TEXCOORD_0":10
					},
					"indices":11,
					"material":2
				},
				{
					"attributes":{
						"POSITION":12,
						"NORMAL":13,
						"TEXCOORD_0":14
					},
					"indices":15,
					"material":3
				},
				{
					"attributes":{
						"POSITION":16,
						"NORMAL":17,
						"TEXCOORD_0":18
					},
					"indices":19,
					"material":4
				},
				{
					"attributes":{
						"POSITION":20,
						"NORMAL":21,
						"TEXCOORD_0":22
					},
					"indices":23,
					"material":5
				},
				{
					"attributes":{
						"POSITION":24,
						"NORMAL":25,
						"TEXCOORD_0":26
					},
					"indices":27,
					"material":6
				},
				{
					"attributes":{
						"POSITION":28,
						"NORMAL":29,
						"TEXCOORD_0":30
					},
					"indices":31,
					"material":7
				}
			]
		},
		{
			"name":"Ironman",
			"primitives":[
				{
					"attributes":{
						"POSITION":32,
						"NORMAL":33,
						"TEXCOORD_0":34
					},
					"indices":35,
					"material":8
				},
				{
					"attributes":{
						"POSITION":36,
						"NORMAL":37,
						"TEXCOORD_0":38
					},
					"indices":39,
					"material":9
				},
				{
					"attributes":{
						"POSITION":40,
						"NORMAL":41,
						"TEXCOORD_0":42
					},
					"indices":43,
					"material":10
				},
				{
					"attributes":{
						"POSITION":44,
						"NORMAL":45,
						"TEXCOORD_0":46
					},
					"indices":47,
					"material":11
				},
				{
					"attributes":{
						"POSITION":48,
						"NORMAL":49,
						"TEXCOORD_0":50
					},
					"indices":51,
					"material":12
				},
				{
					"attributes":{
						"POSITION":52,
						"NORMAL":53,
						"TEXCOORD_0":54
					},
					"indices":55,
					"material":13
				}
			]
		},
		{
			"name":"Kirby",
			"primitives":[
				{
					"attributes":{
						"POSITION":56,
						"NORMAL":57,
						"TEXCOORD_0":58
					},
					"indices":59,
					"material":14
				},
				{
					"attributes":{
						"POSITION":60,
						"NORMAL":61,
						"TEXCOORD_0":62
					},
					"indices":63,
					"material":15
				},
				{
					"attributes":{
						"POSITION":64,
						"NORMAL":65,
						"TEXCOORD_0":66
					},
					"indices":67,
					"material":16
				}
			]
		},
		{
			"name":"Spheal",
			"primitives":[
				{
					"attributes":{
						"POSITION":68,
						"NORMAL":69,
						"TEXCOORD_0":70
					},
					"indices":71,
					"material":17
				}
			]
		},
		{
			"name":"Walle",
			"primitives":[
				{
					"attributes":{
						"POSITION":72,
						"NORMAL":73,
						"TEXCOORD_0":74
					},
					"indices":75,
					"material":18
				},
				{
					"attributes":{
						"POSITION":76,
						"NORMAL":77,
						"TEXCOORD_0":78
					},
					"indices":79,
					"material":19
				},
				{
					"attributes":{
						"POSITION":80,
						"NORMAL":81,
						"TEXCOORD_0":82
					},
					"indices":83,
					"material":20
				}
			]
		}
	],
	"textures":[
		{
			"sampler":0,
			"source":0
		},
		{
			"sampler":0,
			"source":1
		},
		{
			"sampler":0,
			"source":2
		},
		{
			"sampler":0,
			"source":3
		},
		{
			"sampler":0,
			"source":4
		},
		{
			"sampler":0,
			"source":5
		},
		{
			"sampler":0,
			"source":6
		},
		{
			"sampler":0,
			"source":7
		},
		{
			"sampler":0,
			"source":8
		},
		{
			"sampler":0,
			"source":9
		},
		{
			"sampler":0,
			"source":10
		},
		{
			"sampler":0,
			"source":11
		},
		{
			"sampler":0,
			"source":12
		},
		{
			"sampler":0,
			"source":13
		},
		{
			"sampler":0,
			"source":14
		},
		{
			"sampler":0,
			"source":15
		},
		{
			"sampler":0,
			"source":16
		},
		{
			"sampler":0,
			"source":17
		},
		{
			"sampler":0,
			"source":18
		},
		{
			"sampler":0,
			"source":19
		},
		{
			"sampler":0,
			"source":20
		},
		{
			"sampler":0,
			"source":21
		},
		{
			"sampler":0,
			"source":22
		},
		{
			"sampler":0,
			"source":23
		},
		{
			"sampler":0,
			"source":24
		},
		{
			"sampler":0,
			"source":25
		},
		{
			"sampler":0,
			"source":26
		},
		{
			"sampler":0,
			"source":27
		},
		{
			"sampler":0,
			"source":28
		},
		{
			"sampler":0,
			"source":29
		},
		{
			"sampler":0,
			"source":30
		},
		{
			"sampler":0,
			"source":31
		},
		{
			"sampler":0,
			"source":32
		},
		{
			"sampler":0,
			"source":33
		},
		{
			"sampler":0,
			"source":34
		},
		{
			"sampler":0,
			"source":35
		},
		{
			"sampler":0,
			"source":36
		},
		{
			"sampler":0,
			"source":36
		},
		{
			"sampler":0,
			"source":37
		},
		{
			"sampler":0,
			"source":38
		},
		{
			"sampler":0,
			"source":39
		},
		{
			"sampler":0,
			"source":40
		},
		{
			"sampler":0,
			"source":41
		},
		{
			"sampler":0,
			"source":42
		},
		{
			"sampler":0,
			"source":43
		},
		{
			"sampler":0,
			"source":44
		},
		{
			"sampler":0,
			"source":45
		},
		{
			"sampler":0,
			"source":46
		},
		{
			"sampler":0,
			"source":47
		},
		{
			"sampler":0,
			"source":48
		}
	],
	"images":[
		{
			"mimeType":"image/png",
			"name":"Table_normal",
			"uri":"Table_normal.png"
		},
		{
			"mimeType":"image/png",
			"name":"Table_metallicRoughness",
			"uri":"Table_metallicRoughness.png"
		},
		{
			"mimeType":"image/jpeg",
			"name":"Table_baseColor",
			"uri":"Table_baseColor.jpg"
		},
		{
			"mimeType":"image/png",
			"name":"Claws_normal",
			"uri":"Claws_normal.png"
		},
		{
			"mimeType":"image/png",
			"name":"Claws_metallicRoughness",
			"uri":"Claws_metallicRoughness.png"
		},
		{
			"mimeType":"image/jpeg",
			"name":"Claws_baseColor",
			"uri":"Claws_baseColor.jpg"
		},
		{
			"mimeType":"image/png",
			"name":"Eyes_normal",
			"uri":"Eyes_normal.png"
		},
		{
			"mimeType":"image/png",
			"name":"Eyes_metallicRoughness",
			"uri":"Eyes_metallicRoughness.png"
		},
		{
			"mimeType":"image/jpeg",
			"name":"Eyes_baseColor",
			"uri":"Eyes_baseColor.jpg"
		},
		{
			"mimeType":"image/png",
			"name":"WingSpines_normal",
			"uri":"WingSpines_normal.png"
		},
		{
			"mimeType":"image/png",
			"name":"WingSpines_metallicRoughness",
			"uri":"WingSpines_metallicRoughness.png"
		},
		{
			"mimeType":"image/jpeg",
			"name":"WingSpines_baseColor",
			"uri":"WingSpines_baseColor.jpg"
		},
		{
			"mimeType":"image/png",
			"name":"Spikes1_normal",
			"uri":"Spikes1_normal.png"
		},
		{
			"mimeType":"image/png",
			"name":"Spikes1_metallicRoughness",
			"uri":"Spikes1_metallicRoughness.png"
		},
		{
			"mimeType":"image/jpeg",
			"name":"Spikes1_baseColor",
			"uri":"Spikes1_baseColor.jpg"
		},
		{
			"mimeType":"image/png",
			"name":"Membranes1_normal",
			"uri":"Membranes1_normal.png"
		},
		{
			"mimeType":"image/png",
			"name":"Membranes1_metallicRoughness",
			"uri":"Membranes1_metallicRoughness.png"
		},
		{
			"mimeType":"image/jpeg",
			"name":"Membranes1_baseColor",
			"uri":"Membranes1_baseColor.jpg"
		},
		{
			"mimeType":"image/png",
			"name":"Body_normal",
			"uri":"Body_normal.png"
		},
		{
			"mimeType":"image/png",
			"name":"Body_metallicRoughness",
			"uri":"Body_metallicRoughness.png"
		},
		{
			"mimeType":"image/jpeg",
			"name":"Body_baseColor",
			"uri":"Body_baseColor.jpg"
		},
		{
			"mimeType":"image/png",
			"name":"Head1_normal",
			"uri":"Head1_normal.png"
		},
		{
			"mimeType":"image/png",
			"name":"Head1_metallicRoughness",
			"uri":"Head1_metallicRoughness.png"
		},
		{
			"mimeType":"image/jpeg",
			"name":"Head1_baseColor",
			"uri":"Head1_baseColor.jpg"
		},
		{
			"mimeType":"image/png",
			"name":"Silver_Part_normal",
			"uri":"Silver_Part_normal.png"
		},
		{
			"mimeType":"image/png",
			"name":"Silver_Part_baseColor",
			"uri":"Silver_Part_baseColor.png"
		},
		{
			"mimeType":"image/png",
			"name":"Silver_Part_metallicRoughness",
			"uri":"Silver_Part_metallicRoughness.png"
		},
		{
			"mimeType":"image/png",
			"name":"Arc_Reactor_normal",
			"uri":"Arc_Reactor_normal.png"
		},
		{
			"mimeType":"image/png",
			"name":"Arc_Reactor_baseColor",
			"uri":"Arc_Reactor_baseColor.png"
		},
		{
			"mimeType":"image/png",
			"name":"Arc_Reactor_metallicRoughness",
			"uri":"Arc_Reactor_metallicRoughness.png"
		},
		{
			"mimeType":"image/png",
			"name":"Gold_Part_normal",
			"uri":"Gold_Part_normal.png"
		},
		{
			"mimeType":"image/png",
			"name":"Gold_Part_baseColor",
			"uri":"Gold_Part_baseColor.png"
		},
		{
			"mimeType":"image/png",
			"name":"Gold_Part_metallicRoughness",
			"uri":"Gold_Part_metallicRoughness.png"
		},
		{
			"mimeType":"image/png",
			"name":"Red_Part_normal",
			"uri":"Red_Part_normal.png"
		},
		{
			"mimeType":"image/png",
			"name":"Red_Part_baseColor",
			"uri":"Red_Part_baseColor.png"
		},
		{
			"mimeType":"image/png",
			"name":"Red_Part_metallicRoughness",
			"uri":"Red_Part_metallicRoughness.png"
		},
		{
			"mimeType":"image/png",
			"name":"Lights_baseColor",
			"uri":"Lights_baseColor.png"
		},
		{
			"mimeType":"image/png",
			"name":"CARA_baseColor",
			"uri":"CARA_baseColor.png"
		},
		{
			"mimeType":"image/png",
			"name":"MANOS_baseColor",
			"uri":"MANOS_baseColor.png"
		},
		{
			"mimeType":"image/png",
			"name":"puzo_i_nos_baseColor",
			"uri":"puzo_i_nos_baseColor.png"
		},
		{
			"mimeType":"image/png",
			"name":"Atlas_Metal_normal",
			"uri":"Atlas_Metal_normal.png"
		},
		{
			"mimeType":"image/png",
			"name":"Atlas_Metal_metallicRoughness",
			"uri":"Atlas_Metal_metallicRoughness.png"
		},
		{
			"mimeType":"image/png",
			"name":"Atlas_Metal_baseColor",
			"uri":"Atlas_Metal_baseColor.png"
		},
		{
			"mimeType":"image/png",
			"name":"Atlas_Painted_metal_normal",
			"uri":"Atlas_Painted_metal_normal.png"
		},
		{
			"mimeType":"image/png",
			"name":"Atlas_Painted_metal_metallicRoughness",
			"uri":"Atlas_Painted_metal_metallicRoughness.png"
		},
		{
			"mimeType":"image/png",
			"name":"Atlas_Painted_metal_baseColor",
			"uri":"Atlas_Painted_metal_baseColor.png"
		},
		{
			"mimeType":"image/png",
			"name":"Tread_normal",
			"uri":"Tread_normal.png"
		},
		{
			"mimeType":"image/png",
			"name":"Tread_metallicRoughness",
			"uri":"Tread_metallicRoughness.png"
		},
		{
			"mimeType":"image/png",
			"name":"Tread_baseColor",
			"uri":"Tread_baseColor.png"
		}
	],
	"accessors":[
		{
			"bufferView":0,
			"componentType":5126,
			"count":5069,
			"max":[
				1.10035240650177,
				0.7799999713897705,
				0.5765389204025269
			],
			"min":[
				-1.10035240650177,
				0,
				-0.5765389204025269
			],
			"type":"VEC3"
		},
		{
			"bufferView":1,
			"componentType":5126,
			"count":5069,
			"type":"VEC3"
		},
		{
			"bufferView":2,
			"componentType":5126,
			"count":5069,
			"type":"VEC2"
		},
		{
			"bufferView":3,
			"componentType":5123,
			"count":13614,
			"type":"SCALAR"
		},
		{
			"bufferView":4,
			"componentType":5126,
			"count":3185,
			"max":[
				0.04672938585281372,
				0.00488990917801857,
				0.17798665165901184
			],
			"min":[
				-0.04685772955417633,
				0.0001449005794711411,
				0.07752782851457596
			],
			"type":"VEC3"
		},
		{
			"bufferView":5,
			"componentType":5126,
			"count":3185,
			"type":"VEC3"
		},
		{
			"bufferView":6,
			"componentType":5126,
			"count":3185,
			"type":"VEC2"
		},
		{
			"bufferView":7,
			"componentType":5123,
			"count":16332,
			"type":"SCALAR"
		},
		{
			"bufferView":8,
			"componentType":5126,
			"count":3234,
			"max":[
				0.01822962798178196,
				0.09824071079492569,
				0.2577632963657379
			],
			"min":[
				-0.018382348120212555,
				0.08386237174272537,
				0.24365797638893127
			],
			"type":"VEC3"
		},
		{
			"bufferView":9,
			"componentType":5126,
			"count":3234,
			"type":"VEC3"
		},
		{
			"bufferView":10,
			"componentType":5126,
			"count":3234,
			"type":"VEC2"
		},
		{
			"bufferView":11,
			"componentType":5123,
			"count":18432,
			"type":"SCALAR"
		},
		{
			"bufferView":12,
			"componentType":5126,
			"count":7780,
			"max":[
				0.574999988079071,
				0.11326850205659866,
				0.2178238034248352
			],
			"min":[
				-0.574999988079071,
				0.003178014187142253,
				-0.2633132040500641
			],
			"type":"VEC3"
		},
		{
			"bufferView":13,
			"componentType":5126,
			"count":7780,
			"type":"VEC3"
		},
		{
			"bufferView":14,
			"componentType":5126,
			"count":7780,
			"type":"VEC2"
		},
		{
			"bufferView":15,
			"componentType":5123,
			"count":36849,
			"type":"SCALAR"
		},
		{
			"bufferView":16,
			"componentType":5126,
			"count":3732,
			"max":[
				0.040846966207027435,
				0.11141768842935562,
				0.2573487162590027
			],
			"min":[
				-0.04090843349695206,
				0.006351564545184374,
				-0.1382489651441574
			],
			"type":"VEC3"
		},
		{
			"bufferView":17,
			"componentType":5126,
			"count":3732,
			"type":"VEC3"
		},
		{
			"bufferView":18,
			"componentType":5126,
			"count":3732,
			"type":"VEC2"
		},
		{
			"bufferView":19,
			"componentType":5123,
			"count":16629,
			"type":"SCALAR"
		},
		{
			"bufferView":20,
			"componentType":5126,
			"count":5050,
			"max":[
				0.5488794445991516,
				0.11056030541658401,
				0.21404433250427246
			],
			"min":[
				-0.5487874746322632,
				0.003951963968575001,
				-0.2612960934638977
			],
			"type":"VEC3"
		},
		{
			"bufferView":21,
			"componentType":5126,
			"count":5050,
			"type":"VEC3"
		},
		{
			"bufferView":22,
			"componentType":5126,
			"count":5050,
			"type":"VEC2"
		},
		{
			"bufferView":23,
			"componentType":5123,
			"count":21351,
			"type":"SCALAR"
		},
		{
			"bufferView":24,
			"componentType":5126,
			"count":8867,
			"max":[
				0.04478801414370537,
				0.11037803441286087,
				0.22297580540180206
			],
			"min":[
				-0.044638171792030334,
				0,
				-0.2565155625343323
			],
			"type":"VEC3"
		},
		{
			"bufferView":25,
			"componentType":5126,
			"count":8867,
			"type":"VEC3"
		},
		{
			"bufferView":26,
			"componentType":5126,
			"count":8867,
			"type":"VEC2"
		},
		{
			"bufferView":27,
			"componentType":5123,
			"count":46992,
			"type":"SCALAR"
		},
		{
			"bufferView":28,
			"componentType":5126,
			"count":6304,
			"max":[
				0.030245976522564888,
				0.12438859790563583,
				0.2633132040500641
			],
			"min":[
				-0.030097972601652145,
				0.0754421278834343,
				0.1959134340286255
			],
			"type":"VEC3"
		},
		{
			"bufferView":29,
			"componentType":5126,
			"count":6304,
			"type":"VEC3"
		},
		{
			"bufferView":30,
			"componentType":5126,
			"count":6304,
			"type":"VEC2"
		},
		{
			"bufferView":31,
			"componentType":5123,
			"count":31896,
			"type":"SCALAR"
		},
		{
			"bufferView":32,
			"componentType":5126,
			"count":186138,
			"max":[
				0.11022140830755234,
				0.36691707372665405,
				0.04333159327507019
			],
			"min":[
				-0.1104850322008133,
				0.0004314529069233686,
				-0.04469723999500275
			],
			"type":"VEC3"
		},
		{
			"bufferView":33,
			"componentType":5126,
			"count":186138,
			"type":"VEC3"
		},
		{
			"bufferView":34,
			"componentType":5126,
			"count":186138,
			"type":"VEC2"
		},
		{
			"bufferView":35,
			"componentType":5125,
			"count":879465,
			"type":"SCALAR"
		},
		{
			"bufferView":36,
			"componentType":5126,
			"count":101062,
			"max":[
				0.011980398558080196,
				0.29508066177368164,
				0.03163950517773628
			],
			"min":[
				-0.007808295544236898,
				0.27885547280311584,
				0.021260982379317284
			],
			"type":"VEC3"
		},
		{
			"bufferView":37,
			"componentType":5126,
			"count":101062,
			"type":"VEC3"
		},
		{
			"bufferView":38,
			"componentType":5126,
			"count":101062,
			"type":"VEC2"
		},
		{
			"bufferView":39,
			"componentType":5125,
			"count":372432,
			"type":"SCALAR"
		},
		{
			"bufferView":40,
			"componentType":5126,
			"count":33083,
			"max":[
				0.10910505056381226,
				0.37319687008857727,
				0.03939766436815262
			],
			"min":[
				-0.11060678213834763,
				0.08726431429386139,
				-0.04407838359475136
			],
			"type":"VEC3"
		},
		{
			"bufferView":41,
			"componentType":5126,
			"count":33083,
			"type":"VEC3"
		},
		{
			"bufferView":42,
			"componentType":5126,
			"count":33083,
			"type":"VEC2"
		},
		{
			"bufferView":43,
			"componentType":5123,
			"count":163692,
			"type":"SCALAR"
		},
		{
			"bufferView":44,
			"componentType":5126,
			"count":92547,
			"max":[
				0.11060678213834763,
				0.3799999952316284,
				0.04469723999500275
			],
			"min":[
				-0.11052270233631134,
				0,
				-0.043888092041015625
			],
			"type":"VEC3"
		},
		{
			"bufferView":45,
			"componentType":5126,
			"count":92547,
			"type":"VEC3"
		},
		{
			"bufferView":46,
			"componentType":5126,
			"count":92547,
			"type":"VEC2"
		},
		{
			"bufferView":47,
			"componentType":5125,
			"count":450018,
			"type":"SCALAR"
		},
		{
			"bufferView":48,
			"componentType":5126,
			"count":20070,
			"max":[
				0.0924137681722641,
				0.35677096247673035,
				0.03134998306632042
			],
			"min":[
				-0.09606242179870605,
				0.003729364136233926,
				-0.03753950446844101
			],
			"type":"VEC3"
		},
		{
			"bufferView":49,
			"componentType":5126,
			"count":20070,
			"type":"VEC3"
		},
		{
			"bufferView":50,
			"componentType":5126,
			"count":20070,
			"type":"VEC2"
		},
		{
			"bufferView":51,
			"componentType":5123,
			"count":52944,
			"type":"SCALAR"
		},
		{
			"bufferView":52,
			"componentType":5126,
			"count":258,
			"max":[
				0.010531214997172356,
				0.2944798767566681,
				0.032613154500722885
			],
			"min":[
				-0.004960715305060148,
				0.2796124219894409,
				0.025094518437981606
			],
			"type":"VEC3"
		},
		{
			"bufferView":53,
			"componentType":5126,
			"count":258,
			"type":"VEC3"
		},
		{
			"bufferView":54,
			"componentType":5126,
			"count":258,
			"type":"VEC2"
		},
		{
			"bufferView":55,
			"componentType":5123,
			"count":1008,
			"type":"SCALAR"
		},
		{
			"bufferView":56,
			"componentType":5126,
			"count":1602,
			"max":[
				0.07571576535701752,
				0.18000000715255737,
				0.07681107521057129
			],
			"min":[
				-0.07790639251470566,
				0.026980599388480186,
				-0.07681107521057129
			],
			"type":"VEC3"
		},
		{
			"bufferView":57,
			"componentType":5126,
			"count":1602,
			"type":"VEC3"
		},
		{
			"bufferView":58,
			"componentType":5126,
			"count":1602,
			"type":"VEC2"
		},
		{
			"bufferView":59,
			"componentType":5123,
			"count":9216,
			"type":"SCALAR"
		},
		{
			"bufferView":60,
			"componentType":5126,
			"count":3298,
			"max":[
				0.10825896263122559,
				0.1187957376241684,
				0.04750634729862213
			],
			"min":[
				-0.10825896263122559,
				0.06339048594236374,
				-0.0432877354323864
			],
			"type":"VEC3"
		},
		{
			"bufferView":61,
			"componentType":5126,
			"count":3298,
			"type":"VEC3"
		},
		{
			"bufferView":62,
			"componentType":5126,
			"count":3298,
			"type":"VEC2"
		},
		{
			"bufferView":63,
			"componentType":5123,
			"count":18432,
			"type":"SCALAR"
		},
		{
			"bufferView":64,
			"componentType":5126,
			"count":3338,
			"max":[
				0.07414086908102036,
				0.04739610478281975,
				0.06519712507724762
			],
			"min":[
				-0.0788235068321228,
				0,
				-0.04902028664946556
			],
			"type":"VEC3"
		},
		{
			"bufferView":65,
			"componentType":5126,
			"count":3338,
			"type":"VEC3"
		},
		{
			"bufferView":66,
			"componentType":5126,
			"count":3338,
			"type":"VEC2"
		},
		{
			"bufferView":67,
			"componentType":5123,
			"count":19200,
			"type":"SCALAR"
		},
		{
			"bufferView":68,
			"componentType":5126,
			"count":1965,
			"max":[
				0.09624803066253662,
				0.17000000178813934,
				0.10927964001893997
			],
			"min":[
				-0.09624803066253662,
				0,
				-0.10927964001893997
			],
			"type":"VEC3"
		},
		{
			"bufferView":69,
			"componentType":5126,
			"count":1965,
			"type":"VEC3"
		},
		{
			"bufferView":70,
			"componentType":5126,
			"count":1965,
			"type":"VEC2"
		},
		{
			"bufferView":71,
			"componentType":5123,
			"count":8676,
			"type":"SCALAR"
		},
		{
			"bufferView":72,
			"componentType":5126,
			"count":49598,
			"max":[
				0.12716162204742432,
				0.2800000011920929,
				0.10904894769191742
			],
			"min":[
				-0.12650837004184723,
				0.00400863541290164,
				-0.10053785145282745
			],
			"type":"VEC3"
		},
		{
			"bufferView":73,
			"componentType":5126,
			"count":49598,
			"type":"VEC3"
		},
		{
			"bufferView":74,
			"componentType":5126,
			"count":49598,
			"type":"VEC2"
		},
		{
			"bufferView":75,
			"componentType":5123,
			"count":107664,
			"type":"SCALAR"
		},
		{
			"bufferView":76,
			"componentType":5126,
			"count":12773,
			"max":[
				0.08603589236736298,
				0.2578310966491699,
				0.06907108426094055
			],
			"min":[
				-0.09282279759645462,
				0.06675628572702408,
				-0.10144416987895966
			],
			"type":"VEC3"
		},
		{
			"bufferView":77,
			"componentType":5126,
			"count":12773,
			"type":"VEC3"
		},
		{
			"bufferView":78,
			"componentType":5126,
			"count":12773,
			"type":"VEC2"
		},
		{
			"bufferView":79,
			"componentType":5123,
			"count":28683,
			"type":"SCALAR"
		},
		{
			"bufferView":80,
			"componentType":5126,
			"count":29622,
			"max":[
				0.13403329253196716,
				0.12313523888587952,
				0.08625129610300064
			],
			"min":[
				-0.13403329253196716,
				0,
				-0.10904894769191742
			],
			"type":"VEC3"
		},
		{
			"bufferView":81,
			"componentType":5126,
			"count":29622,
			"type":"VEC3"
		},
		{
			"bufferView":82,
			"componentType":5126,
			"count":29622,
			"type":"VEC2"
		},
		{
			"bufferView":83,
			"componentType":5123,
			"count":53856,
			"type":"SCALAR"
		}
	],
	"bufferViews":[
		{
			"buffer":0,
			"byteLength":60828,
			"byteOffset":0,
			"target":34962
		},
		{
			"buffer":0,
			"byteLength":60828,
			"byteOffset":60828,
			"target":34962
		},
		{
			"buffer":0,
			"byteLength":40552,
			"byteOffset":121656,
			"target":34962
		},
		{
			"buffer":0,
			"byteLength":27228,
			"byteOffset":162208,
			"target":34963
		},
		{
			"buffer":0,
			"byteLength":38220,
			"byteOffset":189436,
			"target":34962
		},
		{
			"buffer":0,
			"byteLength":38220,
			"byteOffset":227656,
			"target":34962
		},
		{
			"buffer":0,
			"byteLength":25480,
			"byteOffset":265876,
			"target":34962
		},
		{
			"buffer":0,
			"byteLength":32664,
			"byteOffset":291356,
			"target":34963
		},
		{
			"buffer":0,
			"byteLength":38808,
			"byteOffset":324020,
			"target":34962
		},
		{
			"buffer":0,
			"byteLength":38808,
			"byteOffset":362828,
			"target":34962
		},
		{
			"buffer":0,
			"byteLength":25872,
			"byteOffset":401636,
			"target":34962
		},
		{
			"buffer":0,
			"byteLength":36864,
			"byteOffset":427508,
			"target":34963
		},
		{
			"buffer":0,
			"byteLength":93360,
			"byteOffset":464372,
			"target":34962
		},
		{
			"buffer":0,
			"byteLength":93360,
			"byteOffset":557732,
			"target":34962
		},
		{
			"buffer":0,
			"byteLength":62240,
			"byteOffset":651092,
			"target":34962
		},
		{
			"buffer":0,
			"byteLength":73698,
			"byteOffset":713332,
			"target":34963
		},
		{
			"buffer":0,
			"byteLength":44784,
			"byteOffset":787032,
			"target":34962
		},
		{
			"buffer":0,
			"byteLength":44784,
			"byteOffset":831816,
			"target":34962
		},
		{
			"buffer":0,
			"byteLength":29856,
			"byteOffset":876600,
			"target":34962
		},
		{
			"buffer":0,
			"byteLength":33258,
			"byteOffset":906456,
			"target":34963
		},
		{
			"buffer":0,
			"byteLength":60600,
			"byteOffset":939716,
			"target":34962
		},
		{
			"buffer":0,
			"byteLength":60600,
			"byteOffset":1000316,
			"target":34962
		},
		{
			"buffer":0,
			"byteLength":40400,
			"byteOffset":1060916,
			"target":34962
		},
		{
			"buffer":0,
			"byteLength":42702,
			"byteOffset":1101316,
			"target":34963
		},
		{
			"buffer":0,
			"byteLength":106404,
			"byteOffset":1144020,
			"target":34962
		},
		{
			"buffer":0,
			"byteLength":106404,
			"byteOffset":1250424,
			"target":34962
		},
		{
			"buffer":0,
			"byteLength":70936,
			"byteOffset":1356828,
			"target":34962
		},
		{
			"buffer":0,
			"byteLength":93984,
			"byteOffset":1427764,
			"target":34963
		},
		{
			"buffer":0,
			"byteLength":75648,
			"byteOffset":1521748,
			"target":34962
		},
		{
			"buffer":0,
			"byteLength":75648,
			"byteOffset":1597396,
			"target":34962
		},
		{
			"buffer":0,
			"byteLength":50432,
			"byteOffset":1673044,
			"target":34962
		},
		{
			"buffer":0,
			"byteLength":63792,
			"byteOffset":1723476,
			"target":34963
		},
		{
			"buffer":0,
			"byteLength":2233656,
			"byteOffset":1787268,
			"target":34962
		},
		{
			"buffer":0,
			"byteLength":2233656,
			"byteOffset":4020924,
			"target":34962
		},
		{
			"buffer":0,
			"byteLength":1489104,
			"byteOffset":6254580,
			"target":34962
		},
		{
			"buffer":0,
			"byteLength":3517860,
			"byteOffset":7743684,
			"target":34963
		},
		{
			"buffer":0,
			"byteLength":1212744,
			"byteOffset":11261544,
			"target":34962
		},
		{
			"buffer":0,
			"byteLength":1212744,
			"byteOffset":12474288,
			"target":34962
		},
		{
			"buffer":0,
			"byteLength":808496,
			"byteOffset":13687032,
			"target":34962
		},
		{
			"buffer":0,
			"byteLength":1489728,
			"byteOffset":14495528,
			"target":34963
		},
		{
			"buffer":0,
			"byteLength":396996,
			"byteOffset":15985256,
			"target":34962
		},
		{
			"buffer":0,
			"byteLength":396996,
			"byteOffset":16382252,
			"target":34962
		},
		{
			"buffer":0,
			"byteLength":264664,
			"byteOffset":16779248,
			"target":34962
		},
		{
			"buffer":0,
			"byteLength":327384,
			"byteOffset":17043912,
			"target":34963
		},
		{
			"buffer":0,
			"byteLength":1110564,
			"byteOffset":17371296,
			"target":34962
		},
		{
			"buffer":0,
			"byteLength":1110564,
			"byteOffset":18481860,
			"target":34962
		},
		{
			"buffer":0,
			"byteLength":740376,
			"byteOffset":19592424,
			"target":34962
		},
		{
			"buffer":0,
			"byteLength":1800072,
			"byteOffset":20332800,
			"target":34963
		},
		{
			"buffer":0,
			"byteLength":240840,
			"byteOffset":22132872,
			"target":34962
		},
		{
			"buffer":0,
			"byteLength":240840,
			"byteOffset":22373712,
			"target":34962
		},
		{
			"buffer":0,
			"byteLength":160560,
			"byteOffset":22614552,
			"target":34962
		},
		{
			"buffer":0,
			"byteLength":105888,
			"byteOffset":22775112,
			"target":34963
		},
		{
			"buffer":0,
			"byteLength":3096,
			"byteOffset":22881000,
			"target":34962
		},
		{
			"buffer":0,
			"byteLength":3096,
			"byteOffset":22884096,
			"target":34962
		},
		{
			"buffer":0,
			"byteLength":2064,
			"byteOffset":22887192,
			"target":34962
		},
		{
			"buffer":0,
			"byteLength":2016,
			"byteOffset":22889256,
			"target":34963
		},
		{
			"buffer":0,
			"byteLength":19224,
			"byteOffset":22891272,
			"target":34962
		},
		{
			"buffer":0,
			"byteLength":19224,
			"byteOffset":22910496,
			"target":34962
		},
		{
			"buffer":0,
			"byteLength":12816,
			"byteOffset":22929720,
			"target":34962
		},
		{
			"buffer":0,
			"byteLength":18432,
			"byteOffset":22942536,
			"target":34963
		},
		{
			"buffer":0,
			"byteLength":39576,
			"byteOffset":22960968,
			"target":34962
		},
		{
			"buffer":0,
			"byteLength":39576,
			"byteOffset":23000544,
			"target":34962
		},
		{
			"buffer":0,
			"byteLength":26384,
			"byteOffset":23040120,
			"target":34962
		},
		{
			"buffer":0,
			"byteLength":36864,
			"byteOffset":23066504,
			"target":34963
		},
		{
			"buffer":0,
			"byteLength":40056,
			"byteOffset":23103368,
			"target":34962
		},
		{
			"buffer":0,
			"byteLength":40056,
			"byteOffset":23143424,
			"target":34962
		},
		{
			"buffer":0,
			"byteLength":26704,
			"byteOffset":23183480,
			"target":34962
		},
		{
			"buffer":0,
			"byteLength":38400,
			"byteOffset":23210184,
			"target":34963
		},
		{
			"buffer":0,
			"byteLength":23580,
			"byteOffset":23248584,
			"target":34962
		},
		{
			"buffer":0,
			"byteLength":23580,
			"byteOffset":23272164,
			"target":34962
		},
		{
			"buffer":0,
			"byteLength":15720,
			"byteOffset":23295744,
			"target":34962
		},
		{
			"buffer":0,
			"byteLength":17352,
			"byteOffset":23311464,
			"target":34963
		},
		{
			"buffer":0,
			"byteLength":595176,
			"byteOffset":23328816,
			"target":34962
		},
		{
			"buffer":0,
			"byteLength":595176,
			"byteOffset":23923992,
			"target":34962
		},
		{
			"buffer":0,
			"byteLength":396784,
			"byteOffset":24519168,
			"target":34962
		},
		{
			"buffer":0,
			"byteLength":215328,
			"byteOffset":24915952,
			"target":34963
		},
		{
			"buffer":0,
			"byteLength":153276,
			"byteOffset":25131280,
			"target":34962
		},
		{
			"buffer":0,
			"byteLength":153276,
			"byteOffset":25284556,
			"target":34962
		},
		{
			"buffer":0,
			"byteLength":102184,
			"byteOffset":25437832,
			"target":34962
		},
		{
			"buffer":0,
			"byteLength":57366,
			"byteOffset":25540016,
			"target":34963
		},
		{
			"buffer":0,
			"byteLength":355464,
			"byteOffset":25597384,
			"target":34962
		},
		{
			"buffer":0,
			"byteLength":355464,
			"byteOffset":25952848,
			"target":34962
		},
		{
			"buffer":0,
			"byteLength":236976,
			"byteOffset":26308312,
			"target":34962
		},
		{
			"buffer":0,
			"byteLength":107712,
			"byteOffset":26545288,
			"target":34963
		}
	],
	"samplers":[
		{
			"magFilter":9729,
			"minFilter":9987
		}
	],
	"buffers":[
		{
			"byteLength":26653000,
			"uri":"tabletop3.bin"
		}
	]
}
