{
	"asset":{
		"generator":"Khronos glTF Blender I/O v4.1.63",
		"version":"2.0"
	},
	"extensionsUsed":[
		"KHR_materials_specular",
		"KHR_materials_transmission"
	],
	"scene":0,
	"scenes":[
		{
			"name":"Scene",
			"nodes":[
				0,
				1,
				2,
				3,
				4,
				55,
				60
			]
		}
	],
	"nodes":[
		{
			"mesh":0,
			"name":"WoodenTable",
			"scale":[
				6.182124614715576,
				6.182124614715576,
				6.182124614715576
			],
			"translation":[
				0.09994099289178848,
				-5.485054969787598,
				-0.6551686525344849
			]
		},
		{
			"mesh":1,
			"name":"Toothless",
			"rotation":[
				0,
				-0.5931625962257385,
				0,
				0.8050826787948608
			],
			"scale":[
				23.154590606689453,
				23.154590606689453,
				23.154590606689453
			],
			"translation":[
				5.865047931671143,
				-0.6620748043060303,
				-2.200699806213379
			]
		},
		{
			"mesh":2,
			"name":"Ironman",
			"rotation":[
				0,
				0.5029155015945435,
				0,
				0.8643355965614319
			],
			"scale":[
				9.49843692779541,
				9.49843692779541,
				9.49843692779541
			],
			"translation":[
				-3.2946958541870117,
				-0.6620724201202393,
				-2.0990209579467773
			]
		},
		{
			"mesh":3,
			"name":"Spheal",
			"rotation":[
				0,
				-0.767192006111145,
				0,
				0.6414175033569336
			],
			"scale":[
				6.182124614715576,
				6.182124614715576,
				6.182124614715576
			],
			"translation":[
				1.6287965774536133,
				-0.6620743274688721,
				1.0502309799194336
			]
		},
		{
			"mesh":4,
			"name":"Walle",
			"rotation":[
				0,
				0.8294951319694519,
				0,
				0.5585139393806458
			],
			"scale":[
				6.365497589111328,
				6.3654961585998535,
				6.365497589111328
			],
			"translation":[
				-3.3269824981689453,
				-0.6620721817016602,
				0.14168846607208252
			]
		},
		{
			"name":"transform11",
			"translation":[
				0,
				0,
				-4.76837158203125e-06
			]
		},
		{
			"children":[
				5
			],
			"name":"pasted__pSphere6",
			"rotation":[
				-0.22190886735916138,
				-0.0006853305967524648,
				-2.1514937543543056e-05,
				0.9750672578811646
			],
			"scale":[
				0.11432937532663345,
				0.29400435090065,
				0.06177980825304985
			],
			"translation":[
				-0.26302406191825867,
				1.5633689165115356,
				0.8239928483963013
			]
		},
		{
			"children":[
				6
			],
			"name":"group2",
			"translation":[
				0.5306878685951233,
				0,
				0
			]
		},
		{
			"name":"transform10",
			"translation":[
				0,
				0,
				-4.708766937255859e-06
			]
		},
		{
			"children":[
				8
			],
			"name":"pasted__pSphere6.001",
			"rotation":[
				-0.22042103111743927,
				-0.16404898464679718,
				0.6799843907356262,
				0.6797968149185181
			],
			"scale":[
				0.11430472135543823,
				0.19126808643341064,
				0.06177980825304985
			],
			"translation":[
				-0.5360091328620911,
				1.776792287826538,
				0.7902133464813232
			]
		},
		{
			"children":[
				9
			],
			"name":"group3",
			"translation":[
				0,
				-0.6717050075531006,
				0
			]
		},
		{
			"name":"transform8"
		},
		{
			"children":[
				11
			],
			"name":"pasted__pasted__pSphere6",
			"rotation":[
				-0.17280733585357666,
				-0.11655765771865845,
				0.6897138357162476,
				0.6934311389923096
			],
			"scale":[
				0.10497524589300156,
				0.19126811623573303,
				0.06177980452775955
			],
			"translation":[
				-0.5091109275817871,
				1.7767927646636963,
				0.7991544008255005
			]
		},
		{
			"children":[
				12
			],
			"name":"pasted__group3",
			"translation":[
				0,
				-0.6717049479484558,
				0
			]
		},
		{
			"children":[
				13
			],
			"name":"group4",
			"rotation":[
				0,
				0.48400765657424927,
				0,
				0.8750637769699097
			],
			"translation":[
				0.1553688496351242,
				0,
				-0.07170706987380981
			]
		},
		{
			"name":"transform1"
		},
		{
			"children":[
				15
			],
			"name":"pasted__pSphere6.002",
			"rotation":[
				-0.31813758611679077,
				-0.02419477328658104,
				-0.030328113585710526,
				0.9472504258155823
			],
			"scale":[
				0.09782816469669342,
				0.25098738074302673,
				0.061779800802469254
			],
			"translation":[
				-0.280908465385437,
				1.6744072437286377,
				0.7252331972122192
			]
		},
		{
			"name":"transform13"
		},
		{
			"children":[
				17
			],
			"name":"pasted__pSphere7",
			"rotation":[
				-0.3188113868236542,
				-0.012496799230575562,
				0.004474387504160404,
				0.947725236415863
			],
			"scale":[
				0.09782815724611282,
				0.25098738074302673,
				0.061779800802469254
			],
			"translation":[
				-0.2732659578323364,
				1.4756009578704834,
				0.8489991426467896
			]
		},
		{
			"name":"transform14",
			"translation":[
				0,
				0,
				4.291534423828125e-06
			]
		},
		{
			"children":[
				19
			],
			"name":"pasted__pSphere8",
			"rotation":[
				-0.3188113868236542,
				-0.012496799230575562,
				0.00447439169511199,
				0.947725236415863
			],
			"scale":[
				0.09782815724611282,
				0.27513518929481506,
				0.061779800802469254
			],
			"translation":[
				0.4410727024078369,
				1.464252233505249,
				0.8427331447601318
			]
		},
		{
			"children":[
				16,
				18,
				20
			],
			"name":"group5",
			"rotation":[
				0.29045823216438293,
				0,
				0,
				0.9568877816200256
			],
			"scale":[
				0.7498682737350464,
				0.3630731403827667,
				1
			],
			"translation":[
				-0.06579061597585678,
				1.5643471479415894,
				-0.12914972007274628
			]
		},
		{
			"name":"transform2"
		},
		{
			"children":[
				22
			],
			"name":"pasted__pasted__pSphere6.001",
			"rotation":[
				-0.3187796175479889,
				-0.013285866007208824,
				0.002128676977008581,
				0.947733461856842
			],
			"scale":[
				0.09782817959785461,
				0.25098738074302673,
				0.06177981570363045
			],
			"translation":[
				-0.32237154245376587,
				1.6909033060073853,
				0.7396213412284851
			]
		},
		{
			"children":[
				23
			],
			"name":"pasted__group5",
			"rotation":[
				0.29045823216438293,
				0,
				0,
				0.9568877816200256
			],
			"scale":[
				0.7498681545257568,
				0.36307308077812195,
				1
			],
			"translation":[
				-0.06579067558050156,
				1.5643469095230103,
				-0.1291496455669403
			]
		},
		{
			"children":[
				24
			],
			"name":"group6",
			"rotation":[
				0,
				0,
				-0.01685119792819023,
				0.999858021736145
			],
			"translation":[
				0.5084026455879211,
				-0.00860047247260809,
				0
			]
		},
		{
			"name":"transform7"
		},
		{
			"children":[
				26
			],
			"name":"pSphere1",
			"rotation":[
				-0.22095328569412231,
				-0.4462282061576843,
				-0.5021355152130127,
				0.7070502638816833
			],
			"scale":[
				0.40404966473579407,
				0.2653335928916931,
				0.39332252740859985
			],
			"translation":[
				0.9846014976501465,
				1.0088330507278442,
				0.2748226225376129
			]
		},
		{
			"name":"transform15"
		},
		{
			"children":[
				28
			],
			"name":"pSphere2",
			"translation":[
				0,
				1.0591099262237549,
				0
			]
		},
		{
			"name":"transform3"
		},
		{
			"children":[
				30
			],
			"name":"pSphere3",
			"rotation":[
				0,
				0,
				-0.8581739068031311,
				0.5133593082427979
			],
			"scale":[
				0.4706909954547882,
				0.3180185854434967,
				0.39332255721092224
			],
			"translation":[
				-1.0012307167053223,
				0.9688114523887634,
				0.0006519046728499234
			]
		},
		{
			"name":"transform4"
		},
		{
			"children":[
				32
			],
			"name":"pSphere4",
			"scale":[
				0.6428822875022888,
				0.3678792715072632,
				0.7448843121528625
			],
			"translation":[
				-0.456981360912323,
				-1.1903213262557983,
				0
			]
		},
		{
			"name":"transform5"
		},
		{
			"children":[
				34
			],
			"name":"pSphere5",
			"rotation":[
				0,
				-0.9754069447517395,
				0,
				0.22041165828704834
			],
			"scale":[
				0.41317319869995117,
				0.3678792715072632,
				0.7042521238327026
			],
			"translation":[
				0.529710590839386,
				0.017158549278974533,
				0.10735493153333664
			]
		},
		{
			"name":"transform12",
			"translation":[
				2.414220944046974e-06,
				0,
				0
			]
		},
		{
			"children":[
				36
			],
			"name":"pSphere6",
			"rotation":[
				-0.22916463017463684,
				-0.0058281016536056995,
				-0.0012606477830559015,
				0.9733694195747375
			],
			"scale":[
				0.11432938277721405,
				0.2940043807029724,
				0.06177980825304985
			],
			"translation":[
				-0.2630244195461273,
				1.5591946840286255,
				0.8087658882141113
			]
		},
		{
			"name":"transform9"
		},
		{
			"children":[
				38
			],
			"name":"pSphere7",
			"scale":[
				0.18589554727077484,
				0.16401861608028412,
				0.04583549126982689
			],
			"translation":[
				0,
				1.0643010139465332,
				1.2051551342010498
			]
		},
		{
			"name":"transform6"
		},
		{
			"children":[
				40
			],
			"name":"pSphere8",
			"scale":[
				0.12255152314901352,
				0.10812917351722717,
				0.04583549126982689
			],
			"translation":[
				-0.0391610749065876,
				1.2354429960250854,
				1.2464693784713745
			]
		},
		{
			"mesh":5,
			"name":"pSphere9_blinn2_0"
		},
		{
			"mesh":6,
			"name":"pSphere9_blinn6_0"
		},
		{
			"mesh":7,
			"name":"pSphere9_lambert11_0"
		},
		{
			"mesh":8,
			"name":"pSphere9_lambert15_0"
		},
		{
			"mesh":9,
			"name":"pSphere9_lambert16_0"
		},
		{
			"mesh":10,
			"name":"pSphere9_lambert4_0"
		},
		{
			"mesh":11,
			"name":"pSphere9_lambert6_0"
		},
		{
			"mesh":12,
			"name":"pSphere9_lambert9_0"
		},
		{
			"mesh":13,
			"name":"pSphere9_pasted__lambert6_0"
		},
		{
			"children":[
				42,
				43,
				44,
				45,
				46,
				47,
				48,
				49,
				50
			],
			"name":"pSphere9"
		},
		{
			"children":[
				7,
				10,
				14,
				21,
				25,
				27,
				29,
				31,
				33,
				35,
				37,
				39,
				41,
				51
			],
			"name":"RootNode"
		},
		{
			"children":[
				52
			],
			"name":"Object_2"
		},
		{
			"children":[
				53
			],
			"name":"020071481a6e4e40996dc1ca4f6e3abd.fbx",
			"rotation":[
				0.70710688829422,
				0,
				0,
				0.7071066498756409
			],
			"scale":[
				0.009999999776482582,
				0.009999999776482582,
				0.010000001639127731
			]
		},
		{
			"children":[
				54
			],
			"name":"Sketchfab_model",
			"rotation":[
				-0.2900318205356598,
				0.6448745131492615,
				0.6449102163314819,
				0.2900157868862152
			],
			"scale":[
				55.3807373046875,
				55.38074493408203,
				55.38074493408203
			],
			"translation":[
				-1.9280864000320435,
				-0.5955898761749268,
				1.3821383714675903
			]
		},
		{
			"mesh":14,
			"name":"defaultMaterial"
		},
		{
			"mesh":15,
			"name":"defaultMaterial.001"
		},
		{
			"children":[
				56,
				57
			],
			"name":"spiderman_2"
		},
		{
			"children":[
				58
			],
			"name":"Collada visual scene group",
			"rotation":[
				0.70710688829422,
				0,
				0,
				0.7071066498756409
			],
			"translation":[
				0,
				-2.0331033283582656e-06,
				-2.234079147456214e-06
			]
		},
		{
			"children":[
				59
			],
			"name":"Sketchfab_model.001",
			"rotation":[
				-0.3840792179107666,
				-0.5937029123306274,
				-0.5937029123306274,
				0.3840792179107666
			],
			"scale":[
				0.15095198154449463,
				0.15095198154449463,
				0.15095198154449463
			],
			"translation":[
				3.647561550140381,
				3.6991539001464844,
				1.4950242042541504
			]
		}
	],
	"animations":[
		{
			"channels":[
				{
					"sampler":0,
					"target":{
						"node":18,
						"path":"translation"
					}
				},
				{
					"sampler":1,
					"target":{
						"node":18,
						"path":"scale"
					}
				},
				{
					"sampler":2,
					"target":{
						"node":33,
						"path":"translation"
					}
				},
				{
					"sampler":3,
					"target":{
						"node":33,
						"path":"rotation"
					}
				},
				{
					"sampler":4,
					"target":{
						"node":33,
						"path":"scale"
					}
				},
				{
					"sampler":5,
					"target":{
						"node":39,
						"path":"translation"
					}
				},
				{
					"sampler":6,
					"target":{
						"node":39,
						"path":"rotation"
					}
				},
				{
					"sampler":7,
					"target":{
						"node":39,
						"path":"scale"
					}
				},
				{
					"sampler":8,
					"target":{
						"node":41,
						"path":"translation"
					}
				},
				{
					"sampler":9,
					"target":{
						"node":41,
						"path":"rotation"
					}
				},
				{
					"sampler":10,
					"target":{
						"node":41,
						"path":"scale"
					}
				}
			],
			"name":"Take 001",
			"samplers":[
				{
					"input":111,
					"interpolation":"LINEAR",
					"output":112
				},
				{
					"input":111,
					"interpolation":"LINEAR",
					"output":113
				},
				{
					"input":111,
					"interpolation":"LINEAR",
					"output":114
				},
				{
					"input":111,
					"interpolation":"LINEAR",
					"output":115
				},
				{
					"input":111,
					"interpolation":"LINEAR",
					"output":116
				},
				{
					"input":111,
					"interpolation":"LINEAR",
					"output":117
				},
				{
					"input":111,
					"interpolation":"LINEAR",
					"output":118
				},
				{
					"input":111,
					"interpolation":"LINEAR",
					"output":119
				},
				{
					"input":111,
					"interpolation":"LINEAR",
					"output":120
				},
				{
					"input":111,
					"interpolation":"LINEAR",
					"output":121
				},
				{
					"input":111,
					"interpolation":"LINEAR",
					"output":122
				}
			]
		}
	],
	"materials":[
		{
			"doubleSided":true,
			"name":"WoodenTable / Table",
			"normalTexture":{
				"index":0
			},
			"occlusionTexture":{
				"index":1
			},
			"pbrMetallicRoughness":{
				"baseColorTexture":{
					"index":2
				},
				"metallicRoughnessTexture":{
					"index":1
				}
			}
		},
		{
			"doubleSided":true,
			"name":"Toothless / Claws",
			"normalTexture":{
				"index":3
			},
			"occlusionTexture":{
				"index":4
			},
			"pbrMetallicRoughness":{
				"baseColorTexture":{
					"index":5
				},
				"metallicRoughnessTexture":{
					"index":4
				}
			}
		},
		{
			"doubleSided":true,
			"name":"Toothless / Eyes",
			"normalTexture":{
				"index":6
			},
			"occlusionTexture":{
				"index":7
			},
			"pbrMetallicRoughness":{
				"baseColorTexture":{
					"index":8
				},
				"metallicRoughnessTexture":{
					"index":7
				},
				"roughnessFactor":0.9102514982223511
			}
		},
		{
			"doubleSided":true,
			"name":"Toothless / WingSpines",
			"normalTexture":{
				"index":9
			},
			"occlusionTexture":{
				"index":10
			},
			"pbrMetallicRoughness":{
				"baseColorTexture":{
					"index":11
				},
				"metallicRoughnessTexture":{
					"index":10
				}
			}
		},
		{
			"doubleSided":true,
			"name":"Toothless / Spikes1",
			"normalTexture":{
				"index":12
			},
			"occlusionTexture":{
				"index":13
			},
			"pbrMetallicRoughness":{
				"baseColorTexture":{
					"index":14
				},
				"metallicRoughnessTexture":{
					"index":13
				}
			}
		},
		{
			"doubleSided":true,
			"name":"Toothless / Membranes1",
			"normalTexture":{
				"index":15
			},
			"occlusionTexture":{
				"index":16
			},
			"pbrMetallicRoughness":{
				"baseColorTexture":{
					"index":17
				},
				"metallicRoughnessTexture":{
					"index":16
				}
			}
		},
		{
			"doubleSided":true,
			"name":"Toothless / Body",
			"normalTexture":{
				"index":18
			},
			"occlusionTexture":{
				"index":19
			},
			"pbrMetallicRoughness":{
				"baseColorTexture":{
					"index":20
				},
				"metallicRoughnessTexture":{
					"index":19
				}
			}
		},
		{
			"doubleSided":true,
			"name":"Toothless / Head1",
			"normalTexture":{
				"index":21
			},
			"occlusionTexture":{
				"index":22
			},
			"pbrMetallicRoughness":{
				"baseColorTexture":{
					"index":23
				},
				"metallicRoughnessTexture":{
					"index":22
				}
			}
		},
		{
			"doubleSided":true,
			"extensions":{
				"KHR_materials_specular":{
					"specularFactor":0.4433942139148712
				}
			},
			"name":"Ironman / Silver_Part",
			"normalTexture":{
				"index":24
			},
			"pbrMetallicRoughness":{
				"baseColorTexture":{
					"index":25
				},
				"metallicRoughnessTexture":{
					"index":26
				}
			}
		},
		{
			"doubleSided":true,
			"name":"Ironman / Arc_Reactor",
			"normalTexture":{
				"index":27
			},
			"pbrMetallicRoughness":{
				"baseColorTexture":{
					"index":28
				},
				"metallicRoughnessTexture":{
					"index":29
				}
			}
		},
		{
			"doubleSided":true,
			"name":"Ironman / Gold_Part",
			"normalTexture":{
				"index":30
			},
			"pbrMetallicRoughness":{
				"baseColorTexture":{
					"index":31
				},
				"metallicRoughnessTexture":{
					"index":32
				}
			}
		},
		{
			"doubleSided":true,
			"name":"Ironman / Red_Part",
			"normalTexture":{
				"index":33
			},
			"pbrMetallicRoughness":{
				"baseColorTexture":{
					"index":34
				},
				"metallicRoughnessTexture":{
					"index":35
				}
			}
		},
		{
			"doubleSided":true,
			"emissiveFactor":[
				1,
				1,
				1
			],
			"emissiveTexture":{
				"index":36
			},
			"name":"Ironman / Lights",
			"pbrMetallicRoughness":{
				"baseColorTexture":{
					"index":37
				},
				"metallicFactor":0,
				"roughnessFactor":0.6000000238418579
			}
		},
		{
			"alphaMode":"BLEND",
			"doubleSided":true,
			"name":"Ironman / Glass",
			"pbrMetallicRoughness":{
				"baseColorFactor":[
					1,
					1,
					1,
					0
				],
				"metallicFactor":0,
				"roughnessFactor":0.6000000238418579
			}
		},
		{
			"doubleSided":true,
			"extensions":{
				"KHR_materials_transmission":{
					"transmissionFactor":1
				}
			},
			"name":"Spheal / puzo_i_nos",
			"pbrMetallicRoughness":{
				"baseColorTexture":{
					"index":38
				},
				"metallicFactor":0,
				"roughnessFactor":0
			}
		},
		{
			"alphaMode":"BLEND",
			"doubleSided":true,
			"name":"Walle / Atlas_Metal",
			"normalTexture":{
				"index":39
			},
			"occlusionTexture":{
				"index":40
			},
			"pbrMetallicRoughness":{
				"baseColorTexture":{
					"index":41
				},
				"metallicRoughnessTexture":{
					"index":40
				}
			}
		},
		{
			"alphaMode":"BLEND",
			"doubleSided":true,
			"name":"Walle / Atlas_Painted_metal",
			"normalTexture":{
				"index":42
			},
			"occlusionTexture":{
				"index":43
			},
			"pbrMetallicRoughness":{
				"baseColorTexture":{
					"index":44
				},
				"metallicRoughnessTexture":{
					"index":43
				}
			}
		},
		{
			"alphaMode":"BLEND",
			"doubleSided":true,
			"name":"Walle / Tread",
			"normalTexture":{
				"index":45
			},
			"occlusionTexture":{
				"index":46
			},
			"pbrMetallicRoughness":{
				"baseColorTexture":{
					"index":47
				},
				"metallicRoughnessTexture":{
					"index":46
				}
			}
		},
		{
			"doubleSided":true,
			"name":"blinn2",
			"pbrMetallicRoughness":{
				"baseColorFactor":[
					1,
					0.45500001311302185,
					0.7274640202522278,
					1
				],
				"metallicFactor":0,
				"roughnessFactor":0.9207483530044556
			}
		},
		{
			"doubleSided":true,
			"name":"blinn6",
			"pbrMetallicRoughness":{
				"baseColorFactor":[
					0.4819999933242798,
					0.07422800362110138,
					0.12127800285816193,
					1
				],
				"metallicFactor":0,
				"roughnessFactor":0.9207483530044556
			}
		},
		{
			"doubleSided":true,
			"name":"lambert11",
			"pbrMetallicRoughness":{
				"baseColorFactor":[
					0.09600000083446503,
					0.26985400915145874,
					1,
					1
				],
				"metallicFactor":0,
				"roughnessFactor":0.6000000238418579
			}
		},
		{
			"doubleSided":true,
			"name":"lambert15",
			"pbrMetallicRoughness":{
				"baseColorFactor":[
					0.49300000071525574,
					0,
					0,
					1
				],
				"metallicFactor":0,
				"roughnessFactor":0.6000000238418579
			}
		},
		{
			"doubleSided":true,
			"name":"lambert16",
			"pbrMetallicRoughness":{
				"baseColorFactor":[
					0.22300000488758087,
					0.034341998398303986,
					0.034341998398303986,
					1
				],
				"metallicFactor":0,
				"roughnessFactor":0.6000000238418579
			}
		},
		{
			"doubleSided":true,
			"name":"lambert4",
			"pbrMetallicRoughness":{
				"baseColorFactor":[
					0.01899999938905239,
					0.01899999938905239,
					0.01899999938905239,
					1
				],
				"metallicFactor":0,
				"roughnessFactor":0.6000000238418579
			}
		},
		{
			"doubleSided":true,
			"name":"lambert6",
			"pbrMetallicRoughness":{
				"metallicFactor":0,
				"roughnessFactor":0.6000000238418579
			}
		},
		{
			"doubleSided":true,
			"name":"lambert9",
			"pbrMetallicRoughness":{
				"baseColorFactor":[
					1,
					0.25600001215934753,
					0.4563089907169342,
					1
				],
				"metallicFactor":0,
				"roughnessFactor":0.6000000238418579
			}
		},
		{
			"doubleSided":true,
			"name":"pasted__lambert6",
			"pbrMetallicRoughness":{
				"metallicFactor":0,
				"roughnessFactor":0.6000000238418579
			}
		},
		{
			"doubleSided":true,
			"emissiveFactor":[
				1,
				1,
				1
			],
			"emissiveTexture":{
				"index":48
			},
			"name":"lambert2",
			"normalTexture":{
				"index":49
			},
			"occlusionTexture":{
				"index":50
			},
			"pbrMetallicRoughness":{
				"baseColorTexture":{
					"index":51
				},
				"metallicRoughnessTexture":{
					"index":50
				}
			}
		},
		{
			"doubleSided":true,
			"name":"lambert1",
			"normalTexture":{
				"index":52
			},
			"occlusionTexture":{
				"index":53
			},
			"pbrMetallicRoughness":{
				"baseColorTexture":{
					"index":54
				},
				"metallicRoughnessTexture":{
					"index":53
				}
			}
		}
	],
	"meshes":[
		{
			"name":"WoodenTable",
			"primitives":[
				{
					"attributes":{
						"POSITION":0,
						"NORMAL":1,
						"TEXCOORD_0":2
					},
					"indices":3,
					"material":0
				}
			]
		},
		{
			"name":"Toothless",
			"primitives":[
				{
					"attributes":{
						"POSITION":4,
						"NORMAL":5,
						"TEXCOORD_0":6
					},
					"indices":7,
					"material":1
				},
				{
					"attributes":{
						"POSITION":8,
						"NORMAL":9,
						"TEXCOORD_0":10
					},
					"indices":11,
					"material":2
				},
				{
					"attributes":{
						"POSITION":12,
						"NORMAL":13,
						"TEXCOORD_0":14
					},
					"indices":15,
					"material":3
				},
				{
					"attributes":{
						"POSITION":16,
						"NORMAL":17,
						"TEXCOORD_0":18
					},
					"indices":19,
					"material":4
				},
				{
					"attributes":{
						"POSITION":20,
						"NORMAL":21,
						"TEXCOORD_0":22
					},
					"indices":23,
					"material":5
				},
				{
					"attributes":{
						"POSITION":24,
						"NORMAL":25,
						"TEXCOORD_0":26
					},
					"indices":27,
					"material":6
				},
				{
					"attributes":{
						"POSITION":28,
						"NORMAL":29,
						"TEXCOORD_0":30
					},
					"indices":31,
					"material":7
				}
			]
		},
		{
			"name":"Ironman",
			"primitives":[
				{
					"attributes":{
						"POSITION":32,
						"NORMAL":33,
						"TEXCOORD_0":34
					},
					"indices":35,
					"material":8
				},
				{
					"attributes":{
						"POSITION":36,
						"NORMAL":37,
						"TEXCOORD_0":38
					},
					"indices":39,
					"material":9
				},
				{
					"attributes":{
						"POSITION":40,
						"NORMAL":41,
						"TEXCOORD_0":42
					},
					"indices":43,
					"material":10
				},
				{
					"attributes":{
						"POSITION":44,
						"NORMAL":45,
						"TEXCOORD_0":46
					},
					"indices":47,
					"material":11
				},
				{
					"attributes":{
						"POSITION":48,
						"NORMAL":49,
						"TEXCOORD_0":50
					},
					"indices":51,
					"material":12
				},
				{
					"attributes":{
						"POSITION":52,
						"NORMAL":53,
						"TEXCOORD_0":54
					},
					"indices":55,
					"material":13
				}
			]
		},
		{
			"name":"Spheal",
			"primitives":[
				{
					"attributes":{
						"POSITION":56,
						"NORMAL":57,
						"TEXCOORD_0":58
					},
					"indices":59,
					"material":14
				}
			]
		},
		{
			"name":"Walle",
			"primitives":[
				{
					"attributes":{
						"POSITION":60,
						"NORMAL":61,
						"TEXCOORD_0":62
					},
					"indices":63,
					"material":15
				},
				{
					"attributes":{
						"POSITION":64,
						"NORMAL":65,
						"TEXCOORD_0":66
					},
					"indices":67,
					"material":16
				},
				{
					"attributes":{
						"POSITION":68,
						"NORMAL":69,
						"TEXCOORD_0":70
					},
					"indices":71,
					"material":17
				}
			]
		},
		{
			"name":"pSphere9_blinn2_0",
			"primitives":[
				{
					"attributes":{
						"POSITION":72,
						"NORMAL":73,
						"TEXCOORD_0":74
					},
					"indices":75,
					"material":18
				}
			]
		},
		{
			"name":"pSphere9_blinn6_0",
			"primitives":[
				{
					"attributes":{
						"POSITION":76,
						"NORMAL":77,
						"TEXCOORD_0":78
					},
					"indices":79,
					"material":19
				}
			]
		},
		{
			"name":"pSphere9_lambert11_0",
			"primitives":[
				{
					"attributes":{
						"POSITION":80,
						"NORMAL":81,
						"TEXCOORD_0":82
					},
					"indices":83,
					"material":20
				}
			]
		},
		{
			"name":"pSphere9_lambert15_0",
			"primitives":[
				{
					"attributes":{
						"POSITION":84,
						"NORMAL":85,
						"TEXCOORD_0":86
					},
					"indices":87,
					"material":21
				}
			]
		},
		{
			"name":"pSphere9_lambert16_0",
			"primitives":[
				{
					"attributes":{
						"POSITION":88,
						"NORMAL":89,
						"TEXCOORD_0":90
					},
					"indices":87,
					"material":22
				}
			]
		},
		{
			"name":"pSphere9_lambert4_0",
			"primitives":[
				{
					"attributes":{
						"POSITION":91,
						"NORMAL":92,
						"TEXCOORD_0":93
					},
					"indices":79,
					"material":23
				}
			]
		},
		{
			"name":"pSphere9_lambert6_0",
			"primitives":[
				{
					"attributes":{
						"POSITION":94,
						"NORMAL":95,
						"TEXCOORD_0":96
					},
					"indices":87,
					"material":24
				}
			]
		},
		{
			"name":"pSphere9_lambert9_0",
			"primitives":[
				{
					"attributes":{
						"POSITION":97,
						"NORMAL":98,
						"TEXCOORD_0":99
					},
					"indices":79,
					"material":25
				}
			]
		},
		{
			"name":"pSphere9_pasted__lambert6_0",
			"primitives":[
				{
					"attributes":{
						"POSITION":100,
						"NORMAL":101,
						"TEXCOORD_0":102
					},
					"indices":87,
					"material":26
				}
			]
		},
		{
			"name":"defaultMaterial",
			"primitives":[
				{
					"attributes":{
						"POSITION":103,
						"NORMAL":104,
						"TEXCOORD_0":105
					},
					"indices":106,
					"material":27
				}
			]
		},
		{
			"name":"defaultMaterial.001",
			"primitives":[
				{
					"attributes":{
						"POSITION":107,
						"NORMAL":108,
						"TEXCOORD_0":109
					},
					"indices":110,
					"material":28
				}
			]
		}
	],
	"textures":[
		{
			"sampler":0,
			"source":0
		},
		{
			"sampler":0,
			"source":1
		},
		{
			"sampler":0,
			"source":2
		},
		{
			"sampler":0,
			"source":3
		},
		{
			"sampler":0,
			"source":4
		},
		{
			"sampler":0,
			"source":5
		},
		{
			"sampler":0,
			"source":6
		},
		{
			"sampler":0,
			"source":7
		},
		{
			"sampler":0,
			"source":8
		},
		{
			"sampler":0,
			"source":9
		},
		{
			"sampler":0,
			"source":10
		},
		{
			"sampler":0,
			"source":11
		},
		{
			"sampler":0,
			"source":12
		},
		{
			"sampler":0,
			"source":13
		},
		{
			"sampler":0,
			"source":14
		},
		{
			"sampler":0,
			"source":15
		},
		{
			"sampler":0,
			"source":16
		},
		{
			"sampler":0,
			"source":17
		},
		{
			"sampler":0,
			"source":18
		},
		{
			"sampler":0,
			"source":19
		},
		{
			"sampler":0,
			"source":20
		},
		{
			"sampler":0,
			"source":21
		},
		{
			"sampler":0,
			"source":22
		},
		{
			"sampler":0,
			"source":23
		},
		{
			"sampler":0,
			"source":24
		},
		{
			"sampler":0,
			"source":25
		},
		{
			"sampler":0,
			"source":26
		},
		{
			"sampler":0,
			"source":27
		},
		{
			"sampler":0,
			"source":28
		},
		{
			"sampler":0,
			"source":29
		},
		{
			"sampler":0,
			"source":30
		},
		{
			"sampler":0,
			"source":31
		},
		{
			"sampler":0,
			"source":32
		},
		{
			"sampler":0,
			"source":33
		},
		{
			"sampler":0,
			"source":34
		},
		{
			"sampler":0,
			"source":35
		},
		{
			"sampler":0,
			"source":36
		},
		{
			"sampler":0,
			"source":36
		},
		{
			"sampler":0,
			"source":37
		},
		{
			"sampler":0,
			"source":38
		},
		{
			"sampler":0,
			"source":39
		},
		{
			"sampler":0,
			"source":40
		},
		{
			"sampler":0,
			"source":41
		},
		{
			"sampler":0,
			"source":42
		},
		{
			"sampler":0,
			"source":43
		},
		{
			"sampler":0,
			"source":44
		},
		{
			"sampler":0,
			"source":45
		},
		{
			"sampler":0,
			"source":46
		},
		{
			"sampler":0,
			"source":47
		},
		{
			"sampler":0,
			"source":48
		},
		{
			"sampler":0,
			"source":49
		},
		{
			"sampler":0,
			"source":50
		},
		{
			"sampler":0,
			"source":51
		},
		{
			"sampler":0,
			"source":52
		},
		{
			"sampler":0,
			"source":53
		}
	],
	"images":[
		{
			"mimeType":"image/png",
			"name":"Table_normal",
			"uri":"Table_normal.png"
		},
		{
			"mimeType":"image/png",
			"name":"Table_metallicRoughness",
			"uri":"Table_metallicRoughness.png"
		},
		{
			"mimeType":"image/jpeg",
			"name":"Table_baseColor",
			"uri":"Table_baseColor.jpg"
		},
		{
			"mimeType":"image/png",
			"name":"Claws_normal",
			"uri":"Claws_normal.png"
		},
		{
			"mimeType":"image/png",
			"name":"Claws_metallicRoughness",
			"uri":"Claws_metallicRoughness.png"
		},
		{
			"mimeType":"image/jpeg",
			"name":"Claws_baseColor",
			"uri":"Claws_baseColor.jpg"
		},
		{
			"mimeType":"image/png",
			"name":"Eyes_normal",
			"uri":"Eyes_normal.png"
		},
		{
			"mimeType":"image/png",
			"name":"Eyes_metallicRoughness",
			"uri":"Eyes_metallicRoughness.png"
		},
		{
			"mimeType":"image/jpeg",
			"name":"Eyes_baseColor",
			"uri":"Eyes_baseColor.jpg"
		},
		{
			"mimeType":"image/png",
			"name":"WingSpines_normal",
			"uri":"WingSpines_normal.png"
		},
		{
			"mimeType":"image/png",
			"name":"WingSpines_metallicRoughness",
			"uri":"WingSpines_metallicRoughness.png"
		},
		{
			"mimeType":"image/jpeg",
			"name":"WingSpines_baseColor",
			"uri":"WingSpines_baseColor.jpg"
		},
		{
			"mimeType":"image/png",
			"name":"Spikes1_normal",
			"uri":"Spikes1_normal.png"
		},
		{
			"mimeType":"image/png",
			"name":"Spikes1_metallicRoughness",
			"uri":"Spikes1_metallicRoughness.png"
		},
		{
			"mimeType":"image/jpeg",
			"name":"Spikes1_baseColor",
			"uri":"Spikes1_baseColor.jpg"
		},
		{
			"mimeType":"image/png",
			"name":"Membranes1_normal",
			"uri":"Membranes1_normal.png"
		},
		{
			"mimeType":"image/png",
			"name":"Membranes1_metallicRoughness",
			"uri":"Membranes1_metallicRoughness.png"
		},
		{
			"mimeType":"image/jpeg",
			"name":"Membranes1_baseColor",
			"uri":"Membranes1_baseColor.jpg"
		},
		{
			"mimeType":"image/png",
			"name":"Body_normal",
			"uri":"Body_normal.png"
		},
		{
			"mimeType":"image/png",
			"name":"Body_metallicRoughness",
			"uri":"Body_metallicRoughness.png"
		},
		{
			"mimeType":"image/jpeg",
			"name":"Body_baseColor",
			"uri":"Body_baseColor.jpg"
		},
		{
			"mimeType":"image/png",
			"name":"Head1_normal",
			"uri":"Head1_normal.png"
		},
		{
			"mimeType":"image/png",
			"name":"Head1_metallicRoughness",
			"uri":"Head1_metallicRoughness.png"
		},
		{
			"mimeType":"image/jpeg",
			"name":"Head1_baseColor",
			"uri":"Head1_baseColor.jpg"
		},
		{
			"mimeType":"image/png",
			"name":"Silver_Part_normal",
			"uri":"Silver_Part_normal.png"
		},
		{
			"mimeType":"image/png",
			"name":"Silver_Part_baseColor",
			"uri":"Silver_Part_baseColor.png"
		},
		{
			"mimeType":"image/png",
			"name":"Silver_Part_metallicRoughness",
			"uri":"Silver_Part_metallicRoughness.png"
		},
		{
			"mimeType":"image/png",
			"name":"Arc_Reactor_normal",
			"uri":"Arc_Reactor_normal.png"
		},
		{
			"mimeType":"image/png",
			"name":"Arc_Reactor_baseColor",
			"uri":"Arc_Reactor_baseColor.png"
		},
		{
			"mimeType":"image/png",
			"name":"Arc_Reactor_metallicRoughness",
			"uri":"Arc_Reactor_metallicRoughness.png"
		},
		{
			"mimeType":"image/png",
			"name":"Gold_Part_normal",
			"uri":"Gold_Part_normal.png"
		},
		{
			"mimeType":"image/png",
			"name":"Gold_Part_baseColor",
			"uri":"Gold_Part_baseColor.png"
		},
		{
			"mimeType":"image/png",
			"name":"Gold_Part_metallicRoughness",
			"uri":"Gold_Part_metallicRoughness.png"
		},
		{
			"mimeType":"image/png",
			"name":"Red_Part_normal",
			"uri":"Red_Part_normal.png"
		},
		{
			"mimeType":"image/png",
			"name":"Red_Part_baseColor",
			"uri":"Red_Part_baseColor.png"
		},
		{
			"mimeType":"image/png",
			"name":"Red_Part_metallicRoughness",
			"uri":"Red_Part_metallicRoughness.png"
		},
		{
			"mimeType":"image/png",
			"name":"Lights_baseColor",
			"uri":"Lights_baseColor.png"
		},
		{
			"mimeType":"image/png",
			"name":"puzo_i_nos_baseColor",
			"uri":"puzo_i_nos_baseColor.png"
		},
		{
			"mimeType":"image/png",
			"name":"Atlas_Metal_normal",
			"uri":"Atlas_Metal_normal.png"
		},
		{
			"mimeType":"image/png",
			"name":"Atlas_Metal_metallicRoughness",
			"uri":"Atlas_Metal_metallicRoughness.png"
		},
		{
			"mimeType":"image/png",
			"name":"Atlas_Metal_baseColor",
			"uri":"Atlas_Metal_baseColor.png"
		},
		{
			"mimeType":"image/png",
			"name":"Atlas_Painted_metal_normal",
			"uri":"Atlas_Painted_metal_normal.png"
		},
		{
			"mimeType":"image/png",
			"name":"Atlas_Painted_metal_metallicRoughness",
			"uri":"Atlas_Painted_metal_metallicRoughness.png"
		},
		{
			"mimeType":"image/png",
			"name":"Atlas_Painted_metal_baseColor",
			"uri":"Atlas_Painted_metal_baseColor.png"
		},
		{
			"mimeType":"image/png",
			"name":"Tread_normal",
			"uri":"Tread_normal.png"
		},
		{
			"mimeType":"image/png",
			"name":"Tread_metallicRoughness",
			"uri":"Tread_metallicRoughness.png"
		},
		{
			"mimeType":"image/png",
			"name":"Tread_baseColor",
			"uri":"Tread_baseColor.png"
		},
		{
			"mimeType":"image/jpeg",
			"name":"lambert2_emissive",
			"uri":"lambert2_emissive.jpg"
		},
		{
			"mimeType":"image/png",
			"name":"lambert2_normal",
			"uri":"lambert2_normal.png"
		},
		{
			"mimeType":"image/png",
			"name":"lambert2_metallicRoughness",
			"uri":"lambert2_metallicRoughness.png"
		},
		{
			"mimeType":"image/jpeg",
			"name":"lambert2_baseColor",
			"uri":"lambert2_baseColor.jpg"
		},
		{
			"mimeType":"image/png",
			"name":"lambert1_normal",
			"uri":"lambert1_normal.png"
		},
		{
			"mimeType":"image/png",
			"name":"lambert1_metallicRoughness",
			"uri":"lambert1_metallicRoughness.png"
		},
		{
			"mimeType":"image/jpeg",
			"name":"lambert1_baseColor",
			"uri":"lambert1_baseColor.jpg"
		}
	],
	"accessors":[
		{
			"bufferView":0,
			"componentType":5126,
			"count":5069,
			"max":[
				1.10035240650177,
				0.7799999713897705,
				0.5765389204025269
			],
			"min":[
				-1.10035240650177,
				0,
				-0.5765389204025269
			],
			"type":"VEC3"
		},
		{
			"bufferView":1,
			"componentType":5126,
			"count":5069,
			"type":"VEC3"
		},
		{
			"bufferView":2,
			"componentType":5126,
			"count":5069,
			"type":"VEC2"
		},
		{
			"bufferView":3,
			"componentType":5123,
			"count":13614,
			"type":"SCALAR"
		},
		{
			"bufferView":4,
			"componentType":5126,
			"count":3185,
			"max":[
				0.04672938585281372,
				0.00488990917801857,
				0.17798665165901184
			],
			"min":[
				-0.04685772955417633,
				0.0001449005794711411,
				0.07752782851457596
			],
			"type":"VEC3"
		},
		{
			"bufferView":5,
			"componentType":5126,
			"count":3185,
			"type":"VEC3"
		},
		{
			"bufferView":6,
			"componentType":5126,
			"count":3185,
			"type":"VEC2"
		},
		{
			"bufferView":7,
			"componentType":5123,
			"count":16332,
			"type":"SCALAR"
		},
		{
			"bufferView":8,
			"componentType":5126,
			"count":3234,
			"max":[
				0.01822962798178196,
				0.09824071079492569,
				0.2577632963657379
			],
			"min":[
				-0.018382348120212555,
				0.08386237174272537,
				0.24365797638893127
			],
			"type":"VEC3"
		},
		{
			"bufferView":9,
			"componentType":5126,
			"count":3234,
			"type":"VEC3"
		},
		{
			"bufferView":10,
			"componentType":5126,
			"count":3234,
			"type":"VEC2"
		},
		{
			"bufferView":11,
			"componentType":5123,
			"count":18432,
			"type":"SCALAR"
		},
		{
			"bufferView":12,
			"componentType":5126,
			"count":7780,
			"max":[
				0.574999988079071,
				0.11326850205659866,
				0.2178238034248352
			],
			"min":[
				-0.574999988079071,
				0.003178014187142253,
				-0.2633132040500641
			],
			"type":"VEC3"
		},
		{
			"bufferView":13,
			"componentType":5126,
			"count":7780,
			"type":"VEC3"
		},
		{
			"bufferView":14,
			"componentType":5126,
			"count":7780,
			"type":"VEC2"
		},
		{
			"bufferView":15,
			"componentType":5123,
			"count":36849,
			"type":"SCALAR"
		},
		{
			"bufferView":16,
			"componentType":5126,
			"count":3732,
			"max":[
				0.040846966207027435,
				0.11141768842935562,
				0.2573487162590027
			],
			"min":[
				-0.04090843349695206,
				0.006351564545184374,
				-0.1382489651441574
			],
			"type":"VEC3"
		},
		{
			"bufferView":17,
			"componentType":5126,
			"count":3732,
			"type":"VEC3"
		},
		{
			"bufferView":18,
			"componentType":5126,
			"count":3732,
			"type":"VEC2"
		},
		{
			"bufferView":19,
			"componentType":5123,
			"count":16629,
			"type":"SCALAR"
		},
		{
			"bufferView":20,
			"componentType":5126,
			"count":5050,
			"max":[
				0.5488794445991516,
				0.11056030541658401,
				0.21404433250427246
			],
			"min":[
				-0.5487874746322632,
				0.003951963968575001,
				-0.2612960934638977
			],
			"type":"VEC3"
		},
		{
			"bufferView":21,
			"componentType":5126,
			"count":5050,
			"type":"VEC3"
		},
		{
			"bufferView":22,
			"componentType":5126,
			"count":5050,
			"type":"VEC2"
		},
		{
			"bufferView":23,
			"componentType":5123,
			"count":21351,
			"type":"SCALAR"
		},
		{
			"bufferView":24,
			"componentType":5126,
			"count":8867,
			"max":[
				0.04478801414370537,
				0.11037803441286087,
				0.22297580540180206
			],
			"min":[
				-0.044638171792030334,
				0,
				-0.2565155625343323
			],
			"type":"VEC3"
		},
		{
			"bufferView":25,
			"componentType":5126,
			"count":8867,
			"type":"VEC3"
		},
		{
			"bufferView":26,
			"componentType":5126,
			"count":8867,
			"type":"VEC2"
		},
		{
			"bufferView":27,
			"componentType":5123,
			"count":46992,
			"type":"SCALAR"
		},
		{
			"bufferView":28,
			"componentType":5126,
			"count":6304,
			"max":[
				0.030245976522564888,
				0.12438859790563583,
				0.2633132040500641
			],
			"min":[
				-0.030097972601652145,
				0.0754421278834343,
				0.1959134340286255
			],
			"type":"VEC3"
		},
		{
			"bufferView":29,
			"componentType":5126,
			"count":6304,
			"type":"VEC3"
		},
		{
			"bufferView":30,
			"componentType":5126,
			"count":6304,
			"type":"VEC2"
		},
		{
			"bufferView":31,
			"componentType":5123,
			"count":31896,
			"type":"SCALAR"
		},
		{
			"bufferView":32,
			"componentType":5126,
			"count":186138,
			"max":[
				0.11022140830755234,
				0.36691707372665405,
				0.04333159327507019
			],
			"min":[
				-0.1104850322008133,
				0.0004314529069233686,
				-0.04469723999500275
			],
			"type":"VEC3"
		},
		{
			"bufferView":33,
			"componentType":5126,
			"count":186138,
			"type":"VEC3"
		},
		{
			"bufferView":34,
			"componentType":5126,
			"count":186138,
			"type":"VEC2"
		},
		{
			"bufferView":35,
			"componentType":5125,
			"count":879465,
			"type":"SCALAR"
		},
		{
			"bufferView":36,
			"componentType":5126,
			"count":101062,
			"max":[
				0.011980398558080196,
				0.29508066177368164,
				0.03163950517773628
			],
			"min":[
				-0.007808295544236898,
				0.27885547280311584,
				0.021260982379317284
			],
			"type":"VEC3"
		},
		{
			"bufferView":37,
			"componentType":5126,
			"count":101062,
			"type":"VEC3"
		},
		{
			"bufferView":38,
			"componentType":5126,
			"count":101062,
			"type":"VEC2"
		},
		{
			"bufferView":39,
			"componentType":5125,
			"count":372432,
			"type":"SCALAR"
		},
		{
			"bufferView":40,
			"componentType":5126,
			"count":33083,
			"max":[
				0.10910505056381226,
				0.37319687008857727,
				0.03939766436815262
			],
			"min":[
				-0.11060678213834763,
				0.08726431429386139,
				-0.04407838359475136
			],
			"type":"VEC3"
		},
		{
			"bufferView":41,
			"componentType":5126,
			"count":33083,
			"type":"VEC3"
		},
		{
			"bufferView":42,
			"componentType":5126,
			"count":33083,
			"type":"VEC2"
		},
		{
			"bufferView":43,
			"componentType":5123,
			"count":163692,
			"type":"SCALAR"
		},
		{
			"bufferView":44,
			"componentType":5126,
			"count":92547,
			"max":[
				0.11060678213834763,
				0.3799999952316284,
				0.04469723999500275
			],
			"min":[
				-0.11052270233631134,
				0,
				-0.043888092041015625
			],
			"type":"VEC3"
		},
		{
			"bufferView":45,
			"componentType":5126,
			"count":92547,
			"type":"VEC3"
		},
		{
			"bufferView":46,
			"componentType":5126,
			"count":92547,
			"type":"VEC2"
		},
		{
			"bufferView":47,
			"componentType":5125,
			"count":450018,
			"type":"SCALAR"
		},
		{
			"bufferView":48,
			"componentType":5126,
			"count":20070,
			"max":[
				0.0924137681722641,
				0.35677096247673035,
				0.03134998306632042
			],
			"min":[
				-0.09606242179870605,
				0.003729364136233926,
				-0.03753950446844101
			],
			"type":"VEC3"
		},
		{
			"bufferView":49,
			"componentType":5126,
			"count":20070,
			"type":"VEC3"
		},
		{
			"bufferView":50,
			"componentType":5126,
			"count":20070,
			"type":"VEC2"
		},
		{
			"bufferView":51,
			"componentType":5123,
			"count":52944,
			"type":"SCALAR"
		},
		{
			"bufferView":52,
			"componentType":5126,
			"count":258,
			"max":[
				0.010531214997172356,
				0.2944798767566681,
				0.032613154500722885
			],
			"min":[
				-0.004960715305060148,
				0.2796124219894409,
				0.025094518437981606
			],
			"type":"VEC3"
		},
		{
			"bufferView":53,
			"componentType":5126,
			"count":258,
			"type":"VEC3"
		},
		{
			"bufferView":54,
			"componentType":5126,
			"count":258,
			"type":"VEC2"
		},
		{
			"bufferView":55,
			"componentType":5123,
			"count":1008,
			"type":"SCALAR"
		},
		{
			"bufferView":56,
			"componentType":5126,
			"count":1965,
			"max":[
				0.09624803066253662,
				0.17000000178813934,
				0.10927964001893997
			],
			"min":[
				-0.09624803066253662,
				0,
				-0.10927964001893997
			],
			"type":"VEC3"
		},
		{
			"bufferView":57,
			"componentType":5126,
			"count":1965,
			"type":"VEC3"
		},
		{
			"bufferView":58,
			"componentType":5126,
			"count":1965,
			"type":"VEC2"
		},
		{
			"bufferView":59,
			"componentType":5123,
			"count":8676,
			"type":"SCALAR"
		},
		{
			"bufferView":60,
			"componentType":5126,
			"count":49598,
			"max":[
				0.12716162204742432,
				0.2800000011920929,
				0.10904894769191742
			],
			"min":[
				-0.12650837004184723,
				0.00400863541290164,
				-0.10053785145282745
			],
			"type":"VEC3"
		},
		{
			"bufferView":61,
			"componentType":5126,
			"count":49598,
			"type":"VEC3"
		},
		{
			"bufferView":62,
			"componentType":5126,
			"count":49598,
			"type":"VEC2"
		},
		{
			"bufferView":63,
			"componentType":5123,
			"count":107664,
			"type":"SCALAR"
		},
		{
			"bufferView":64,
			"componentType":5126,
			"count":12773,
			"max":[
				0.08603589236736298,
				0.2578310966491699,
				0.06907108426094055
			],
			"min":[
				-0.09282279759645462,
				0.06675628572702408,
				-0.10144416987895966
			],
			"type":"VEC3"
		},
		{
			"bufferView":65,
			"componentType":5126,
			"count":12773,
			"type":"VEC3"
		},
		{
			"bufferView":66,
			"componentType":5126,
			"count":12773,
			"type":"VEC2"
		},
		{
			"bufferView":67,
			"componentType":5123,
			"count":28683,
			"type":"SCALAR"
		},
		{
			"bufferView":68,
			"componentType":5126,
			"count":29622,
			"max":[
				0.13403329253196716,
				0.12313523888587952,
				0.08625129610300064
			],
			"min":[
				-0.13403329253196716,
				0,
				-0.10904894769191742
			],
			"type":"VEC3"
		},
		{
			"bufferView":69,
			"componentType":5126,
			"count":29622,
			"type":"VEC3"
		},
		{
			"bufferView":70,
			"componentType":5126,
			"count":29622,
			"type":"VEC2"
		},
		{
			"bufferView":71,
			"componentType":5123,
			"count":53856,
			"type":"SCALAR"
		},
		{
			"bufferView":72,
			"componentType":5126,
			"count":1317,
			"max":[
				1.276461124420166,
				2.059109687805176,
				1.0000001192092896
			],
			"min":[
				-1.3587646484375,
				0.05910980701446533,
				-1.0000004768371582
			],
			"type":"VEC3"
		},
		{
			"bufferView":73,
			"componentType":5126,
			"count":1317,
			"type":"VEC3"
		},
		{
			"bufferView":74,
			"componentType":5126,
			"count":1317,
			"type":"VEC2"
		},
		{
			"bufferView":75,
			"componentType":5123,
			"count":6840,
			"type":"SCALAR"
		},
		{
			"bufferView":76,
			"componentType":5126,
			"count":878,
			"max":[
				1.0094873905181885,
				0.38503775000572205,
				0.7980474829673767
			],
			"min":[
				-0.9928814172744751,
				-0.16696254909038544,
				-0.5642797946929932
			],
			"type":"VEC3"
		},
		{
			"bufferView":77,
			"componentType":5126,
			"count":878,
			"type":"VEC3"
		},
		{
			"bufferView":78,
			"componentType":5126,
			"count":878,
			"type":"VEC2"
		},
		{
			"bufferView":79,
			"componentType":5123,
			"count":4560,
			"type":"SCALAR"
		},
		{
			"bufferView":80,
			"componentType":5126,
			"count":584,
			"max":[
				0.3309568464756012,
				1.69697904586792,
				0.972644567489624
			],
			"min":[
				-0.3482653796672821,
				1.378666639328003,
				0.7512219548225403
			],
			"type":"VEC3"
		},
		{
			"bufferView":81,
			"componentType":5126,
			"count":584,
			"type":"VEC3"
		},
		{
			"bufferView":82,
			"componentType":5126,
			"count":584,
			"type":"VEC2"
		},
		{
			"bufferView":83,
			"componentType":5123,
			"count":2580,
			"type":"SCALAR"
		},
		{
			"bufferView":84,
			"componentType":5126,
			"count":439,
			"max":[
				0.09621185064315796,
				1.2341160774230957,
				1.0379040241241455
			],
			"min":[
				-0.1777896285057068,
				1.0866422653198242,
				0.9778035283088684
			],
			"type":"VEC3"
		},
		{
			"bufferView":85,
			"componentType":5126,
			"count":439,
			"type":"VEC3"
		},
		{
			"bufferView":86,
			"componentType":5126,
			"count":439,
			"type":"VEC2"
		},
		{
			"bufferView":87,
			"componentType":5123,
			"count":2280,
			"type":"SCALAR"
		},
		{
			"bufferView":88,
			"componentType":5126,
			"count":439,
			"max":[
				0.13639993965625763,
				1.3052586317062378,
				1.0288807153701782
			],
			"min":[
				-0.21472224593162537,
				1.0810880661010742,
				0.9304746985435486
			],
			"type":"VEC3"
		},
		{
			"bufferView":89,
			"componentType":5126,
			"count":439,
			"type":"VEC3"
		},
		{
			"bufferView":90,
			"componentType":5126,
			"count":439,
			"type":"VEC2"
		},
		{
			"bufferView":91,
			"componentType":5126,
			"count":878,
			"max":[
				0.38199320435523987,
				1.8293368816375732,
				0.9626419544219971
			],
			"min":[
				-0.3773454427719116,
				1.2949990034103394,
				0.6668035387992859
			],
			"type":"VEC3"
		},
		{
			"bufferView":92,
			"componentType":5126,
			"count":878,
			"type":"VEC3"
		},
		{
			"bufferView":93,
			"componentType":5126,
			"count":878,
			"type":"VEC2"
		},
		{
			"bufferView":94,
			"componentType":5126,
			"count":439,
			"max":[
				-0.2020532488822937,
				1.8115755319595337,
				0.9094893932342529
			],
			"min":[
				-0.3508169651031494,
				1.521553874015808,
				0.7138024568557739
			],
			"type":"VEC3"
		},
		{
			"bufferView":95,
			"componentType":5126,
			"count":439,
			"type":"VEC3"
		},
		{
			"bufferView":96,
			"componentType":5126,
			"count":439,
			"type":"VEC2"
		},
		{
			"bufferView":97,
			"componentType":5126,
			"count":878,
			"max":[
				0.7232357263565063,
				1.2190287113189697,
				0.90339195728302
			],
			"min":[
				-0.7020502090454102,
				0.9911457896232605,
				0.6651614904403687
			],
			"type":"VEC3"
		},
		{
			"bufferView":98,
			"componentType":5126,
			"count":878,
			"type":"VEC3"
		},
		{
			"bufferView":99,
			"componentType":5126,
			"count":878,
			"type":"VEC2"
		},
		{
			"bufferView":100,
			"componentType":5126,
			"count":439,
			"max":[
				0.3303668200969696,
				1.809686541557312,
				0.9252998232841492
			],
			"min":[
				0.18384918570518494,
				1.5190402269363403,
				0.7285709977149963
			],
			"type":"VEC3"
		},
		{
			"bufferView":101,
			"componentType":5126,
			"count":439,
			"type":"VEC3"
		},
		{
			"bufferView":102,
			"componentType":5126,
			"count":439,
			"type":"VEC2"
		},
		{
			"bufferView":103,
			"componentType":5126,
			"count":16510,
			"max":[
				8.621116638183594,
				7.4476470947265625,
				5.736705780029297
			],
			"min":[
				-8.621121406555176,
				-9.332749366760254,
				-6.122439861297607
			],
			"type":"VEC3"
		},
		{
			"bufferView":104,
			"componentType":5126,
			"count":16510,
			"type":"VEC3"
		},
		{
			"bufferView":105,
			"componentType":5126,
			"count":16510,
			"type":"VEC2"
		},
		{
			"bufferView":106,
			"componentType":5123,
			"count":94488,
			"type":"SCALAR"
		},
		{
			"bufferView":107,
			"componentType":5126,
			"count":27904,
			"max":[
				9.99776840209961,
				9.42801570892334,
				6.194237232208252
			],
			"min":[
				-9.997775077819824,
				-9.387192726135254,
				-6.193727016448975
			],
			"type":"VEC3"
		},
		{
			"bufferView":108,
			"componentType":5126,
			"count":27904,
			"type":"VEC3"
		},
		{
			"bufferView":109,
			"componentType":5126,
			"count":27904,
			"type":"VEC2"
		},
		{
			"bufferView":110,
			"componentType":5123,
			"count":157680,
			"type":"SCALAR"
		},
		{
			"bufferView":111,
			"componentType":5126,
			"count":1,
			"max":[
				0.041666666666666664
			],
			"min":[
				0.041666666666666664
			],
			"type":"SCALAR"
		},
		{
			"bufferView":112,
			"componentType":5126,
			"count":1,
			"type":"VEC3"
		},
		{
			"bufferView":113,
			"componentType":5126,
			"count":1,
			"type":"VEC3"
		},
		{
			"bufferView":114,
			"componentType":5126,
			"count":1,
			"type":"VEC3"
		},
		{
			"bufferView":115,
			"componentType":5126,
			"count":1,
			"type":"VEC4"
		},
		{
			"bufferView":116,
			"componentType":5126,
			"count":1,
			"type":"VEC3"
		},
		{
			"bufferView":117,
			"componentType":5126,
			"count":1,
			"type":"VEC3"
		},
		{
			"bufferView":118,
			"componentType":5126,
			"count":1,
			"type":"VEC4"
		},
		{
			"bufferView":119,
			"componentType":5126,
			"count":1,
			"type":"VEC3"
		},
		{
			"bufferView":120,
			"componentType":5126,
			"count":1,
			"type":"VEC3"
		},
		{
			"bufferView":121,
			"componentType":5126,
			"count":1,
			"type":"VEC4"
		},
		{
			"bufferView":122,
			"componentType":5126,
			"count":1,
			"type":"VEC3"
		}
	],
	"bufferViews":[
		{
			"buffer":0,
			"byteLength":60828,
			"byteOffset":0,
			"target":34962
		},
		{
			"buffer":0,
			"byteLength":60828,
			"byteOffset":60828,
			"target":34962
		},
		{
			"buffer":0,
			"byteLength":40552,
			"byteOffset":121656,
			"target":34962
		},
		{
			"buffer":0,
			"byteLength":27228,
			"byteOffset":162208,
			"target":34963
		},
		{
			"buffer":0,
			"byteLength":38220,
			"byteOffset":189436,
			"target":34962
		},
		{
			"buffer":0,
			"byteLength":38220,
			"byteOffset":227656,
			"target":34962
		},
		{
			"buffer":0,
			"byteLength":25480,
			"byteOffset":265876,
			"target":34962
		},
		{
			"buffer":0,
			"byteLength":32664,
			"byteOffset":291356,
			"target":34963
		},
		{
			"buffer":0,
			"byteLength":38808,
			"byteOffset":324020,
			"target":34962
		},
		{
			"buffer":0,
			"byteLength":38808,
			"byteOffset":362828,
			"target":34962
		},
		{
			"buffer":0,
			"byteLength":25872,
			"byteOffset":401636,
			"target":34962
		},
		{
			"buffer":0,
			"byteLength":36864,
			"byteOffset":427508,
			"target":34963
		},
		{
			"buffer":0,
			"byteLength":93360,
			"byteOffset":464372,
			"target":34962
		},
		{
			"buffer":0,
			"byteLength":93360,
			"byteOffset":557732,
			"target":34962
		},
		{
			"buffer":0,
			"byteLength":62240,
			"byteOffset":651092,
			"target":34962
		},
		{
			"buffer":0,
			"byteLength":73698,
			"byteOffset":713332,
			"target":34963
		},
		{
			"buffer":0,
			"byteLength":44784,
			"byteOffset":787032,
			"target":34962
		},
		{
			"buffer":0,
			"byteLength":44784,
			"byteOffset":831816,
			"target":34962
		},
		{
			"buffer":0,
			"byteLength":29856,
			"byteOffset":876600,
			"target":34962
		},
		{
			"buffer":0,
			"byteLength":33258,
			"byteOffset":906456,
			"target":34963
		},
		{
			"buffer":0,
			"byteLength":60600,
			"byteOffset":939716,
			"target":34962
		},
		{
			"buffer":0,
			"byteLength":60600,
			"byteOffset":1000316,
			"target":34962
		},
		{
			"buffer":0,
			"byteLength":40400,
			"byteOffset":1060916,
			"target":34962
		},
		{
			"buffer":0,
			"byteLength":42702,
			"byteOffset":1101316,
			"target":34963
		},
		{
			"buffer":0,
			"byteLength":106404,
			"byteOffset":1144020,
			"target":34962
		},
		{
			"buffer":0,
			"byteLength":106404,
			"byteOffset":1250424,
			"target":34962
		},
		{
			"buffer":0,
			"byteLength":70936,
			"byteOffset":1356828,
			"target":34962
		},
		{
			"buffer":0,
			"byteLength":93984,
			"byteOffset":1427764,
			"target":34963
		},
		{
			"buffer":0,
			"byteLength":75648,
			"byteOffset":1521748,
			"target":34962
		},
		{
			"buffer":0,
			"byteLength":75648,
			"byteOffset":1597396,
			"target":34962
		},
		{
			"buffer":0,
			"byteLength":50432,
			"byteOffset":1673044,
			"target":34962
		},
		{
			"buffer":0,
			"byteLength":63792,
			"byteOffset":1723476,
			"target":34963
		},
		{
			"buffer":0,
			"byteLength":2233656,
			"byteOffset":1787268,
			"target":34962
		},
		{
			"buffer":0,
			"byteLength":2233656,
			"byteOffset":4020924,
			"target":34962
		},
		{
			"buffer":0,
			"byteLength":1489104,
			"byteOffset":6254580,
			"target":34962
		},
		{
			"buffer":0,
			"byteLength":3517860,
			"byteOffset":7743684,
			"target":34963
		},
		{
			"buffer":0,
			"byteLength":1212744,
			"byteOffset":11261544,
			"target":34962
		},
		{
			"buffer":0,
			"byteLength":1212744,
			"byteOffset":12474288,
			"target":34962
		},
		{
			"buffer":0,
			"byteLength":808496,
			"byteOffset":13687032,
			"target":34962
		},
		{
			"buffer":0,
			"byteLength":1489728,
			"byteOffset":14495528,
			"target":34963
		},
		{
			"buffer":0,
			"byteLength":396996,
			"byteOffset":15985256,
			"target":34962
		},
		{
			"buffer":0,
			"byteLength":396996,
			"byteOffset":16382252,
			"target":34962
		},
		{
			"buffer":0,
			"byteLength":264664,
			"byteOffset":16779248,
			"target":34962
		},
		{
			"buffer":0,
			"byteLength":327384,
			"byteOffset":17043912,
			"target":34963
		},
		{
			"buffer":0,
			"byteLength":1110564,
			"byteOffset":17371296,
			"target":34962
		},
		{
			"buffer":0,
			"byteLength":1110564,
			"byteOffset":18481860,
			"target":34962
		},
		{
			"buffer":0,
			"byteLength":740376,
			"byteOffset":19592424,
			"target":34962
		},
		{
			"buffer":0,
			"byteLength":1800072,
			"byteOffset":20332800,
			"target":34963
		},
		{
			"buffer":0,
			"byteLength":240840,
			"byteOffset":22132872,
			"target":34962
		},
		{
			"buffer":0,
			"byteLength":240840,
			"byteOffset":22373712,
			"target":34962
		},
		{
			"buffer":0,
			"byteLength":160560,
			"byteOffset":22614552,
			"target":34962
		},
		{
			"buffer":0,
			"byteLength":105888,
			"byteOffset":22775112,
			"target":34963
		},
		{
			"buffer":0,
			"byteLength":3096,
			"byteOffset":22881000,
			"target":34962
		},
		{
			"buffer":0,
			"byteLength":3096,
			"byteOffset":22884096,
			"target":34962
		},
		{
			"buffer":0,
			"byteLength":2064,
			"byteOffset":22887192,
			"target":34962
		},
		{
			"buffer":0,
			"byteLength":2016,
			"byteOffset":22889256,
			"target":34963
		},
		{
			"buffer":0,
			"byteLength":23580,
			"byteOffset":22891272,
			"target":34962
		},
		{
			"buffer":0,
			"byteLength":23580,
			"byteOffset":22914852,
			"target":34962
		},
		{
			"buffer":0,
			"byteLength":15720,
			"byteOffset":22938432,
			"target":34962
		},
		{
			"buffer":0,
			"byteLength":17352,
			"byteOffset":22954152,
			"target":34963
		},
		{
			"buffer":0,
			"byteLength":595176,
			"byteOffset":22971504,
			"target":34962
		},
		{
			"buffer":0,
			"byteLength":595176,
			"byteOffset":23566680,
			"target":34962
		},
		{
			"buffer":0,
			"byteLength":396784,
			"byteOffset":24161856,
			"target":34962
		},
		{
			"buffer":0,
			"byteLength":215328,
			"byteOffset":24558640,
			"target":34963
		},
		{
			"buffer":0,
			"byteLength":153276,
			"byteOffset":24773968,
			"target":34962
		},
		{
			"buffer":0,
			"byteLength":153276,
			"byteOffset":24927244,
			"target":34962
		},
		{
			"buffer":0,
			"byteLength":102184,
			"byteOffset":25080520,
			"target":34962
		},
		{
			"buffer":0,
			"byteLength":57366,
			"byteOffset":25182704,
			"target":34963
		},
		{
			"buffer":0,
			"byteLength":355464,
			"byteOffset":25240072,
			"target":34962
		},
		{
			"buffer":0,
			"byteLength":355464,
			"byteOffset":25595536,
			"target":34962
		},
		{
			"buffer":0,
			"byteLength":236976,
			"byteOffset":25951000,
			"target":34962
		},
		{
			"buffer":0,
			"byteLength":107712,
			"byteOffset":26187976,
			"target":34963
		},
		{
			"buffer":0,
			"byteLength":15804,
			"byteOffset":26295688,
			"target":34962
		},
		{
			"buffer":0,
			"byteLength":15804,
			"byteOffset":26311492,
			"target":34962
		},
		{
			"buffer":0,
			"byteLength":10536,
			"byteOffset":26327296,
			"target":34962
		},
		{
			"buffer":0,
			"byteLength":13680,
			"byteOffset":26337832,
			"target":34963
		},
		{
			"buffer":0,
			"byteLength":10536,
			"byteOffset":26351512,
			"target":34962
		},
		{
			"buffer":0,
			"byteLength":10536,
			"byteOffset":26362048,
			"target":34962
		},
		{
			"buffer":0,
			"byteLength":7024,
			"byteOffset":26372584,
			"target":34962
		},
		{
			"buffer":0,
			"byteLength":9120,
			"byteOffset":26379608,
			"target":34963
		},
		{
			"buffer":0,
			"byteLength":7008,
			"byteOffset":26388728,
			"target":34962
		},
		{
			"buffer":0,
			"byteLength":7008,
			"byteOffset":26395736,
			"target":34962
		},
		{
			"buffer":0,
			"byteLength":4672,
			"byteOffset":26402744,
			"target":34962
		},
		{
			"buffer":0,
			"byteLength":5160,
			"byteOffset":26407416,
			"target":34963
		},
		{
			"buffer":0,
			"byteLength":5268,
			"byteOffset":26412576,
			"target":34962
		},
		{
			"buffer":0,
			"byteLength":5268,
			"byteOffset":26417844,
			"target":34962
		},
		{
			"buffer":0,
			"byteLength":3512,
			"byteOffset":26423112,
			"target":34962
		},
		{
			"buffer":0,
			"byteLength":4560,
			"byteOffset":26426624,
			"target":34963
		},
		{
			"buffer":0,
			"byteLength":5268,
			"byteOffset":26431184,
			"target":34962
		},
		{
			"buffer":0,
			"byteLength":5268,
			"byteOffset":26436452,
			"target":34962
		},
		{
			"buffer":0,
			"byteLength":3512,
			"byteOffset":26441720,
			"target":34962
		},
		{
			"buffer":0,
			"byteLength":10536,
			"byteOffset":26445232,
			"target":34962
		},
		{
			"buffer":0,
			"byteLength":10536,
			"byteOffset":26455768,
			"target":34962
		},
		{
			"buffer":0,
			"byteLength":7024,
			"byteOffset":26466304,
			"target":34962
		},
		{
			"buffer":0,
			"byteLength":5268,
			"byteOffset":26473328,
			"target":34962
		},
		{
			"buffer":0,
			"byteLength":5268,
			"byteOffset":26478596,
			"target":34962
		},
		{
			"buffer":0,
			"byteLength":3512,
			"byteOffset":26483864,
			"target":34962
		},
		{
			"buffer":0,
			"byteLength":10536,
			"byteOffset":26487376,
			"target":34962
		},
		{
			"buffer":0,
			"byteLength":10536,
			"byteOffset":26497912,
			"target":34962
		},
		{
			"buffer":0,
			"byteLength":7024,
			"byteOffset":26508448,
			"target":34962
		},
		{
			"buffer":0,
			"byteLength":5268,
			"byteOffset":26515472,
			"target":34962
		},
		{
			"buffer":0,
			"byteLength":5268,
			"byteOffset":26520740,
			"target":34962
		},
		{
			"buffer":0,
			"byteLength":3512,
			"byteOffset":26526008,
			"target":34962
		},
		{
			"buffer":0,
			"byteLength":198120,
			"byteOffset":26529520,
			"target":34962
		},
		{
			"buffer":0,
			"byteLength":198120,
			"byteOffset":26727640,
			"target":34962
		},
		{
			"buffer":0,
			"byteLength":132080,
			"byteOffset":26925760,
			"target":34962
		},
		{
			"buffer":0,
			"byteLength":188976,
			"byteOffset":27057840,
			"target":34963
		},
		{
			"buffer":0,
			"byteLength":334848,
			"byteOffset":27246816,
			"target":34962
		},
		{
			"buffer":0,
			"byteLength":334848,
			"byteOffset":27581664,
			"target":34962
		},
		{
			"buffer":0,
			"byteLength":223232,
			"byteOffset":27916512,
			"target":34962
		},
		{
			"buffer":0,
			"byteLength":315360,
			"byteOffset":28139744,
			"target":34963
		},
		{
			"buffer":0,
			"byteLength":4,
			"byteOffset":28455104
		},
		{
			"buffer":0,
			"byteLength":12,
			"byteOffset":28455108
		},
		{
			"buffer":0,
			"byteLength":12,
			"byteOffset":28455120
		},
		{
			"buffer":0,
			"byteLength":12,
			"byteOffset":28455132
		},
		{
			"buffer":0,
			"byteLength":16,
			"byteOffset":28455144
		},
		{
			"buffer":0,
			"byteLength":12,
			"byteOffset":28455160
		},
		{
			"buffer":0,
			"byteLength":12,
			"byteOffset":28455172
		},
		{
			"buffer":0,
			"byteLength":16,
			"byteOffset":28455184
		},
		{
			"buffer":0,
			"byteLength":12,
			"byteOffset":28455200
		},
		{
			"buffer":0,
			"byteLength":12,
			"byteOffset":28455212
		},
		{
			"buffer":0,
			"byteLength":16,
			"byteOffset":28455224
		},
		{
			"buffer":0,
			"byteLength":12,
			"byteOffset":28455240
		}
	],
	"samplers":[
		{
			"magFilter":9729,
			"minFilter":9987
		}
	],
	"buffers":[
		{
			"byteLength":28455252,
			"uri":"tabletop4.bin"
		}
	]
}
