{
  "accessors": [
    {
      "bufferView": 0,
      "byteOffset": 0,
      "componentType": 5123,
      "count": 11808,
      "max": [
        11807
      ],
      "min": [
        0
      ],
      "type": "SCALAR"
    },
    {
      "bufferView": 1,
      "byteOffset": 0,
      "componentType": 5126,
      "count": 11808,
      "max": [
        1.336914,
        0.950195,
        0.825684
      ],
      "min": [
        -1.336914,
        -0.974609,
        -0.800781
      ],
      "type": "VEC3"
    },
    {
      "bufferView": 2,
      "byteOffset": 0,
      "componentType": 5126,
      "count": 11808,
      "max": [
        0.996339,
        0.999958,
        0.999929
      ],
      "min": [
        -0.996339,
        -0.98594,
        -0.999994
      ],
      "type": "VEC3"
    },
    {
      "bufferView": 3,
      "byteOffset": 0,
      "componentType": 5126,
      "count": 11808,
      "max": [
        0.99857,
        0.999996,
        0.999487,
        1.0
      ],
      "min": [
        -0.999233,
        -0.999453,
        -0.999812,
        1.0
      ],
      "type": "VEC4"
    },
    {
      "bufferView": 4,
      "byteOffset": 0,
      "componentType": 5126,
      "count": 11808,
      "max": [
        0.999884,
        0.884359
      ],
      "min": [
        0.000116,
        0.000116
      ],
      "type": "VEC2"
    },
    {
      "bufferView": 5,
      "componentType": 5126,
      "count": 4,
      "type": "VEC3",
      "min": [
        -4,
        -2,
        -2
      ],
      "max": [
        4,
        3,
        -2
      ]
    },
    {
      "bufferView": 6,
      "componentType": 5126,
      "count": 4,
      "type": "VEC3"
    },
    {
      "bufferView": 7,
      "componentType": 5123,
      "count": 6,
      "type": "SCALAR",
      "min": [
        0
      ],
      "max": [
        3
      ]
    }
  ],
  "asset": {
    "generator": "VKTS glTF 2.0 exporter",
    "version": "2.0"
  },
  "bufferViews": [
    {
      "buffer": 0,
      "byteLength": 23616,
      "byteOffset": 0,
      "target": 34963
    },
    {
      "buffer": 0,
      "byteLength": 141696,
      "byteOffset": 23616,
      "target": 34962
    },
    {
      "buffer": 0,
      "byteLength": 141696,
      "byteOffset": 165312,
      "target": 34962
    },
    {
      "buffer": 0,
      "byteLength": 188928,
      "byteOffset": 307008,
      "target": 34962
    },
    {
      "buffer": 0,
      "byteLength": 94464,
      "byteOffset": 495936,
      "target": 34962
    },
    {
      "buffer": 1,
      "byteOffset": 0,
      "byteLength": 48,
      "target": 34962
    },
    {
      "buffer": 1,
      "byteOffset": 48,
      "byteLength": 48,
      "target": 34962
    },
    {
      "buffer": 1,
      "byteOffset": 96,
      "byteLength": 12,
      "target": 34963
    }
  ],
  "buffers": [
    {
      "byteLength": 590400,
      "uri": "Suzanne.bin"
    },
    {
      "byteLength": 108,
      "uri": "data:application/octet-stream;base64,"
    }
  ],
  "materials": [
    {
      "name": "SuzanneDiffuse",
      "pbrMetallicRoughness": {
        "baseColorFactor": [
          0.12,
          0.38,
          0.92,
          1.0
        ],
        "metallicFactor": 1.0,
        "roughnessFactor": 0.2
      }
    },
    {
      "name": "AzureBlueBackdrop",
      "doubleSided": true,
      "pbrMetallicRoughness": {
        "baseColorFactor": [
          1.0,
          1.0,
          0.0,
          1.0
        ],
        "metallicFactor": 0.0,
        "roughnessFactor": 1.0
      }
    }
  ],
  "meshes": [
    {
      "name": "Suzanne",
      "primitives": [
        {
          "attributes": {
            "NORMAL": 2,
            "POSITION": 1,
            "TANGENT": 3,
            "TEXCOORD_0": 4
          },
          "indices": 0,
          "material": 0,
          "mode": 4
        }
      ]
    },
    {
      "name": "BlueBackdropQuad",
      "primitives": [
        {
          "attributes": {
            "POSITION": 5,
            "NORMAL": 6
          },
          "indices": 7,
          "material": 1,
          "mode": 4
        }
      ]
    }
  ],
  "nodes": [
    {
      "mesh": 0,
      "name": "Suzanne"
    },
    {
      "name": "BlueBackdropQuad",
      "mesh": 1
    }
  ],
  "scene": 0,
  "scenes": [
    {
      "nodes": [
        0,
        1
      ]
    }
  ]
}
