{
  "accessors": [
    {
      "bufferView": 2,
      "componentType": 5126,
      "count": 65532,
      "max": [
        0.1940302699804306,
        0.16787022352218628,
        0.24961435794830322
      ],
      "min": [
        -0.19400432705879211,
        -0.13007742166519165,
        0.0
      ],
      "type": "VEC3"
    },
    {
      "bufferView": 2,
      "byteOffset": 786384,
      "componentType": 5126,
      "count": 65532,
      "max": [
        0.9999833106994629,
        0.9999706745147705,
        0.9999997615814209
      ],
      "min": [
        -1.0,
        -0.9995823502540588,
        -1.0
      ],
      "type": "VEC3"
    },
    {
      "bufferView": 1,
      "componentType": 5126,
      "count": 65532,
      "max": [
        0.9997515678405762,
        0.9645994901657104
      ],
      "min": [
        0.000244140625,
        0.00024469627533107996
      ],
      "type": "VEC2"
    },
    {
      "bufferView": 1,
      "byteOffset": 524256,
      "componentType": 5126,
      "count": 65532,
      "max": [
        0.9997515678405762,
        0.9645994901657104
      ],
      "min": [
        0.000244140625,
        0.00024469627533107996
      ],
      "type": "VEC2"
    },
    {
      "bufferView": 0,
      "componentType": 5125,
      "count": 317199,
      "type": "SCALAR"
    },
    {
      "bufferView": 2,
      "byteOffset": 1572768,
      "componentType": 5126,
      "count": 65532,
      "max": [
        0.19382263720035553,
        0.16816413402557373,
        0.2497653365135193
      ],
      "min": [
        -0.19400432705879211,
        -0.16995769739151,
        0.0
      ],
      "type": "VEC3"
    },
    {
      "bufferView": 2,
      "byteOffset": 2359152,
      "componentType": 5126,
      "count": 65532,
      "max": [
        0.9999937415122986,
        0.9999813437461853,
        0.9999997615814209
      ],
      "min": [
        -0.9999955892562866,
        -0.9999624490737915,
        -1.0
      ],
      "type": "VEC3"
    },
    {
      "bufferView": 1,
      "byteOffset": 1048512,
      "componentType": 5126,
      "count": 65532,
      "max": [
        0.9997420310974121,
        0.9948729276657104
      ],
      "min": [
        0.000244140625,
        0.0002519680419936776
      ],
      "type": "VEC2"
    },
    {
      "bufferView": 1,
      "byteOffset": 1572768,
      "componentType": 5126,
      "count": 65532,
      "max": [
        0.9997420310974121,
        0.9948729276657104
      ],
      "min": [
        0.000244140625,
        0.0002519680419936776
      ],
      "type": "VEC2"
    },
    {
      "bufferView": 0,
      "byteOffset": 1268796,
      "componentType": 5125,
      "count": 295560,
      "type": "SCALAR"
    },
    {
      "bufferView": 2,
      "byteOffset": 3145536,
      "componentType": 5126,
      "count": 55174,
      "max": [
        0.1940302699804306,
        0.0007352232933044434,
        0.238473042845726
      ],
      "min": [
        -0.193710595369339,
        -0.1694624423980713,
        0.0
      ],
      "type": "VEC3"
    },
    {
      "bufferView": 2,
      "byteOffset": 3807624,
      "componentType": 5126,
      "count": 55174,
      "max": [
        0.9999691843986511,
        0.9392794370651245,
        0.9999995827674866
      ],
      "min": [
        -0.9999355673789978,
        -0.9999217391014099,
        -0.9952525496482849
      ],
      "type": "VEC3"
    },
    {
      "bufferView": 1,
      "byteOffset": 2097024,
      "componentType": 5126,
      "count": 55174,
      "max": [
        0.999699056148529,
        0.9938963651657104
      ],
      "min": [
        0.0003514477866701782,
        0.0002501202980056405
      ],
      "type": "VEC2"
    },
    {
      "bufferView": 1,
      "byteOffset": 2538416,
      "componentType": 5126,
      "count": 55174,
      "max": [
        0.999699056148529,
        0.9938963651657104
      ],
      "min": [
        0.0003514477866701782,
        0.0002501202980056405
      ],
      "type": "VEC2"
    },
    {
      "bufferView": 0,
      "byteOffset": 2451036,
      "componentType": 5125,
      "count": 251289,
      "type": "SCALAR"
    }
  ],
  "asset": {
    "extras": {
      "author": "Fallen_ice (https://sketchfab.com/Fallen_ice)",
      "license": "CC-BY-4.0 (http://creativecommons.org/licenses/by/4.0/)",
      "source": "https://sketchfab.com/3d-models/spheal-doll-3d-scan-f084074fa24a4ca49a99f201fb978e9c",
      "title": "Spheal Doll 3D Scan"
    },
    "generator": "Sketchfab-15.28.0",
    "version": "2.0"
  },
  "bufferViews": [
    {
      "buffer": 0,
      "byteLength": 3456192,
      "name": "floatBufferViews",
      "target": 34963
    },
    {
      "buffer": 0,
      "byteLength": 2979808,
      "byteOffset": 3456192,
      "byteStride": 8,
      "name": "floatBufferViews",
      "target": 34962
    },
    {
      "buffer": 0,
      "byteLength": 4469712,
      "byteOffset": 6436000,
      "byteStride": 12,
      "name": "floatBufferViews",
      "target": 34962
    }
  ],
  "buffers": [
    {
      "byteLength": 10905712,
      "uri": "scene.bin"
    }
  ],
  "extensionsUsed": [
    "KHR_materials_unlit"
  ],
  "images": [
    {
      "uri": "textures/tex_u1_v1_baseColor.jpeg"
    }
  ],
  "materials": [
    {
      "doubleSided": true,
      "extensions": {
        "KHR_materials_unlit": {}
      },
      "name": "tex_u1_v1",
      "pbrMetallicRoughness": {
        "baseColorTexture": {
          "index": 0
        },
        "metallicFactor": 0.0
      }
    }
  ],
  "meshes": [
    {
      "name": "model_tex_u1_v1_0",
      "primitives": [
        {
          "attributes": {
            "NORMAL": 1,
            "POSITION": 0,
            "TEXCOORD_0": 2,
            "TEXCOORD_1": 3
          },
          "indices": 4,
          "material": 0,
          "mode": 4
        }
      ]
    },
    {
      "name": "model_tex_u1_v1_0",
      "primitives": [
        {
          "attributes": {
            "NORMAL": 6,
            "POSITION": 5,
            "TEXCOORD_0": 7,
            "TEXCOORD_1": 8
          },
          "indices": 9,
          "material": 0,
          "mode": 4
        }
      ]
    },
    {
      "name": "model_tex_u1_v1_0",
      "primitives": [
        {
          "attributes": {
            "NORMAL": 11,
            "POSITION": 10,
            "TEXCOORD_0": 12,
            "TEXCOORD_1": 13
          },
          "indices": 14,
          "material": 0,
          "mode": 4
        }
      ]
    }
  ],
  "nodes": [
    {
      "children": [
        1
      ],
      "matrix": [
        3.3333332538604736,
        0.0,
        0.0,
        0.0,
        0.0,
        7.40148665436918e-16,
        -3.3333332538604736,
        0.0,
        0.0,
        3.3333332538604736,
        7.40148665436918e-16,
        0.0,
        0.0,
        0.0,
        0.0,
        1.0
      ],
      "name": "Sketchfab_model"
    },
    {
      "children": [
        2
      ],
      "matrix": [
        1.0,
        0.0,
        0.0,
        0.0,
        0.0,
        0.0,
        1.0,
        0.0,
        0.0,
        -1.0,
        0.0,
        0.0,
        0.0,
        0.0,
        0.0,
        1.0
      ],
      "name": "model.fbx"
    },
    {
      "children": [
        3
      ],
      "name": "RootNode"
    },
    {
      "children": [
        4,
        5,
        6
      ],
      "matrix": [
        1.0,
        0.0,
        0.0,
        0.0,
        0.0,
        2.220446049250313e-16,
        -1.0,
        0.0,
        0.0,
        1.0,
        2.220446049250313e-16,
        0.0,
        0.0,
        0.0,
        0.0,
        1.0
      ],
      "name": "model"
    },
    {
      "mesh": 0,
      "name": "model_tex_u1_v1_0"
    },
    {
      "mesh": 1,
      "name": "model_tex_u1_v1_0"
    },
    {
      "mesh": 2,
      "name": "model_tex_u1_v1_0"
    }
  ],
  "samplers": [
    {
      "magFilter": 9729,
      "minFilter": 9987,
      "wrapS": 10497,
      "wrapT": 10497
    }
  ],
  "scene": 0,
  "scenes": [
    {
      "name": "Sketchfab_Scene",
      "nodes": [
        0
      ]
    }
  ],
  "textures": [
    {
      "sampler": 0,
      "source": 0
    }
  ]
}
