{
  "accessors": [
    {
      "bufferView": 2,
      "componentType": 5126,
      "count": 1299,
      "max": [
        -1.0137759447097778,
        0.7654280066490173,
        2.786186933517456
      ],
      "min": [
        -1.231544017791748,
        -0.7654280066490173,
        1.593453049659729
      ],
      "type": "VEC3"
    },
    {
      "bufferView": 2,
      "byteOffset": 15588,
      "componentType": 5126,
      "count": 1299,
      "max": [
        0.9999819993972778,
        1.0,
        0.9984834790229797
      ],
      "min": [
        -0.9999819993972778,
        -1.0,
        -0.9984847903251648
      ],
      "type": "VEC3"
    },
    {
      "bufferView": 3,
      "componentType": 5126,
      "count": 1299,
      "max": [
        1.0,
        1.0,
        0.9985185861587524,
        1.0
      ],
      "min": [
        -0.9999769330024719,
        -1.0,
        -0.9984827637672424,
        1.0
      ],
      "type": "VEC4"
    },
    {
      "bufferView": 1,
      "componentType": 5126,
      "count": 1299,
      "max": [
        0.9645389914512634,
        0.9792590141296387
      ],
      "min": [
        0.08347100019454956,
        0.0046430001966655254
      ],
      "type": "VEC2"
    },
    {
      "bufferView": 0,
      "componentType": 5125,
      "count": 3672,
      "type": "SCALAR"
    },
    {
      "bufferView": 2,
      "byteOffset": 31176,
      "componentType": 5126,
      "count": 180,
      "max": [
        1.0,
        0.9886149764060974,
        3.323190927505493
      ],
      "min": [
        -0.9491530060768127,
        -0.9886149764060974,
        2.6434710025787354
      ],
      "type": "VEC3"
    },
    {
      "bufferView": 2,
      "byteOffset": 33336,
      "componentType": 5126,
      "count": 180,
      "max": [
        1.0,
        1.0,
        1.0
      ],
      "min": [
        -4.999999873689376e-06,
        -1.0,
        -1.0
      ],
      "type": "VEC3"
    },
    {
      "bufferView": 3,
      "byteOffset": 20784,
      "componentType": 5126,
      "count": 180,
      "max": [
        1.0,
        1.0,
        0.6863939762115479,
        1.0
      ],
      "min": [
        -1.0,
        -0.999999463558197,
        -1.0,
        1.0
      ],
      "type": "VEC4"
    },
    {
      "bufferView": 1,
      "byteOffset": 10392,
      "componentType": 5126,
      "count": 180,
      "max": [
        0.9014999866485596,
        0.9548429846763611
      ],
      "min": [
        0.0017890000017359853,
        0.08438500016927719
      ],
      "type": "VEC2"
    },
    {
      "bufferView": 0,
      "byteOffset": 14688,
      "componentType": 5125,
      "count": 396,
      "type": "SCALAR"
    },
    {
      "bufferView": 2,
      "byteOffset": 35496,
      "componentType": 5126,
      "count": 9390,
      "max": [
        1.046334981918335,
        1.9235490560531616,
        1.1452239751815796
      ],
      "min": [
        0.3238990008831024,
        -1.9235490560531616,
        0.42278799414634705
      ],
      "type": "VEC3"
    },
    {
      "bufferView": 2,
      "byteOffset": 148176,
      "componentType": 5126,
      "count": 9390,
      "max": [
        0.999957263469696,
        1.0,
        0.999983012676239
      ],
      "min": [
        -0.999957263469696,
        -1.0,
        -0.999983012676239
      ],
      "type": "VEC3"
    },
    {
      "bufferView": 3,
      "byteOffset": 23664,
      "componentType": 5126,
      "count": 9390,
      "max": [
        0.9999998211860657,
        1.0,
        0.9999867677688599,
        1.0
      ],
      "min": [
        -0.9999991655349731,
        -1.0,
        -0.9999999403953552,
        1.0
      ],
      "type": "VEC4"
    },
    {
      "bufferView": 1,
      "byteOffset": 11832,
      "componentType": 5126,
      "count": 9390,
      "max": [
        0.9980109930038452,
        0.9980559945106506
      ],
      "min": [
        0.004153000190854073,
        0.001961000030860305
      ],
      "type": "VEC2"
    },
    {
      "bufferView": 0,
      "byteOffset": 16272,
      "componentType": 5125,
      "count": 23232,
      "type": "SCALAR"
    },
    {
      "bufferView": 2,
      "byteOffset": 260856,
      "componentType": 5126,
      "count": 9294,
      "max": [
        -0.15031099319458008,
        1.9555840492248535,
        1.485672950744629
      ],
      "min": [
        -1.2668119668960571,
        -1.9555840492248535,
        0.36917200684547424
      ],
      "type": "VEC3"
    },
    {
      "bufferView": 2,
      "byteOffset": 372384,
      "componentType": 5126,
      "count": 9294,
      "max": [
        1.0,
        1.0,
        1.0
      ],
      "min": [
        -1.0,
        -1.0,
        -1.0
      ],
      "type": "VEC3"
    },
    {
      "bufferView": 3,
      "byteOffset": 173904,
      "componentType": 5126,
      "count": 9294,
      "max": [
        1.0,
        1.0,
        0.9999544620513916,
        1.0
      ],
      "min": [
        -1.0,
        -1.0,
        -0.9999962449073792,
        1.0
      ],
      "type": "VEC4"
    },
    {
      "bufferView": 1,
      "byteOffset": 86952,
      "componentType": 5126,
      "count": 9294,
      "max": [
        0.9973819851875305,
        0.9982110261917114
      ],
      "min": [
        0.0017890000017359853,
        0.0017890000017359853
      ],
      "type": "VEC2"
    },
    {
      "bufferView": 0,
      "byteOffset": 109200,
      "componentType": 5125,
      "count": 23232,
      "type": "SCALAR"
    },
    {
      "bufferView": 2,
      "byteOffset": 483912,
      "componentType": 5126,
      "count": 5204,
      "max": [
        0.5957080125808716,
        1.866184949874878,
        2.1838419437408447
      ],
      "min": [
        -0.4689899981021881,
        -1.866184949874878,
        1.1106460094451904
      ],
      "type": "VEC3"
    },
    {
      "bufferView": 2,
      "byteOffset": 546360,
      "componentType": 5126,
      "count": 5204,
      "max": [
        1.0,
        1.0,
        1.0
      ],
      "min": [
        -1.0,
        -1.0,
        -1.0
      ],
      "type": "VEC3"
    },
    {
      "bufferView": 3,
      "byteOffset": 322608,
      "componentType": 5126,
      "count": 5204,
      "max": [
        1.0,
        1.0,
        1.0,
        1.0
      ],
      "min": [
        -1.0,
        -1.0,
        -1.0,
        1.0
      ],
      "type": "VEC4"
    },
    {
      "bufferView": 1,
      "byteOffset": 161304,
      "componentType": 5126,
      "count": 5204,
      "max": [
        0.9264810085296631,
        0.9524499773979187
      ],
      "min": [
        0.0017890000017359853,
        0.009596000425517559
      ],
      "type": "VEC2"
    },
    {
      "bufferView": 0,
      "byteOffset": 202128,
      "componentType": 5125,
      "count": 14340,
      "type": "SCALAR"
    },
    {
      "bufferView": 2,
      "byteOffset": 608808,
      "componentType": 5126,
      "count": 1088,
      "max": [
        0.8418859839439392,
        0.5256620049476624,
        4.654252052307129
      ],
      "min": [
        0.5990359783172607,
        -0.5256620049476624,
        4.2538981437683105
      ],
      "type": "VEC3"
    },
    {
      "bufferView": 2,
      "byteOffset": 621864,
      "componentType": 5126,
      "count": 1088,
      "max": [
        0.00010800001473398879,
        1.0,
        1.0
      ],
      "min": [
        -1.0,
        -1.0,
        -1.0
      ],
      "type": "VEC3"
    },
    {
      "bufferView": 3,
      "byteOffset": 405872,
      "componentType": 5126,
      "count": 1088,
      "max": [
        0.9997608661651611,
        0.9725292921066284,
        0.892261266708374,
        1.0
      ],
      "min": [
        -0.9997571110725403,
        -0.9726652503013611,
        -0.4086795747280121,
        1.0
      ],
      "type": "VEC4"
    },
    {
      "bufferView": 1,
      "byteOffset": 202936,
      "componentType": 5126,
      "count": 1088,
      "max": [
        0.8116790056228638,
        0.14289499819278717
      ],
      "min": [
        0.7477009892463684,
        0.009596000425517559
      ],
      "type": "VEC2"
    },
    {
      "bufferView": 0,
      "byteOffset": 259488,
      "componentType": 5125,
      "count": 3636,
      "type": "SCALAR"
    },
    {
      "bufferView": 2,
      "byteOffset": 634920,
      "componentType": 5126,
      "count": 396,
      "max": [
        0.8812739849090576,
        0.5256620049476624,
        4.654252052307129
      ],
      "min": [
        0.8418859839439392,
        -0.5256620049476624,
        4.2538981437683105
      ],
      "type": "VEC3"
    },
    {
      "bufferView": 2,
      "byteOffset": 639672,
      "componentType": 5126,
      "count": 396,
      "max": [
        1.0,
        1.0,
        1.0
      ],
      "min": [
        -1.0000003385357559e-05,
        -1.0,
        -1.0
      ],
      "type": "VEC3"
    },
    {
      "bufferView": 3,
      "byteOffset": 423280,
      "componentType": 5126,
      "count": 396,
      "max": [
        0.9999463558197021,
        0.9998584985733032,
        0.6473159193992615,
        1.0
      ],
      "min": [
        -0.9999926686286926,
        -0.999855637550354,
        -0.9999617338180542,
        1.0
      ],
      "type": "VEC4"
    },
    {
      "bufferView": 1,
      "byteOffset": 211640,
      "componentType": 5126,
      "count": 396,
      "max": [
        0.8050950169563293,
        0.7985410094261169
      ],
      "min": [
        0.5128610134124756,
        0.674921989440918
      ],
      "type": "VEC2"
    },
    {
      "bufferView": 0,
      "byteOffset": 274032,
      "componentType": 5125,
      "count": 1152,
      "type": "SCALAR"
    },
    {
      "bufferView": 2,
      "byteOffset": 644424,
      "componentType": 5126,
      "count": 194,
      "max": [
        0.8826910257339478,
        0.5028640031814575,
        4.631453037261963
      ],
      "min": [
        0.8507490158081055,
        -0.5028640031814575,
        4.27669620513916
      ],
      "type": "VEC3"
    },
    {
      "bufferView": 2,
      "byteOffset": 646752,
      "componentType": 5126,
      "count": 194,
      "max": [
        1.0,
        0.34474897384643555,
        0.3447459936141968
      ],
      "min": [
        0.9386922121047974,
        -0.34474897384643555,
        -0.3447519838809967
      ],
      "type": "VEC3"
    },
    {
      "bufferView": 3,
      "byteOffset": 429616,
      "componentType": 5126,
      "count": 194,
      "max": [
        0.34321656823158264,
        0.9952929019927979,
        0.9953576922416687,
        1.0
      ],
      "min": [
        -0.34321796894073486,
        0.06541534513235092,
        0.06512071937322617,
        1.0
      ],
      "type": "VEC4"
    },
    {
      "bufferView": 1,
      "byteOffset": 214808,
      "componentType": 5126,
      "count": 194,
      "max": [
        0.8653770089149475,
        0.911549985408783
      ],
      "min": [
        0.3833630084991455,
        0.7554140090942383
      ],
      "type": "VEC2"
    },
    {
      "bufferView": 0,
      "byteOffset": 278640,
      "componentType": 5125,
      "count": 960,
      "type": "SCALAR"
    },
    {
      "bufferView": 2,
      "byteOffset": 649080,
      "componentType": 5126,
      "count": 1240,
      "max": [
        1.2234690189361572,
        1.3009129762649536,
        3.0440070629119873
      ],
      "min": [
        0.9907469749450684,
        -1.2751820087432861,
        2.9153189659118652
      ],
      "type": "VEC3"
    },
    {
      "bufferView": 2,
      "byteOffset": 663960,
      "componentType": 5126,
      "count": 1240,
      "max": [
        1.0,
        1.0,
        1.0
      ],
      "min": [
        -1.0,
        -1.0,
        -1.0
      ],
      "type": "VEC3"
    },
    {
      "bufferView": 3,
      "byteOffset": 432720,
      "componentType": 5126,
      "count": 1240,
      "max": [
        1.0,
        1.0,
        1.0,
        1.0
      ],
      "min": [
        -1.0,
        -1.0,
        -1.0,
        -1.0
      ],
      "type": "VEC4"
    },
    {
      "bufferView": 1,
      "byteOffset": 216360,
      "componentType": 5126,
      "count": 1240,
      "max": [
        0.974914014339447,
        0.983601987361908
      ],
      "min": [
        0.04022499918937683,
        0.1840749979019165
      ],
      "type": "VEC2"
    },
    {
      "bufferView": 0,
      "byteOffset": 282480,
      "componentType": 5125,
      "count": 3432,
      "type": "SCALAR"
    },
    {
      "bufferView": 2,
      "byteOffset": 678840,
      "componentType": 5126,
      "count": 3110,
      "max": [
        -1.0231820344924927,
        0.7886589765548706,
        2.79536509513855
      ],
      "min": [
        -1.2389249801635742,
        -0.7886580228805542,
        1.5855599641799927
      ],
      "type": "VEC3"
    },
    {
      "bufferView": 2,
      "byteOffset": 716160,
      "componentType": 5126,
      "count": 3110,
      "max": [
        0.9984830021858215,
        1.0,
        0.9984853863716125
      ],
      "min": [
        -0.9984831213951111,
        -1.0,
        -0.9984853863716125
      ],
      "type": "VEC3"
    },
    {
      "bufferView": 3,
      "byteOffset": 452560,
      "componentType": 5126,
      "count": 3110,
      "max": [
        0.999993085861206,
        0.9999995827674866,
        0.9993790984153748,
        1.0
      ],
      "min": [
        -0.9999985098838806,
        -1.0,
        -0.9984826445579529,
        1.0
      ],
      "type": "VEC4"
    },
    {
      "bufferView": 1,
      "byteOffset": 226280,
      "componentType": 5126,
      "count": 3110,
      "max": [
        0.9624829888343811,
        0.9836459755897522
      ],
      "min": [
        0.006426000036299229,
        0.19259600341320038
      ],
      "type": "VEC2"
    },
    {
      "bufferView": 0,
      "byteOffset": 296208,
      "componentType": 5125,
      "count": 9168,
      "type": "SCALAR"
    },
    {
      "bufferView": 2,
      "byteOffset": 753480,
      "componentType": 5126,
      "count": 854,
      "max": [
        -0.9524009823799133,
        0.8931180238723755,
        3.2525839805603027
      ],
      "min": [
        -1.318956971168518,
        -0.9070209860801697,
        2.8530569076538086
      ],
      "type": "VEC3"
    },
    {
      "bufferView": 2,
      "byteOffset": 763728,
      "componentType": 5126,
      "count": 854,
      "max": [
        0.9807890057563782,
        1.0,
        0.9807872176170349
      ],
      "min": [
        -1.0,
        -1.0,
        -0.9807882308959961
      ],
      "type": "VEC3"
    },
    {
      "bufferView": 3,
      "byteOffset": 502320,
      "componentType": 5126,
      "count": 854,
      "max": [
        1.0,
        0.9999708533287048,
        0.9956499934196472,
        1.0
      ],
      "min": [
        -0.9894059896469116,
        -1.0,
        -0.9997733235359192,
        1.0
      ],
      "type": "VEC4"
    },
    {
      "bufferView": 1,
      "byteOffset": 251160,
      "componentType": 5126,
      "count": 854,
      "max": [
        0.9828130006790161,
        0.9867929816246033
      ],
      "min": [
        0.0254100002348423,
        0.0009260000078938901
      ],
      "type": "VEC2"
    },
    {
      "bufferView": 0,
      "byteOffset": 332880,
      "componentType": 5125,
      "count": 1866,
      "type": "SCALAR"
    },
    {
      "bufferView": 2,
      "byteOffset": 773976,
      "componentType": 5126,
      "count": 241,
      "max": [
        -0.8799610137939453,
        0.5742319822311401,
        2.896401882171631
      ],
      "min": [
        -1.2354110479354858,
        -0.5742319822311401,
        1.474418044090271
      ],
      "type": "VEC3"
    },
    {
      "bufferView": 2,
      "byteOffset": 776868,
      "componentType": 5126,
      "count": 241,
      "max": [
        1.0,
        1.0,
        1.0
      ],
      "min": [
        -1.0,
        -1.0,
        -1.0
      ],
      "type": "VEC3"
    },
    {
      "bufferView": 3,
      "byteOffset": 515984,
      "componentType": 5126,
      "count": 241,
      "max": [
        1.0,
        1.0,
        0.999998152256012,
        1.0
      ],
      "min": [
        -1.0,
        -1.0,
        -0.9998421669006348,
        1.0
      ],
      "type": "VEC4"
    },
    {
      "bufferView": 1,
      "byteOffset": 257992,
      "componentType": 5126,
      "count": 241,
      "max": [
        0.9434930086135864,
        0.9705809950828552
      ],
      "min": [
        0.07151199877262115,
        0.0009260000078938901
      ],
      "type": "VEC2"
    },
    {
      "bufferView": 0,
      "byteOffset": 340344,
      "componentType": 5125,
      "count": 552,
      "type": "SCALAR"
    },
    {
      "bufferView": 2,
      "byteOffset": 779760,
      "componentType": 5126,
      "count": 436,
      "max": [
        -0.9524019956588745,
        0.850695013999939,
        3.2075090408325195
      ],
      "min": [
        -1.4507149457931519,
        -0.8506960272789001,
        1.5637530088424683
      ],
      "type": "VEC3"
    },
    {
      "bufferView": 2,
      "byteOffset": 784992,
      "componentType": 5126,
      "count": 436,
      "max": [
        0.9997657537460327,
        1.0,
        0.9998435378074646
      ],
      "min": [
        -0.9977236390113831,
        -1.0,
        -0.9999783635139465
      ],
      "type": "VEC3"
    },
    {
      "bufferView": 3,
      "byteOffset": 519840,
      "componentType": 5126,
      "count": 436,
      "max": [
        0.9999988079071045,
        1.0,
        0.9971140027046204,
        1.0
      ],
      "min": [
        -0.9996532201766968,
        -1.0,
        -0.9961065053939819,
        1.0
      ],
      "type": "VEC4"
    },
    {
      "bufferView": 1,
      "byteOffset": 259920,
      "componentType": 5126,
      "count": 436,
      "max": [
        0.9990739822387695,
        0.9847829937934875
      ],
      "min": [
        0.07192400097846985,
        0.0009260000078938901
      ],
      "type": "VEC2"
    },
    {
      "bufferView": 0,
      "byteOffset": 342552,
      "componentType": 5125,
      "count": 900,
      "type": "SCALAR"
    },
    {
      "bufferView": 2,
      "byteOffset": 790224,
      "componentType": 5126,
      "count": 1694,
      "max": [
        0.27150198817253113,
        1.5155459642410278,
        1.6975059509277344
      ],
      "min": [
        -0.16200800240039825,
        -1.5155459642410278,
        0.4381429851055145
      ],
      "type": "VEC3"
    },
    {
      "bufferView": 2,
      "byteOffset": 810552,
      "componentType": 5126,
      "count": 1694,
      "max": [
        1.0,
        1.0,
        1.0
      ],
      "min": [
        -1.0,
        -1.0,
        -1.0
      ],
      "type": "VEC3"
    },
    {
      "bufferView": 3,
      "byteOffset": 526816,
      "componentType": 5126,
      "count": 1694,
      "max": [
        1.0,
        1.0,
        1.0,
        1.0
      ],
      "min": [
        -1.0,
        -1.0,
        -1.0,
        1.0
      ],
      "type": "VEC4"
    },
    {
      "bufferView": 1,
      "byteOffset": 263408,
      "componentType": 5126,
      "count": 1694,
      "max": [
        0.9638019800186157,
        0.9531360268592834
      ],
      "min": [
        0.048902999609708786,
        0.0017890000017359853
      ],
      "type": "VEC2"
    },
    {
      "bufferView": 0,
      "byteOffset": 346152,
      "componentType": 5125,
      "count": 3456,
      "type": "SCALAR"
    },
    {
      "bufferView": 2,
      "byteOffset": 830880,
      "componentType": 5126,
      "count": 976,
      "max": [
        1.5893629789352417,
        1.5024689435958862,
        3.0728919506073
      ],
      "min": [
        1.2483450174331665,
        -1.5024689435958862,
        2.76173996925354
      ],
      "type": "VEC3"
    },
    {
      "bufferView": 2,
      "byteOffset": 842592,
      "componentType": 5126,
      "count": 976,
      "max": [
        1.0,
        1.0,
        1.0
      ],
      "min": [
        -1.0,
        -1.0,
        -1.0
      ],
      "type": "VEC3"
    },
    {
      "bufferView": 3,
      "byteOffset": 553920,
      "componentType": 5126,
      "count": 976,
      "max": [
        0.999968945980072,
        1.0,
        0.9999690651893616,
        1.0
      ],
      "min": [
        -0.9999549984931946,
        -1.0,
        -0.9999622106552124,
        1.0
      ],
      "type": "VEC4"
    },
    {
      "bufferView": 1,
      "byteOffset": 276960,
      "componentType": 5126,
      "count": 976,
      "max": [
        0.9829570055007935,
        0.9828670024871826
      ],
      "min": [
        0.04964200034737587,
        0.07179500162601471
      ],
      "type": "VEC2"
    },
    {
      "bufferView": 0,
      "byteOffset": 359976,
      "componentType": 5125,
      "count": 2712,
      "type": "SCALAR"
    },
    {
      "bufferView": 2,
      "byteOffset": 854304,
      "componentType": 5126,
      "count": 27292,
      "max": [
        1.1461620330810547,
        1.9822139739990234,
        2.2940618991851807
      ],
      "min": [
        -1.3933509588241577,
        -1.982213020324707,
        0.3043990135192871
      ],
      "type": "VEC3"
    },
    {
      "bufferView": 2,
      "byteOffset": 1181808,
      "componentType": 5126,
      "count": 27292,
      "max": [
        1.0,
        1.0,
        1.0
      ],
      "min": [
        -1.0,
        -1.0,
        -1.0
      ],
      "type": "VEC3"
    },
    {
      "bufferView": 3,
      "byteOffset": 569536,
      "componentType": 5126,
      "count": 27292,
      "max": [
        0.9999992251396179,
        1.0,
        1.0,
        1.0
      ],
      "min": [
        -1.0,
        -1.0,
        -1.0,
        -1.0
      ],
      "type": "VEC4"
    },
    {
      "bufferView": 1,
      "byteOffset": 284768,
      "componentType": 5126,
      "count": 27292,
      "max": [
        0.9974849820137024,
        0.997376024723053
      ],
      "min": [
        0.002515000058338046,
        0.002515000058338046
      ],
      "type": "VEC2"
    },
    {
      "bufferView": 0,
      "byteOffset": 370824,
      "componentType": 5125,
      "count": 53856,
      "type": "SCALAR"
    },
    {
      "bufferView": 2,
      "byteOffset": 1509312,
      "componentType": 5126,
      "count": 340,
      "max": [
        0.7212039828300476,
        1.695667028427124,
        1.0301909446716309
      ],
      "min": [
        -0.720757007598877,
        -1.695667028427124,
        0.6843180060386658
      ],
      "type": "VEC3"
    },
    {
      "bufferView": 2,
      "byteOffset": 1513392,
      "componentType": 5126,
      "count": 340,
      "max": [
        0.9729922413825989,
        1.0,
        0.992347240447998
      ],
      "min": [
        -0.9988571405410767,
        -1.0,
        -0.992347240447998
      ],
      "type": "VEC3"
    },
    {
      "bufferView": 3,
      "byteOffset": 1006208,
      "componentType": 5126,
      "count": 340,
      "max": [
        0.14145949482917786,
        0.9999997615814209,
        0.9949255585670471,
        1.0
      ],
      "min": [
        -0.17405028641223907,
        -0.9999993443489075,
        -0.9943624138832092,
        1.0
      ],
      "type": "VEC4"
    },
    {
      "bufferView": 1,
      "byteOffset": 503104,
      "componentType": 5126,
      "count": 340,
      "max": [
        0.6060270071029663,
        0.4285539984703064
      ],
      "min": [
        0.36083099246025085,
        0.0017890000017359853
      ],
      "type": "VEC2"
    },
    {
      "bufferView": 0,
      "byteOffset": 586248,
      "componentType": 5125,
      "count": 960,
      "type": "SCALAR"
    },
    {
      "bufferView": 2,
      "byteOffset": 1517472,
      "componentType": 5126,
      "count": 1110,
      "max": [
        0.37369200587272644,
        1.8124380111694336,
        0.6855030059814453
      ],
      "min": [
        -0.22925999760627747,
        -1.8124380111694336,
        0.4119740128517151
      ],
      "type": "VEC3"
    },
    {
      "bufferView": 2,
      "byteOffset": 1530792,
      "componentType": 5126,
      "count": 1110,
      "max": [
        1.0,
        1.0,
        1.0
      ],
      "min": [
        -1.0,
        -1.0,
        -1.0
      ],
      "type": "VEC3"
    },
    {
      "bufferView": 3,
      "byteOffset": 1011648,
      "componentType": 5126,
      "count": 1110,
      "max": [
        0.9999997019767761,
        1.0,
        1.0,
        1.0
      ],
      "min": [
        -0.9999966621398926,
        -0.9999918937683105,
        -0.9999976754188538,
        1.0
      ],
      "type": "VEC4"
    },
    {
      "bufferView": 1,
      "byteOffset": 505824,
      "componentType": 5126,
      "count": 1110,
      "max": [
        0.9642819762229919,
        0.9927080273628235
      ],
      "min": [
        0.17635199427604675,
        0.009596000425517559
      ],
      "type": "VEC2"
    },
    {
      "bufferView": 0,
      "byteOffset": 590088,
      "componentType": 5125,
      "count": 3084,
      "type": "SCALAR"
    },
    {
      "bufferView": 2,
      "byteOffset": 1544112,
      "componentType": 5126,
      "count": 606,
      "max": [
        0.22373899817466736,
        0.8727819919586182,
        3.3382999897003174
      ],
      "min": [
        -0.9218689799308777,
        -0.8727819919586182,
        3.307260036468506
      ],
      "type": "VEC3"
    },
    {
      "bufferView": 2,
      "byteOffset": 1551384,
      "componentType": 5126,
      "count": 606,
      "max": [
        1.0,
        1.0,
        1.0
      ],
      "min": [
        -0.9999930262565613,
        -1.0,
        -3.000000106112566e-06
      ],
      "type": "VEC3"
    },
    {
      "bufferView": 3,
      "byteOffset": 1029408,
      "componentType": 5126,
      "count": 606,
      "max": [
        1.0,
        1.0,
        1.0,
        1.0
      ],
      "min": [
        -1.0,
        -1.0,
        -1.0,
        1.0
      ],
      "type": "VEC4"
    },
    {
      "bufferView": 1,
      "byteOffset": 514704,
      "componentType": 5126,
      "count": 606,
      "max": [
        0.9908940196037292,
        0.9854530096054077
      ],
      "min": [
        0.0009260000078938901,
        0.07018700242042542
      ],
      "type": "VEC2"
    },
    {
      "bufferView": 0,
      "byteOffset": 602424,
      "componentType": 5125,
      "count": 1260,
      "type": "SCALAR"
    },
    {
      "bufferView": 2,
      "byteOffset": 1558656,
      "componentType": 5126,
      "count": 3049,
      "max": [
        1.4915800094604492,
        1.3736629486083984,
        2.8899428844451904
      ],
      "min": [
        1.2969650030136108,
        -1.3736629486083984,
        2.5113019943237305
      ],
      "type": "VEC3"
    },
    {
      "bufferView": 2,
      "byteOffset": 1595244,
      "componentType": 5126,
      "count": 3049,
      "max": [
        0.9955587387084961,
        1.0,
        0.9951966404914856
      ],
      "min": [
        -0.9985203742980957,
        -1.0,
        -1.0
      ],
      "type": "VEC3"
    },
    {
      "bufferView": 3,
      "byteOffset": 1039104,
      "componentType": 5126,
      "count": 3049,
      "max": [
        1.0,
        1.0,
        0.9968998432159424,
        1.0
      ],
      "min": [
        -1.0,
        -1.0,
        -0.9985203742980957,
        1.0
      ],
      "type": "VEC4"
    },
    {
      "bufferView": 1,
      "byteOffset": 519552,
      "componentType": 5126,
      "count": 3049,
      "max": [
        0.9909189939498901,
        0.992917001247406
      ],
      "min": [
        0.026979999616742134,
        0.0017890000017359853
      ],
      "type": "VEC2"
    },
    {
      "bufferView": 0,
      "byteOffset": 607464,
      "componentType": 5125,
      "count": 4116,
      "type": "SCALAR"
    },
    {
      "bufferView": 2,
      "byteOffset": 1631832,
      "componentType": 5126,
      "count": 444,
      "max": [
        1.5876779556274414,
        1.4889010190963745,
        2.8033130168914795
      ],
      "min": [
        1.4828389883041382,
        -1.4888999462127686,
        2.4867119789123535
      ],
      "type": "VEC3"
    },
    {
      "bufferView": 2,
      "byteOffset": 1637160,
      "componentType": 5126,
      "count": 444,
      "max": [
        0.9984872341156006,
        0.9999993443489075,
        0.9998968839645386
      ],
      "min": [
        -0.9975498914718628,
        -0.9999993443489075,
        -0.9999978542327881
      ],
      "type": "VEC3"
    },
    {
      "bufferView": 3,
      "byteOffset": 1087888,
      "componentType": 5126,
      "count": 444,
      "max": [
        1.0,
        1.0,
        0.676048219203949,
        1.0
      ],
      "min": [
        -1.0,
        -1.0,
        -0.9975498914718628,
        -1.0
      ],
      "type": "VEC4"
    },
    {
      "bufferView": 1,
      "byteOffset": 543944,
      "componentType": 5126,
      "count": 444,
      "max": [
        0.9729369878768921,
        0.9696940183639526
      ],
      "min": [
        0.06160200014710426,
        0.05728600174188614
      ],
      "type": "VEC2"
    },
    {
      "bufferView": 0,
      "byteOffset": 623928,
      "componentType": 5125,
      "count": 1272,
      "type": "SCALAR"
    },
    {
      "bufferView": 2,
      "byteOffset": 1642488,
      "componentType": 5126,
      "count": 762,
      "max": [
        1.4267430305480957,
        1.3673820495605469,
        3.043134927749634
      ],
      "min": [
        1.1538430452346802,
        -1.3673820495605469,
        2.841284990310669
      ],
      "type": "VEC3"
    },
    {
      "bufferView": 2,
      "byteOffset": 1651632,
      "componentType": 5126,
      "count": 762,
      "max": [
        1.0,
        1.0,
        1.0
      ],
      "min": [
        -1.0,
        -1.0,
        -1.0
      ],
      "type": "VEC3"
    },
    {
      "bufferView": 3,
      "byteOffset": 1094992,
      "componentType": 5126,
      "count": 762,
      "max": [
        1.0,
        1.0,
        1.0,
        1.0
      ],
      "min": [
        -1.0,
        -0.31811803579330444,
        -1.0,
        1.0
      ],
      "type": "VEC4"
    },
    {
      "bufferView": 1,
      "byteOffset": 547496,
      "componentType": 5126,
      "count": 762,
      "max": [
        0.962007999420166,
        0.9624149799346924
      ],
      "min": [
        0.0017890000017359853,
        0.27345600724220276
      ],
      "type": "VEC2"
    },
    {
      "bufferView": 0,
      "byteOffset": 629016,
      "componentType": 5125,
      "count": 2352,
      "type": "SCALAR"
    },
    {
      "bufferView": 2,
      "byteOffset": 1660776,
      "componentType": 5126,
      "count": 1054,
      "max": [
        1.0108469724655151,
        1.353916049003601,
        3.0878710746765137
      ],
      "min": [
        0.7284150123596191,
        -1.353916049003601,
        2.841418981552124
      ],
      "type": "VEC3"
    },
    {
      "bufferView": 2,
      "byteOffset": 1673424,
      "componentType": 5126,
      "count": 1054,
      "max": [
        1.0,
        1.0,
        1.0
      ],
      "min": [
        -5.000001692678779e-06,
        -1.0,
        -1.0
      ],
      "type": "VEC3"
    },
    {
      "bufferView": 3,
      "byteOffset": 1107184,
      "componentType": 5126,
      "count": 1054,
      "max": [
        0.9999986290931702,
        0.9999934434890747,
        0.9290019869804382,
        1.0
      ],
      "min": [
        -3.485849447315559e-05,
        -0.9999841451644897,
        -0.9999979734420776,
        1.0
      ],
      "type": "VEC4"
    },
    {
      "bufferView": 1,
      "byteOffset": 553592,
      "componentType": 5126,
      "count": 1054,
      "max": [
        0.963828980922699,
        0.9635360240936279
      ],
      "min": [
        0.0017890000017359853,
        0.009596000425517559
      ],
      "type": "VEC2"
    },
    {
      "bufferView": 0,
      "byteOffset": 638424,
      "componentType": 5125,
      "count": 3252,
      "type": "SCALAR"
    },
    {
      "bufferView": 2,
      "byteOffset": 1686072,
      "componentType": 5126,
      "count": 260,
      "max": [
        -0.1823830008506775,
        1.3764840364456177,
        3.0258290767669678
      ],
      "min": [
        -0.4305190145969391,
        -1.3764840364456177,
        2.902606964111328
      ],
      "type": "VEC3"
    },
    {
      "bufferView": 2,
      "byteOffset": 1689192,
      "componentType": 5126,
      "count": 260,
      "max": [
        1.0,
        1.0,
        1.0
      ],
      "min": [
        -1.0,
        -1.0,
        -1.0
      ],
      "type": "VEC3"
    },
    {
      "bufferView": 3,
      "byteOffset": 1124048,
      "componentType": 5126,
      "count": 260,
      "max": [
        1.0,
        1.0,
        1.0,
        1.0
      ],
      "min": [
        -1.0,
        -1.0,
        -0.00011381113290553913,
        1.0
      ],
      "type": "VEC4"
    },
    {
      "bufferView": 1,
      "byteOffset": 562024,
      "componentType": 5126,
      "count": 260,
      "max": [
        0.97918701171875,
        0.9870460033416748
      ],
      "min": [
        0.07151199877262115,
        0.28815001249313354
      ],
      "type": "VEC2"
    },
    {
      "bufferView": 0,
      "byteOffset": 651432,
      "componentType": 5125,
      "count": 744,
      "type": "SCALAR"
    },
    {
      "bufferView": 2,
      "byteOffset": 1692312,
      "componentType": 5126,
      "count": 988,
      "max": [
        -0.17348699271678925,
        1.163432002067566,
        3.097182035446167
      ],
      "min": [
        -0.43941500782966614,
        -1.163432002067566,
        2.8312530517578125
      ],
      "type": "VEC3"
    },
    {
      "bufferView": 2,
      "byteOffset": 1704168,
      "componentType": 5126,
      "count": 988,
      "max": [
        1.0,
        1.0,
        1.0
      ],
      "min": [
        -1.0,
        -1.0,
        -1.0
      ],
      "type": "VEC3"
    },
    {
      "bufferView": 3,
      "byteOffset": 1128208,
      "componentType": 5126,
      "count": 988,
      "max": [
        0.9999992847442627,
        1.0,
        0.8361508846282959,
        1.0
      ],
      "min": [
        -0.9999564290046692,
        -0.9999961256980896,
        -0.9999721050262451,
        1.0
      ],
      "type": "VEC4"
    },
    {
      "bufferView": 1,
      "byteOffset": 564104,
      "componentType": 5126,
      "count": 988,
      "max": [
        0.9563680291175842,
        0.47823598980903625
      ],
      "min": [
        0.5399929881095886,
        0.3176249861717224
      ],
      "type": "VEC2"
    },
    {
      "bufferView": 0,
      "byteOffset": 654408,
      "componentType": 5125,
      "count": 2868,
      "type": "SCALAR"
    },
    {
      "bufferView": 2,
      "byteOffset": 1716024,
      "componentType": 5126,
      "count": 1406,
      "max": [
        0.7251629829406738,
        1.3764840364456177,
        3.155134916305542
      ],
      "min": [
        -0.4305190145969391,
        -1.3764840364456177,
        2.773289918899536
      ],
      "type": "VEC3"
    },
    {
      "bufferView": 2,
      "byteOffset": 1732896,
      "componentType": 5126,
      "count": 1406,
      "max": [
        1.0,
        1.0,
        1.0
      ],
      "min": [
        -1.0,
        -1.0,
        -1.0
      ],
      "type": "VEC3"
    },
    {
      "bufferView": 3,
      "byteOffset": 1144016,
      "componentType": 5126,
      "count": 1406,
      "max": [
        1.0,
        1.0,
        0.5836583971977234,
        1.0
      ],
      "min": [
        -1.0,
        -1.0,
        -1.0,
        1.0
      ],
      "type": "VEC4"
    },
    {
      "bufferView": 1,
      "byteOffset": 572008,
      "componentType": 5126,
      "count": 1406,
      "max": [
        0.9893239736557007,
        0.9891080260276794
      ],
      "min": [
        0.2273620069026947,
        0.0009260000078938901
      ],
      "type": "VEC2"
    },
    {
      "bufferView": 0,
      "byteOffset": 665880,
      "componentType": 5125,
      "count": 4872,
      "type": "SCALAR"
    },
    {
      "bufferView": 2,
      "byteOffset": 1749768,
      "componentType": 5126,
      "count": 477,
      "max": [
        0.9700999855995178,
        0.42188501358032227,
        3.358314037322998
      ],
      "min": [
        0.8801569938659668,
        -0.4763619899749756,
        2.800558090209961
      ],
      "type": "VEC3"
    },
    {
      "bufferView": 2,
      "byteOffset": 1755492,
      "componentType": 5126,
      "count": 477,
      "max": [
        1.0,
        1.0,
        1.0
      ],
      "min": [
        -1.0,
        -1.0,
        -1.0
      ],
      "type": "VEC3"
    },
    {
      "bufferView": 3,
      "byteOffset": 1166512,
      "componentType": 5126,
      "count": 477,
      "max": [
        1.0,
        1.0,
        1.0,
        1.0
      ],
      "min": [
        -0.9735103249549866,
        -1.0,
        -1.0,
        -1.0
      ],
      "type": "VEC4"
    },
    {
      "bufferView": 1,
      "byteOffset": 583256,
      "componentType": 5126,
      "count": 477,
      "max": [
        0.9925910234451294,
        0.9693509936332703
      ],
      "min": [
        0.01540399994701147,
        0.33356600999832153
      ],
      "type": "VEC2"
    },
    {
      "bufferView": 0,
      "byteOffset": 685368,
      "componentType": 5125,
      "count": 558,
      "type": "SCALAR"
    },
    {
      "bufferView": 2,
      "byteOffset": 1761216,
      "componentType": 5126,
      "count": 398,
      "max": [
        0.9468960165977478,
        -0.06425800174474716,
        3.2080750465393066
      ],
      "min": [
        0.9431419968605042,
        -0.445701003074646,
        2.974163055419922
      ],
      "type": "VEC3"
    },
    {
      "bufferView": 2,
      "byteOffset": 1765992,
      "componentType": 5126,
      "count": 398,
      "max": [
        1.0,
        1.0,
        1.0
      ],
      "min": [
        0.0,
        -0.999991238117218,
        -1.0
      ],
      "type": "VEC3"
    },
    {
      "bufferView": 3,
      "byteOffset": 1174144,
      "componentType": 5126,
      "count": 398,
      "max": [
        0.9999405741691589,
        0.7292295694351196,
        0.9999997615814209,
        1.0
      ],
      "min": [
        -0.9999657273292542,
        -0.8098930716514587,
        0.0,
        1.0
      ],
      "type": "VEC4"
    },
    {
      "bufferView": 1,
      "byteOffset": 587072,
      "componentType": 5126,
      "count": 398,
      "max": [
        0.9203959703445435,
        0.8909159898757935
      ],
      "min": [
        0.894540011882782,
        0.8523319959640503
      ],
      "type": "VEC2"
    },
    {
      "bufferView": 0,
      "byteOffset": 687600,
      "componentType": 5125,
      "count": 654,
      "type": "SCALAR"
    },
    {
      "bufferView": 2,
      "byteOffset": 1770768,
      "componentType": 5126,
      "count": 1304,
      "max": [
        0.35890400409698486,
        0.2906390130519867,
        4.470526218414307
      ],
      "min": [
        -0.5646780133247375,
        -0.2906399965286255,
        3.2168760299682617
      ],
      "type": "VEC3"
    },
    {
      "bufferView": 2,
      "byteOffset": 1786416,
      "componentType": 5126,
      "count": 1304,
      "max": [
        1.0,
        1.0,
        1.0
      ],
      "min": [
        -1.0,
        -1.0,
        -1.0
      ],
      "type": "VEC3"
    },
    {
      "bufferView": 3,
      "byteOffset": 1180512,
      "componentType": 5126,
      "count": 1304,
      "max": [
        1.0,
        1.0,
        1.0,
        1.0
      ],
      "min": [
        -1.0,
        -1.0,
        -1.0,
        1.0
      ],
      "type": "VEC4"
    },
    {
      "bufferView": 1,
      "byteOffset": 590256,
      "componentType": 5126,
      "count": 1304,
      "max": [
        0.9948329925537109,
        0.9949859976768494
      ],
      "min": [
        0.0254100002348423,
        0.0009260000078938901
      ],
      "type": "VEC2"
    },
    {
      "bufferView": 0,
      "byteOffset": 690216,
      "componentType": 5125,
      "count": 3246,
      "type": "SCALAR"
    },
    {
      "bufferView": 2,
      "byteOffset": 1802064,
      "componentType": 5126,
      "count": 1038,
      "max": [
        -0.07851699739694595,
        0.4850369989871979,
        4.436758995056152
      ],
      "min": [
        -0.5752140283584595,
        -0.4850369989871979,
        4.084485054016113
      ],
      "type": "VEC3"
    },
    {
      "bufferView": 2,
      "byteOffset": 1814520,
      "componentType": 5126,
      "count": 1038,
      "max": [
        0.9998451471328735,
        1.0,
        1.0
      ],
      "min": [
        -0.9998449087142944,
        -1.0,
        -1.0
      ],
      "type": "VEC3"
    },
    {
      "bufferView": 3,
      "byteOffset": 1201376,
      "componentType": 5126,
      "count": 1038,
      "max": [
        0.9991403222084045,
        0.9999936819076538,
        0.9987525343894958,
        1.0
      ],
      "min": [
        -0.9999862909317017,
        -0.9999936819076538,
        -0.9961662292480469,
        1.0
      ],
      "type": "VEC4"
    },
    {
      "bufferView": 1,
      "byteOffset": 600688,
      "componentType": 5126,
      "count": 1038,
      "max": [
        0.8100919723510742,
        0.48246899247169495
      ],
      "min": [
        0.7750930190086365,
        0.1470080018043518
      ],
      "type": "VEC2"
    },
    {
      "bufferView": 0,
      "byteOffset": 703200,
      "componentType": 5125,
      "count": 4416,
      "type": "SCALAR"
    },
    {
      "bufferView": 2,
      "byteOffset": 1826976,
      "componentType": 5126,
      "count": 196,
      "max": [
        -0.5732660293579102,
        1.0691640377044678,
        2.699608087539673
      ],
      "min": [
        -0.9443429708480835,
        -1.0691640377044678,
        2.32853102684021
      ],
      "type": "VEC3"
    },
    {
      "bufferView": 2,
      "byteOffset": 1829328,
      "componentType": 5126,
      "count": 196,
      "max": [
        1.0,
        1.0,
        1.0
      ],
      "min": [
        -1.0,
        -1.0,
        -1.0
      ],
      "type": "VEC3"
    },
    {
      "bufferView": 3,
      "byteOffset": 1217984,
      "componentType": 5126,
      "count": 196,
      "max": [
        8.507385064149275e-05,
        1.0,
        0.2911132574081421,
        1.0
      ],
      "min": [
        -0.9573621153831482,
        -1.0,
        -0.9569933414459229,
        1.0
      ],
      "type": "VEC4"
    },
    {
      "bufferView": 1,
      "byteOffset": 608992,
      "componentType": 5126,
      "count": 196,
      "max": [
        0.9240090250968933,
        0.8202890157699585
      ],
      "min": [
        0.2288230061531067,
        0.18886800110340118
      ],
      "type": "VEC2"
    },
    {
      "bufferView": 0,
      "byteOffset": 720864,
      "componentType": 5125,
      "count": 564,
      "type": "SCALAR"
    },
    {
      "bufferView": 2,
      "byteOffset": 1831680,
      "componentType": 5126,
      "count": 240,
      "max": [
        0.23463700711727142,
        0.7527620196342468,
        4.448576927185059
      ],
      "min": [
        -0.4932219982147217,
        -0.7527620196342468,
        4.18056583404541
      ],
      "type": "VEC3"
    },
    {
      "bufferView": 2,
      "byteOffset": 1834560,
      "componentType": 5126,
      "count": 240,
      "max": [
        1.0,
        1.0,
        1.0
      ],
      "min": [
        -1.0,
        -1.0,
        -1.0
      ],
      "type": "VEC3"
    },
    {
      "bufferView": 3,
      "byteOffset": 1221120,
      "componentType": 5126,
      "count": 240,
      "max": [
        1.0,
        1.0,
        1.0,
        1.0
      ],
      "min": [
        -0.3130040168762207,
        -1.0,
        -1.0,
        1.0
      ],
      "type": "VEC4"
    },
    {
      "bufferView": 1,
      "byteOffset": 610560,
      "componentType": 5126,
      "count": 240,
      "max": [
        0.8923879861831665,
        0.8030059933662415
      ],
      "min": [
        0.34937798976898193,
        0.5684300065040588
      ],
      "type": "VEC2"
    },
    {
      "bufferView": 0,
      "byteOffset": 723120,
      "componentType": 5125,
      "count": 672,
      "type": "SCALAR"
    },
    {
      "bufferView": 2,
      "byteOffset": 1837440,
      "componentType": 5126,
      "count": 554,
      "max": [
        0.23463700711727142,
        0.7239500284194946,
        4.676362037658691
      ],
      "min": [
        -0.6046370267868042,
        -0.7239500284194946,
        4.211026191711426
      ],
      "type": "VEC3"
    },
    {
      "bufferView": 2,
      "byteOffset": 1844088,
      "componentType": 5126,
      "count": 554,
      "max": [
        1.0,
        0.9997317790985107,
        0.9588335156440735
      ],
      "min": [
        -1.0,
        -0.9997317790985107,
        -0.980786144733429
      ],
      "type": "VEC3"
    },
    {
      "bufferView": 3,
      "byteOffset": 1224960,
      "componentType": 5126,
      "count": 554,
      "max": [
        1.0,
        0.9588317275047302,
        0.9588583707809448,
        1.0
      ],
      "min": [
        -1.0,
        -0.9543665051460266,
        -0.954416036605835,
        -1.0
      ],
      "type": "VEC4"
    },
    {
      "bufferView": 1,
      "byteOffset": 612480,
      "componentType": 5126,
      "count": 554,
      "max": [
        0.975193977355957,
        0.9426640272140503
      ],
      "min": [
        0.0017890000017359853,
        0.061556000262498856
      ],
      "type": "VEC2"
    },
    {
      "bufferView": 0,
      "byteOffset": 725808,
      "componentType": 5125,
      "count": 1410,
      "type": "SCALAR"
    },
    {
      "bufferView": 2,
      "byteOffset": 1850736,
      "componentType": 5126,
      "count": 1182,
      "max": [
        0.8957139849662781,
        0.8000779747962952,
        4.828739166259766
      ],
      "min": [
        0.23070800304412842,
        -0.8000779747962952,
        4.031469821929932
      ],
      "type": "VEC3"
    },
    {
      "bufferView": 2,
      "byteOffset": 1864920,
      "componentType": 5126,
      "count": 1182,
      "max": [
        1.0,
        0.9999962449073792,
        1.0
      ],
      "min": [
        -1.0,
        -0.9999962449073792,
        -1.0
      ],
      "type": "VEC3"
    },
    {
      "bufferView": 3,
      "byteOffset": 1233824,
      "componentType": 5126,
      "count": 1182,
      "max": [
        1.0,
        0.9999995231628418,
        0.9994905591011047,
        1.0
      ],
      "min": [
        -1.0,
        -0.9999995827674866,
        -0.9997995495796204,
        1.0
      ],
      "type": "VEC4"
    },
    {
      "bufferView": 1,
      "byteOffset": 616912,
      "componentType": 5126,
      "count": 1182,
      "max": [
        0.8014360070228577,
        0.8004000186920166
      ],
      "min": [
        0.0017890000017359853,
        0.0017890000017359853
      ],
      "type": "VEC2"
    },
    {
      "bufferView": 0,
      "byteOffset": 731448,
      "componentType": 5125,
      "count": 3402,
      "type": "SCALAR"
    },
    {
      "bufferView": 2,
      "byteOffset": 1879104,
      "componentType": 5126,
      "count": 772,
      "max": [
        1.026520013809204,
        1.0500279664993286,
        3.2561910152435303
      ],
      "min": [
        -1.0772279500961304,
        -1.0500279664993286,
        1.5088520050048828
      ],
      "type": "VEC3"
    },
    {
      "bufferView": 2,
      "byteOffset": 1888368,
      "componentType": 5126,
      "count": 772,
      "max": [
        1.0,
        1.0,
        1.0
      ],
      "min": [
        -1.0,
        -1.0,
        -1.0
      ],
      "type": "VEC3"
    },
    {
      "bufferView": 3,
      "byteOffset": 1252736,
      "componentType": 5126,
      "count": 772,
      "max": [
        0.9999992847442627,
        1.0,
        1.0,
        1.0
      ],
      "min": [
        -1.0,
        -1.0,
        -1.0,
        1.0
      ],
      "type": "VEC4"
    },
    {
      "bufferView": 1,
      "byteOffset": 626368,
      "componentType": 5126,
      "count": 772,
      "max": [
        0.9907410144805908,
        0.9911019802093506
      ],
      "min": [
        0.16315799951553345,
        0.0009260000078938901
      ],
      "type": "VEC2"
    },
    {
      "bufferView": 0,
      "byteOffset": 745056,
      "componentType": 5125,
      "count": 1860,
      "type": "SCALAR"
    },
    {
      "bufferView": 2,
      "byteOffset": 1897632,
      "componentType": 5126,
      "count": 395,
      "max": [
        1.0,
        0.9902009963989258,
        3.348205089569092
      ],
      "min": [
        -1.110692024230957,
        -0.9902009963989258,
        1.383070945739746
      ],
      "type": "VEC3"
    },
    {
      "bufferView": 2,
      "byteOffset": 1902372,
      "componentType": 5126,
      "count": 395,
      "max": [
        1.0,
        1.0,
        1.0
      ],
      "min": [
        -1.0,
        -1.0,
        -1.0
      ],
      "type": "VEC3"
    },
    {
      "bufferView": 3,
      "byteOffset": 1265088,
      "componentType": 5126,
      "count": 395,
      "max": [
        1.0,
        1.0,
        1.0,
        1.0
      ],
      "min": [
        -1.0,
        -1.0,
        -1.0,
        1.0
      ],
      "type": "VEC4"
    },
    {
      "bufferView": 1,
      "byteOffset": 632544,
      "componentType": 5126,
      "count": 395,
      "max": [
        0.9942070245742798,
        0.9881089925765991
      ],
      "min": [
        0.0009260000078938901,
        0.0009260000078938901
      ],
      "type": "VEC2"
    },
    {
      "bufferView": 0,
      "byteOffset": 752496,
      "componentType": 5125,
      "count": 783,
      "type": "SCALAR"
    },
    {
      "bufferView": 2,
      "byteOffset": 1907112,
      "componentType": 5126,
      "count": 256,
      "max": [
        1.0277669429779053,
        0.9933379888534546,
        3.3448469638824463
      ],
      "min": [
        -0.9680759906768799,
        -0.9933379888534546,
        2.9647579193115234
      ],
      "type": "VEC3"
    },
    {
      "bufferView": 2,
      "byteOffset": 1910184,
      "componentType": 5126,
      "count": 256,
      "max": [
        1.0,
        1.0,
        1.0
      ],
      "min": [
        -1.0,
        -1.0,
        -1.0
      ],
      "type": "VEC3"
    },
    {
      "bufferView": 3,
      "byteOffset": 1271408,
      "componentType": 5126,
      "count": 256,
      "max": [
        1.0,
        1.0,
        1.0,
        1.0
      ],
      "min": [
        -1.0,
        -1.0,
        -1.0,
        1.0
      ],
      "type": "VEC4"
    },
    {
      "bufferView": 1,
      "byteOffset": 635704,
      "componentType": 5126,
      "count": 256,
      "max": [
        0.972711980342865,
        0.9730600118637085
      ],
      "min": [
        0.08162099868059158,
        0.13591499626636505
      ],
      "type": "VEC2"
    },
    {
      "bufferView": 0,
      "byteOffset": 755628,
      "componentType": 5125,
      "count": 600,
      "type": "SCALAR"
    },
    {
      "bufferView": 2,
      "byteOffset": 1913256,
      "componentType": 5126,
      "count": 276,
      "max": [
        1.0466300249099731,
        1.0959210395812988,
        1.8481249809265137
      ],
      "min": [
        -1.1807609796524048,
        -1.0959210395812988,
        1.3613450527191162
      ],
      "type": "VEC3"
    },
    {
      "bufferView": 2,
      "byteOffset": 1916568,
      "componentType": 5126,
      "count": 276,
      "max": [
        1.0,
        1.0,
        1.0
      ],
      "min": [
        -1.0,
        -1.0,
        -1.0
      ],
      "type": "VEC3"
    },
    {
      "bufferView": 3,
      "byteOffset": 1275504,
      "componentType": 5126,
      "count": 276,
      "max": [
        1.0,
        1.0,
        1.0,
        1.0
      ],
      "min": [
        -1.0,
        -1.0,
        -0.9992943406105042,
        1.0
      ],
      "type": "VEC4"
    },
    {
      "bufferView": 1,
      "byteOffset": 637752,
      "componentType": 5126,
      "count": 276,
      "max": [
        0.9534710049629211,
        0.9573990106582642
      ],
      "min": [
        0.049233000725507736,
        0.08438500016927719
      ],
      "type": "VEC2"
    },
    {
      "bufferView": 0,
      "byteOffset": 758028,
      "componentType": 5125,
      "count": 696,
      "type": "SCALAR"
    }
  ],
  "asset": {
    "extras": {
      "author": "snakadaktal (https://sketchfab.com/snakadaktal)",
      "license": "CC-BY-4.0 (http://creativecommons.org/licenses/by/4.0/)",
      "source": "https://sketchfab.com/3d-models/wall-e-79a0bff7dbc34d0098cabc3c5717b48c",
      "title": "Wall-E"
    },
    "generator": "Sketchfab-12.66.0",
    "version": "2.0"
  },
  "bufferViews": [
    {
      "buffer": 0,
      "byteLength": 760812,
      "name": "floatBufferViews",
      "target": 34963
    },
    {
      "buffer": 0,
      "byteLength": 639960,
      "byteOffset": 760812,
      "byteStride": 8,
      "name": "floatBufferViews",
      "target": 34962
    },
    {
      "buffer": 0,
      "byteLength": 1919880,
      "byteOffset": 1400772,
      "byteStride": 12,
      "name": "floatBufferViews",
      "target": 34962
    },
    {
      "buffer": 0,
      "byteLength": 1279920,
      "byteOffset": 3320652,
      "byteStride": 16,
      "name": "floatBufferViews",
      "target": 34962
    }
  ],
  "buffers": [
    {
      "byteLength": 4600572,
      "uri": "scene.bin"
    }
  ],
  "images": [
    {
      "uri": "textures/Atlas_Metal_baseColor.png"
    },
    {
      "uri": "textures/Atlas_Metal_metallicRoughness.png"
    },
    {
      "uri": "textures/Atlas_Metal_normal.png"
    },
    {
      "uri": "textures/Atlas_Painted_metal_baseColor.png"
    },
    {
      "uri": "textures/Atlas_Painted_metal_metallicRoughness.png"
    },
    {
      "uri": "textures/Atlas_Painted_metal_normal.png"
    },
    {
      "uri": "textures/Tread_baseColor.png"
    },
    {
      "uri": "textures/Tread_metallicRoughness.png"
    },
    {
      "uri": "textures/Tread_normal.png"
    }
  ],
  "materials": [
    {
      "alphaMode": "BLEND",
      "doubleSided": true,
      "name": "Atlas_Metal",
      "normalTexture": {
        "index": 2
      },
      "occlusionTexture": {
        "index": 1
      },
      "pbrMetallicRoughness": {
        "baseColorTexture": {
          "index": 0
        },
        "metallicRoughnessTexture": {
          "index": 1
        }
      }
    },
    {
      "alphaMode": "BLEND",
      "doubleSided": true,
      "name": "Atlas_Painted_metal",
      "normalTexture": {
        "index": 5
      },
      "occlusionTexture": {
        "index": 4
      },
      "pbrMetallicRoughness": {
        "baseColorTexture": {
          "index": 3
        },
        "metallicRoughnessTexture": {
          "index": 4
        }
      }
    },
    {
      "alphaMode": "BLEND",
      "doubleSided": true,
      "name": "Tread",
      "normalTexture": {
        "index": 8
      },
      "occlusionTexture": {
        "index": 7
      },
      "pbrMetallicRoughness": {
        "baseColorTexture": {
          "index": 6
        },
        "metallicRoughnessTexture": {
          "index": 7
        }
      }
    }
  ],
  "meshes": [
    {
      "name": "defaultMaterial",
      "primitives": [
        {
          "attributes": {
            "NORMAL": 1,
            "POSITION": 0,
            "TANGENT": 2,
            "TEXCOORD_0": 3
          },
          "indices": 4,
          "material": 0,
          "mode": 4
        }
      ]
    },
    {
      "name": "defaultMaterial",
      "primitives": [
        {
          "attributes": {
            "NORMAL": 6,
            "POSITION": 5,
            "TANGENT": 7,
            "TEXCOORD_0": 8
          },
          "indices": 9,
          "material": 0,
          "mode": 4
        }
      ]
    },
    {
      "name": "defaultMaterial",
      "primitives": [
        {
          "attributes": {
            "NORMAL": 11,
            "POSITION": 10,
            "TANGENT": 12,
            "TEXCOORD_0": 13
          },
          "indices": 14,
          "material": 0,
          "mode": 4
        }
      ]
    },
    {
      "name": "defaultMaterial",
      "primitives": [
        {
          "attributes": {
            "NORMAL": 16,
            "POSITION": 15,
            "TANGENT": 17,
            "TEXCOORD_0": 18
          },
          "indices": 19,
          "material": 0,
          "mode": 4
        }
      ]
    },
    {
      "name": "defaultMaterial",
      "primitives": [
        {
          "attributes": {
            "NORMAL": 21,
            "POSITION": 20,
            "TANGENT": 22,
            "TEXCOORD_0": 23
          },
          "indices": 24,
          "material": 0,
          "mode": 4
        }
      ]
    },
    {
      "name": "defaultMaterial",
      "primitives": [
        {
          "attributes": {
            "NORMAL": 26,
            "POSITION": 25,
            "TANGENT": 27,
            "TEXCOORD_0": 28
          },
          "indices": 29,
          "material": 0,
          "mode": 4
        }
      ]
    },
    {
      "name": "defaultMaterial",
      "primitives": [
        {
          "attributes": {
            "NORMAL": 31,
            "POSITION": 30,
            "TANGENT": 32,
            "TEXCOORD_0": 33
          },
          "indices": 34,
          "material": 0,
          "mode": 4
        }
      ]
    },
    {
      "name": "defaultMaterial",
      "primitives": [
        {
          "attributes": {
            "NORMAL": 36,
            "POSITION": 35,
            "TANGENT": 37,
            "TEXCOORD_0": 38
          },
          "indices": 39,
          "material": 0,
          "mode": 4
        }
      ]
    },
    {
      "name": "defaultMaterial",
      "primitives": [
        {
          "attributes": {
            "NORMAL": 41,
            "POSITION": 40,
            "TANGENT": 42,
            "TEXCOORD_0": 43
          },
          "indices": 44,
          "material": 0,
          "mode": 4
        }
      ]
    },
    {
      "name": "defaultMaterial",
      "primitives": [
        {
          "attributes": {
            "NORMAL": 46,
            "POSITION": 45,
            "TANGENT": 47,
            "TEXCOORD_0": 48
          },
          "indices": 49,
          "material": 1,
          "mode": 4
        }
      ]
    },
    {
      "name": "defaultMaterial",
      "primitives": [
        {
          "attributes": {
            "NORMAL": 51,
            "POSITION": 50,
            "TANGENT": 52,
            "TEXCOORD_0": 53
          },
          "indices": 54,
          "material": 1,
          "mode": 4
        }
      ]
    },
    {
      "name": "defaultMaterial",
      "primitives": [
        {
          "attributes": {
            "NORMAL": 56,
            "POSITION": 55,
            "TANGENT": 57,
            "TEXCOORD_0": 58
          },
          "indices": 59,
          "material": 1,
          "mode": 4
        }
      ]
    },
    {
      "name": "defaultMaterial",
      "primitives": [
        {
          "attributes": {
            "NORMAL": 61,
            "POSITION": 60,
            "TANGENT": 62,
            "TEXCOORD_0": 63
          },
          "indices": 64,
          "material": 1,
          "mode": 4
        }
      ]
    },
    {
      "name": "defaultMaterial",
      "primitives": [
        {
          "attributes": {
            "NORMAL": 66,
            "POSITION": 65,
            "TANGENT": 67,
            "TEXCOORD_0": 68
          },
          "indices": 69,
          "material": 0,
          "mode": 4
        }
      ]
    },
    {
      "name": "defaultMaterial",
      "primitives": [
        {
          "attributes": {
            "NORMAL": 71,
            "POSITION": 70,
            "TANGENT": 72,
            "TEXCOORD_0": 73
          },
          "indices": 74,
          "material": 0,
          "mode": 4
        }
      ]
    },
    {
      "name": "defaultMaterial",
      "primitives": [
        {
          "attributes": {
            "NORMAL": 76,
            "POSITION": 75,
            "TANGENT": 77,
            "TEXCOORD_0": 78
          },
          "indices": 79,
          "material": 2,
          "mode": 4
        }
      ]
    },
    {
      "name": "defaultMaterial",
      "primitives": [
        {
          "attributes": {
            "NORMAL": 81,
            "POSITION": 80,
            "TANGENT": 82,
            "TEXCOORD_0": 83
          },
          "indices": 84,
          "material": 0,
          "mode": 4
        }
      ]
    },
    {
      "name": "defaultMaterial",
      "primitives": [
        {
          "attributes": {
            "NORMAL": 86,
            "POSITION": 85,
            "TANGENT": 87,
            "TEXCOORD_0": 88
          },
          "indices": 89,
          "material": 0,
          "mode": 4
        }
      ]
    },
    {
      "name": "defaultMaterial",
      "primitives": [
        {
          "attributes": {
            "NORMAL": 91,
            "POSITION": 90,
            "TANGENT": 92,
            "TEXCOORD_0": 93
          },
          "indices": 94,
          "material": 1,
          "mode": 4
        }
      ]
    },
    {
      "name": "defaultMaterial",
      "primitives": [
        {
          "attributes": {
            "NORMAL": 96,
            "POSITION": 95,
            "TANGENT": 97,
            "TEXCOORD_0": 98
          },
          "indices": 99,
          "material": 0,
          "mode": 4
        }
      ]
    },
    {
      "name": "defaultMaterial",
      "primitives": [
        {
          "attributes": {
            "NORMAL": 101,
            "POSITION": 100,
            "TANGENT": 102,
            "TEXCOORD_0": 103
          },
          "indices": 104,
          "material": 0,
          "mode": 4
        }
      ]
    },
    {
      "name": "defaultMaterial",
      "primitives": [
        {
          "attributes": {
            "NORMAL": 106,
            "POSITION": 105,
            "TANGENT": 107,
            "TEXCOORD_0": 108
          },
          "indices": 109,
          "material": 0,
          "mode": 4
        }
      ]
    },
    {
      "name": "defaultMaterial",
      "primitives": [
        {
          "attributes": {
            "NORMAL": 111,
            "POSITION": 110,
            "TANGENT": 112,
            "TEXCOORD_0": 113
          },
          "indices": 114,
          "material": 0,
          "mode": 4
        }
      ]
    },
    {
      "name": "defaultMaterial",
      "primitives": [
        {
          "attributes": {
            "NORMAL": 116,
            "POSITION": 115,
            "TANGENT": 117,
            "TEXCOORD_0": 118
          },
          "indices": 119,
          "material": 1,
          "mode": 4
        }
      ]
    },
    {
      "name": "defaultMaterial",
      "primitives": [
        {
          "attributes": {
            "NORMAL": 121,
            "POSITION": 120,
            "TANGENT": 122,
            "TEXCOORD_0": 123
          },
          "indices": 124,
          "material": 1,
          "mode": 4
        }
      ]
    },
    {
      "name": "defaultMaterial",
      "primitives": [
        {
          "attributes": {
            "NORMAL": 126,
            "POSITION": 125,
            "TANGENT": 127,
            "TEXCOORD_0": 128
          },
          "indices": 129,
          "material": 1,
          "mode": 4
        }
      ]
    },
    {
      "name": "defaultMaterial",
      "primitives": [
        {
          "attributes": {
            "NORMAL": 131,
            "POSITION": 130,
            "TANGENT": 132,
            "TEXCOORD_0": 133
          },
          "indices": 134,
          "material": 0,
          "mode": 4
        }
      ]
    },
    {
      "name": "defaultMaterial",
      "primitives": [
        {
          "attributes": {
            "NORMAL": 136,
            "POSITION": 135,
            "TANGENT": 137,
            "TEXCOORD_0": 138
          },
          "indices": 139,
          "material": 0,
          "mode": 4
        }
      ]
    },
    {
      "name": "defaultMaterial",
      "primitives": [
        {
          "attributes": {
            "NORMAL": 141,
            "POSITION": 140,
            "TANGENT": 142,
            "TEXCOORD_0": 143
          },
          "indices": 144,
          "material": 1,
          "mode": 4
        }
      ]
    },
    {
      "name": "defaultMaterial",
      "primitives": [
        {
          "attributes": {
            "NORMAL": 146,
            "POSITION": 145,
            "TANGENT": 147,
            "TEXCOORD_0": 148
          },
          "indices": 149,
          "material": 0,
          "mode": 4
        }
      ]
    },
    {
      "name": "defaultMaterial",
      "primitives": [
        {
          "attributes": {
            "NORMAL": 151,
            "POSITION": 150,
            "TANGENT": 152,
            "TEXCOORD_0": 153
          },
          "indices": 154,
          "material": 1,
          "mode": 4
        }
      ]
    },
    {
      "name": "defaultMaterial",
      "primitives": [
        {
          "attributes": {
            "NORMAL": 156,
            "POSITION": 155,
            "TANGENT": 157,
            "TEXCOORD_0": 158
          },
          "indices": 159,
          "material": 0,
          "mode": 4
        }
      ]
    },
    {
      "name": "defaultMaterial",
      "primitives": [
        {
          "attributes": {
            "NORMAL": 161,
            "POSITION": 160,
            "TANGENT": 162,
            "TEXCOORD_0": 163
          },
          "indices": 164,
          "material": 0,
          "mode": 4
        }
      ]
    },
    {
      "name": "defaultMaterial",
      "primitives": [
        {
          "attributes": {
            "NORMAL": 166,
            "POSITION": 165,
            "TANGENT": 167,
            "TEXCOORD_0": 168
          },
          "indices": 169,
          "material": 0,
          "mode": 4
        }
      ]
    },
    {
      "name": "defaultMaterial",
      "primitives": [
        {
          "attributes": {
            "NORMAL": 171,
            "POSITION": 170,
            "TANGENT": 172,
            "TEXCOORD_0": 173
          },
          "indices": 174,
          "material": 1,
          "mode": 4
        }
      ]
    },
    {
      "name": "defaultMaterial",
      "primitives": [
        {
          "attributes": {
            "NORMAL": 176,
            "POSITION": 175,
            "TANGENT": 177,
            "TEXCOORD_0": 178
          },
          "indices": 179,
          "material": 1,
          "mode": 4
        }
      ]
    },
    {
      "name": "defaultMaterial",
      "primitives": [
        {
          "attributes": {
            "NORMAL": 181,
            "POSITION": 180,
            "TANGENT": 182,
            "TEXCOORD_0": 183
          },
          "indices": 184,
          "material": 0,
          "mode": 4
        }
      ]
    },
    {
      "name": "defaultMaterial",
      "primitives": [
        {
          "attributes": {
            "NORMAL": 186,
            "POSITION": 185,
            "TANGENT": 187,
            "TEXCOORD_0": 188
          },
          "indices": 189,
          "material": 0,
          "mode": 4
        }
      ]
    }
  ],
  "nodes": [
    {
      "children": [
        1
      ],
      "matrix": [
        1.0,
        0.0,
        0.0,
        0.0,
        0.0,
        2.220446049250313e-16,
        -1.0,
        0.0,
        0.0,
        1.0,
        2.220446049250313e-16,
        0.0,
        0.0,
        0.0,
        0.0,
        1.0
      ],
      "name": "Sketchfab_model"
    },
    {
      "children": [
        2,
        4,
        6,
        8,
        10,
        12,
        14,
        16,
        18,
        20,
        22,
        24,
        26,
        28,
        30,
        32,
        34,
        36,
        38,
        40,
        42,
        44,
        46,
        48,
        50,
        52,
        54,
        56,
        58,
        60,
        62,
        64,
        66,
        68,
        70,
        72,
        74,
        76
      ],
      "matrix": [
        1.0,
        0.0,
        0.0,
        0.0,
        0.0,
        -4.371139006309477e-08,
        0.999999999999999,
        0.0,
        0.0,
        -0.999999999999999,
        -4.371139006309477e-08,
        0.0,
        0.0,
        0.0,
        0.0,
        1.0
      ],
      "name": "Collada visual scene group"
    },
    {
      "children": [
        3
      ],
      "matrix": [
        100.0,
        0.0,
        0.0,
        0.0,
        0.0,
        -1.6e-05,
        -100.0,
        0.0,
        0.0,
        100.0,
        -1.6e-05,
        0.0,
        0.0,
        0.0,
        0.0,
        1.0
      ],
      "name": "Piston_Metal"
    },
    {
      "mesh": 0,
      "name": "defaultMaterial"
    },
    {
      "children": [
        5
      ],
      "matrix": [
        100.0,
        0.0,
        0.0,
        0.0,
        0.0,
        -1.6e-05,
        -100.0,
        0.0,
        0.0,
        100.0,
        -1.6e-05,
        0.0,
        0.0,
        0.0,
        0.0,
        1.0
      ],
      "name": "Body_Base_Metal"
    },
    {
      "mesh": 1,
      "name": "defaultMaterial"
    },
    {
      "children": [
        7
      ],
      "matrix": [
        100.0,
        0.0,
        0.0,
        0.0,
        0.0,
        -1.6e-05,
        -100.0,
        0.0,
        0.0,
        100.0,
        -1.6e-05,
        0.0,
        0.0,
        0.0,
        0.0,
        1.0
      ],
      "name": "Cog_Small"
    },
    {
      "mesh": 2,
      "name": "defaultMaterial"
    },
    {
      "children": [
        9
      ],
      "matrix": [
        100.0,
        0.0,
        0.0,
        0.0,
        0.0,
        -1.6e-05,
        -100.0,
        0.0,
        0.0,
        100.0,
        -1.6e-05,
        0.0,
        0.0,
        0.0,
        0.0,
        1.0
      ],
      "name": "Cog_Large"
    },
    {
      "mesh": 3,
      "name": "defaultMaterial"
    },
    {
      "children": [
        11
      ],
      "matrix": [
        100.0,
        0.0,
        0.0,
        0.0,
        0.0,
        -1.6e-05,
        -100.0,
        0.0,
        0.0,
        100.0,
        -1.6e-05,
        0.0,
        0.0,
        0.0,
        0.0,
        1.0
      ],
      "name": "Small_Wheels_Top"
    },
    {
      "mesh": 4,
      "name": "defaultMaterial"
    },
    {
      "children": [
        13
      ],
      "matrix": [
        100.0,
        0.0,
        0.0,
        0.0,
        0.0,
        -1.6e-05,
        -100.0,
        0.0,
        0.0,
        100.0,
        -1.6e-05,
        0.0,
        0.0,
        0.0,
        0.0,
        1.0
      ],
      "name": "Eye_Inner"
    },
    {
      "mesh": 5,
      "name": "defaultMaterial"
    },
    {
      "children": [
        15
      ],
      "matrix": [
        100.0,
        0.0,
        0.0,
        0.0,
        0.0,
        -1.6e-05,
        -100.0,
        0.0,
        0.0,
        100.0,
        -1.6e-05,
        0.0,
        0.0,
        0.0,
        0.0,
        1.0
      ],
      "name": "Eye_Ring"
    },
    {
      "mesh": 6,
      "name": "defaultMaterial"
    },
    {
      "children": [
        17
      ],
      "matrix": [
        100.0,
        0.0,
        0.0,
        0.0,
        0.0,
        -1.6e-05,
        -100.0,
        0.0,
        0.0,
        100.0,
        -1.6e-05,
        0.0,
        0.0,
        0.0,
        0.0,
        1.0
      ],
      "name": "Eye_Lenses"
    },
    {
      "mesh": 7,
      "name": "defaultMaterial"
    },
    {
      "children": [
        19
      ],
      "matrix": [
        100.0,
        0.0,
        0.0,
        0.0,
        0.0,
        -1.6e-05,
        -100.0,
        0.0,
        0.0,
        100.0,
        -1.6e-05,
        0.0,
        0.0,
        -1.765049,
        0.0,
        1.0
      ],
      "name": "Arm_Wrist_02"
    },
    {
      "mesh": 8,
      "name": "defaultMaterial"
    },
    {
      "children": [
        21
      ],
      "matrix": [
        100.0,
        0.0,
        0.0,
        0.0,
        0.0,
        -1.6e-05,
        -100.0,
        0.0,
        0.0,
        100.0,
        -1.6e-05,
        0.0,
        0.0,
        0.0,
        0.0,
        1.0
      ],
      "name": "Piston"
    },
    {
      "mesh": 9,
      "name": "defaultMaterial"
    },
    {
      "children": [
        23
      ],
      "matrix": [
        100.0,
        0.0,
        0.0,
        0.0,
        0.0,
        -1.6e-05,
        -100.0,
        0.0,
        0.0,
        100.0,
        -1.6e-05,
        0.0,
        0.0,
        0.0,
        0.0,
        1.0
      ],
      "name": "Rear_Flap"
    },
    {
      "mesh": 10,
      "name": "defaultMaterial"
    },
    {
      "children": [
        25
      ],
      "matrix": [
        100.0,
        0.0,
        0.0,
        0.0,
        0.0,
        -1.6e-05,
        -100.0,
        0.0,
        0.0,
        100.0,
        -1.6e-05,
        0.0,
        0.0,
        0.0,
        0.0,
        1.0
      ],
      "name": "Rear_Door"
    },
    {
      "mesh": 11,
      "name": "defaultMaterial"
    },
    {
      "children": [
        27
      ],
      "matrix": [
        100.0,
        0.0,
        0.0,
        0.0,
        0.0,
        -1.6e-05,
        -100.0,
        0.0,
        0.0,
        100.0,
        -1.6e-05,
        0.0,
        0.0,
        0.0,
        0.0,
        1.0
      ],
      "name": "Rear_Sides"
    },
    {
      "mesh": 12,
      "name": "defaultMaterial"
    },
    {
      "children": [
        29
      ],
      "matrix": [
        100.0,
        0.0,
        0.0,
        0.0,
        0.0,
        -1.6e-05,
        -100.0,
        0.0,
        0.0,
        100.0,
        -1.6e-05,
        0.0,
        0.0,
        0.0,
        0.0,
        1.0
      ],
      "name": "Legs"
    },
    {
      "mesh": 13,
      "name": "defaultMaterial"
    },
    {
      "children": [
        31
      ],
      "matrix": [
        100.0,
        0.0,
        0.0,
        0.0,
        0.0,
        -1.6e-05,
        -100.0,
        0.0,
        0.0,
        100.0,
        -1.6e-05,
        0.0,
        0.0,
        0.0,
        0.0,
        1.0
      ],
      "name": "Arm_Fingers_01"
    },
    {
      "mesh": 14,
      "name": "defaultMaterial"
    },
    {
      "children": [
        33
      ],
      "matrix": [
        100.0,
        0.0,
        0.0,
        0.0,
        0.0,
        -1.6e-05,
        -100.0,
        0.0,
        0.0,
        100.0,
        -1.6e-05,
        0.0,
        0.0,
        0.0,
        0.0,
        1.0
      ],
      "name": "Tread"
    },
    {
      "mesh": 15,
      "name": "defaultMaterial"
    },
    {
      "children": [
        35
      ],
      "matrix": [
        100.0,
        0.0,
        0.0,
        0.0,
        0.0,
        -1.6e-05,
        -100.0,
        0.0,
        0.0,
        100.0,
        -1.6e-05,
        0.0,
        0.0,
        0.0,
        0.0,
        1.0
      ],
      "name": "Wheel_Axel"
    },
    {
      "mesh": 16,
      "name": "defaultMaterial"
    },
    {
      "children": [
        37
      ],
      "matrix": [
        100.0,
        0.0,
        0.0,
        0.0,
        0.0,
        -1.6e-05,
        -100.0,
        0.0,
        0.0,
        100.0,
        -1.6e-05,
        0.0,
        0.0,
        0.0,
        0.0,
        1.0
      ],
      "name": "Wheely_Thing"
    },
    {
      "mesh": 17,
      "name": "defaultMaterial"
    },
    {
      "children": [
        39
      ],
      "matrix": [
        100.0,
        0.0,
        0.0,
        0.0,
        0.0,
        -1.6e-05,
        -100.0,
        0.0,
        0.0,
        100.0,
        -1.6e-05,
        0.0,
        0.0,
        0.0,
        0.0,
        1.0
      ],
      "name": "Base_Top_Panels"
    },
    {
      "mesh": 18,
      "name": "defaultMaterial"
    },
    {
      "children": [
        41
      ],
      "matrix": [
        100.0,
        0.0,
        0.0,
        0.0,
        0.0,
        -1.6e-05,
        -100.0,
        0.0,
        0.0,
        100.0,
        -1.6e-05,
        0.0,
        0.0,
        0.0,
        0.0,
        1.0
      ],
      "name": "Arm_Thumb"
    },
    {
      "mesh": 19,
      "name": "defaultMaterial"
    },
    {
      "children": [
        43
      ],
      "matrix": [
        100.0,
        0.0,
        0.0,
        0.0,
        0.0,
        -1.6e-05,
        -100.0,
        0.0,
        0.0,
        100.0,
        -1.6e-05,
        0.0,
        0.0,
        0.0,
        0.0,
        1.0
      ],
      "name": "Arm_Fingers_02"
    },
    {
      "mesh": 20,
      "name": "defaultMaterial"
    },
    {
      "children": [
        45
      ],
      "matrix": [
        100.0,
        0.0,
        0.0,
        0.0,
        0.0,
        -1.6e-05,
        -100.0,
        0.0,
        0.0,
        100.0,
        -1.6e-05,
        0.0,
        0.0,
        0.0,
        0.0,
        1.0
      ],
      "name": "Arm_Wrist_Hinge"
    },
    {
      "mesh": 21,
      "name": "defaultMaterial"
    },
    {
      "children": [
        47
      ],
      "matrix": [
        100.0,
        0.0,
        0.0,
        0.0,
        0.0,
        -1.6e-05,
        -100.0,
        0.0,
        0.0,
        100.0,
        -1.6e-05,
        0.0,
        0.0,
        0.0,
        0.0,
        1.0
      ],
      "name": "Arm_Wrist"
    },
    {
      "mesh": 22,
      "name": "defaultMaterial"
    },
    {
      "children": [
        49
      ],
      "matrix": [
        100.0,
        0.0,
        0.0,
        0.0,
        0.0,
        -1.6e-05,
        -100.0,
        0.0,
        0.0,
        100.0,
        -1.6e-05,
        0.0,
        0.0,
        0.0,
        0.0,
        1.0
      ],
      "name": "Arm_Elbow"
    },
    {
      "mesh": 23,
      "name": "defaultMaterial"
    },
    {
      "children": [
        51
      ],
      "matrix": [
        100.0,
        0.0,
        0.0,
        0.0,
        0.0,
        -1.6e-05,
        -100.0,
        0.0,
        0.0,
        100.0,
        -1.6e-05,
        0.0,
        0.0,
        0.0,
        0.0,
        1.0
      ],
      "name": "Arm_Base"
    },
    {
      "mesh": 24,
      "name": "defaultMaterial"
    },
    {
      "children": [
        53
      ],
      "matrix": [
        100.0,
        0.0,
        0.0,
        0.0,
        0.0,
        -1.6e-05,
        -100.0,
        0.0,
        0.0,
        100.0,
        -1.6e-05,
        0.0,
        0.0,
        0.0,
        0.0,
        1.0
      ],
      "name": "Arm_Forearm"
    },
    {
      "mesh": 25,
      "name": "defaultMaterial"
    },
    {
      "children": [
        55
      ],
      "matrix": [
        100.0,
        0.0,
        0.0,
        0.0,
        0.0,
        -1.6e-05,
        -100.0,
        0.0,
        0.0,
        100.0,
        -1.6e-05,
        0.0,
        0.0,
        0.0,
        0.0,
        1.0
      ],
      "name": "Buttons"
    },
    {
      "mesh": 26,
      "name": "defaultMaterial"
    },
    {
      "children": [
        57
      ],
      "matrix": [
        100.0,
        0.0,
        0.0,
        0.0,
        0.0,
        -1.6e-05,
        -100.0,
        0.0,
        0.0,
        100.0,
        -1.6e-05,
        0.0,
        0.0,
        -0.420135,
        0.0,
        1.0
      ],
      "name": "Button_Panel"
    },
    {
      "mesh": 27,
      "name": "defaultMaterial"
    },
    {
      "children": [
        59
      ],
      "matrix": [
        100.0,
        0.0,
        0.0,
        0.0,
        0.0,
        -1.6e-05,
        -100.0,
        0.0,
        0.0,
        100.0,
        -1.6e-05,
        0.0,
        0.0,
        0.0,
        0.0,
        1.0
      ],
      "name": "Neck"
    },
    {
      "mesh": 28,
      "name": "defaultMaterial"
    },
    {
      "children": [
        61
      ],
      "matrix": [
        100.0,
        0.0,
        0.0,
        0.0,
        0.0,
        -1.6e-05,
        -100.0,
        0.0,
        0.0,
        100.0,
        -1.6e-05,
        0.0,
        0.0,
        0.0,
        0.0,
        1.0
      ],
      "name": "Cables"
    },
    {
      "mesh": 29,
      "name": "defaultMaterial"
    },
    {
      "children": [
        63
      ],
      "matrix": [
        100.0,
        0.0,
        0.0,
        0.0,
        0.0,
        -1.6e-05,
        -100.0,
        0.0,
        0.0,
        100.0,
        -1.6e-05,
        0.0,
        0.0,
        0.0,
        0.0,
        1.0
      ],
      "name": "Cylinder"
    },
    {
      "mesh": 30,
      "name": "defaultMaterial"
    },
    {
      "children": [
        65
      ],
      "matrix": [
        100.0,
        0.0,
        0.0,
        0.0,
        0.0,
        -1.6e-05,
        -100.0,
        0.0,
        0.0,
        100.0,
        -1.6e-05,
        0.0,
        0.0,
        0.0,
        0.0,
        1.0
      ],
      "name": "Head_Rear_Bottom"
    },
    {
      "mesh": 31,
      "name": "defaultMaterial"
    },
    {
      "children": [
        67
      ],
      "matrix": [
        100.0,
        0.0,
        0.0,
        0.0,
        0.0,
        -1.6e-05,
        -100.0,
        0.0,
        0.0,
        100.0,
        -1.6e-05,
        0.0,
        0.0,
        0.0,
        0.0,
        1.0
      ],
      "name": "Head_Rear"
    },
    {
      "mesh": 32,
      "name": "defaultMaterial"
    },
    {
      "children": [
        69
      ],
      "matrix": [
        100.0,
        0.0,
        0.0,
        0.0,
        0.0,
        -1.6e-05,
        -100.0,
        0.0,
        0.0,
        100.0,
        -1.6e-05,
        0.0,
        0.0,
        0.0,
        0.0,
        1.0
      ],
      "name": "Head_Goggles"
    },
    {
      "mesh": 33,
      "name": "defaultMaterial"
    },
    {
      "children": [
        71
      ],
      "matrix": [
        100.0,
        0.0,
        0.0,
        0.0,
        0.0,
        -1.6e-05,
        -100.0,
        0.0,
        0.0,
        100.0,
        -1.6e-05,
        0.0,
        0.0,
        0.0,
        0.0,
        1.0
      ],
      "name": "Base_Side_Panel"
    },
    {
      "mesh": 34,
      "name": "defaultMaterial"
    },
    {
      "children": [
        73
      ],
      "matrix": [
        100.0,
        0.0,
        0.0,
        0.0,
        0.0,
        -1.6e-05,
        -100.0,
        0.0,
        0.0,
        100.0,
        -1.6e-05,
        0.0,
        0.0,
        0.0,
        0.0,
        1.0
      ],
      "name": "Body_Base"
    },
    {
      "mesh": 35,
      "name": "defaultMaterial"
    },
    {
      "children": [
        75
      ],
      "matrix": [
        100.0,
        0.0,
        0.0,
        0.0,
        0.0,
        -1.6e-05,
        -100.0,
        0.0,
        0.0,
        100.0,
        -1.6e-05,
        0.0,
        0.0,
        0.0,
        0.0,
        1.0
      ],
      "name": "Base_Trimming_Top"
    },
    {
      "mesh": 36,
      "name": "defaultMaterial"
    },
    {
      "children": [
        77
      ],
      "matrix": [
        100.0,
        0.0,
        0.0,
        0.0,
        0.0,
        -1.6e-05,
        -100.0,
        0.0,
        0.0,
        100.0,
        -1.6e-05,
        0.0,
        0.0,
        0.0,
        0.0,
        1.0
      ],
      "name": "Base_Trimming_Bot"
    },
    {
      "mesh": 37,
      "name": "defaultMaterial"
    }
  ],
  "samplers": [
    {
      "magFilter": 9729,
      "minFilter": 9987,
      "wrapS": 10497,
      "wrapT": 10497
    }
  ],
  "scene": 0,
  "scenes": [
    {
      "name": "Sketchfab_Scene",
      "nodes": [
        0
      ]
    }
  ],
  "textures": [
    {
      "sampler": 0,
      "source": 0
    },
    {
      "sampler": 0,
      "source": 1
    },
    {
      "sampler": 0,
      "source": 2
    },
    {
      "sampler": 0,
      "source": 3
    },
    {
      "sampler": 0,
      "source": 4
    },
    {
      "sampler": 0,
      "source": 5
    },
    {
      "sampler": 0,
      "source": 6
    },
    {
      "sampler": 0,
      "source": 7
    },
    {
      "sampler": 0,
      "source": 8
    }
  ]
}
