{
  "asset": {
    "version": "2.0",
    "generator": "Sky Blue Material Grid"
  },
  "scene": 0,
  "scenes": [
    {
      "name": "5x5 sky-blue material grid in purple box",
      "nodes": [
        0,
        1,
        2,
        3,
        4,
        5,
        6,
        7,
        8,
        9,
        10,
        11,
        12,
        13,
        14,
        15,
        16,
        17,
        18,
        19,
        20,
        21,
        22,
        23,
        24,
        25,
        26
      ]
    }
  ],
  "nodes": [
    {
      "name": "Cube_r1_c1_roughness_0.00_metallic_1.00",
      "mesh": 0,
      "translation": [
        -2,
        2,
        -1
      ]
    },
    {
      "name": "Cube_r1_c2_roughness_0.25_metallic_1.00",
      "mesh": 1,
      "translation": [
        -1,
        2,
        -1
      ]
    },
    {
      "name": "Cube_r1_c3_roughness_0.50_metallic_1.00",
      "mesh": 2,
      "translation": [
        0,
        2,
        -1
      ]
    },
    {
      "name": "Cube_r1_c4_roughness_0.75_metallic_1.00",
      "mesh": 3,
      "translation": [
        1,
        2,
        -1
      ]
    },
    {
      "name": "Cube_r1_c5_roughness_1.00_metallic_1.00",
      "mesh": 4,
      "translation": [
        2,
        2,
        -1
      ]
    },
    {
      "name": "Cube_r2_c1_roughness_0.00_metallic_0.75",
      "mesh": 5,
      "translation": [
        -2,
        1,
        -1
      ]
    },
    {
      "name": "Cube_r2_c2_roughness_0.25_metallic_0.75",
      "mesh": 6,
      "translation": [
        -1,
        1,
        -1
      ]
    },
    {
      "name": "Cube_r2_c3_roughness_0.50_metallic_0.75",
      "mesh": 7,
      "translation": [
        0,
        1,
        -1
      ]
    },
    {
      "name": "Cube_r2_c4_roughness_0.75_metallic_0.75",
      "mesh": 8,
      "translation": [
        1,
        1,
        -1
      ]
    },
    {
      "name": "Cube_r2_c5_roughness_1.00_metallic_0.75",
      "mesh": 9,
      "translation": [
        2,
        1,
        -1
      ]
    },
    {
      "name": "Cube_r3_c1_roughness_0.00_metallic_0.50",
      "mesh": 10,
      "translation": [
        -2,
        0,
        -1
      ]
    },
    {
      "name": "Cube_r3_c2_roughness_0.25_metallic_0.50",
      "mesh": 11,
      "translation": [
        -1,
        0,
        -1
      ]
    },
    {
      "name": "Cube_r3_c3_roughness_0.50_metallic_0.50",
      "mesh": 12,
      "translation": [
        0,
        0,
        -1
      ]
    },
    {
      "name": "Cube_r3_c4_roughness_0.75_metallic_0.50",
      "mesh": 13,
      "translation": [
        1,
        0,
        -1
      ]
    },
    {
      "name": "Cube_r3_c5_roughness_1.00_metallic_0.50",
      "mesh": 14,
      "translation": [
        2,
        0,
        -1
      ]
    },
    {
      "name": "Cube_r4_c1_roughness_0.00_metallic_0.25",
      "mesh": 15,
      "translation": [
        -2,
        -1,
        -1
      ]
    },
    {
      "name": "Cube_r4_c2_roughness_0.25_metallic_0.25",
      "mesh": 16,
      "translation": [
        -1,
        -1,
        -1
      ]
    },
    {
      "name": "Cube_r4_c3_roughness_0.50_metallic_0.25",
      "mesh": 17,
      "translation": [
        0,
        -1,
        -1
      ]
    },
    {
      "name": "Cube_r4_c4_roughness_0.75_metallic_0.25",
      "mesh": 18,
      "translation": [
        1,
        -1,
        -1
      ]
    },
    {
      "name": "Cube_r4_c5_roughness_1.00_metallic_0.25",
      "mesh": 19,
      "translation": [
        2,
        -1,
        -1
      ]
    },
    {
      "name": "Cube_r5_c1_roughness_0.00_metallic_0.00",
      "mesh": 20,
      "translation": [
        -2,
        -2,
        -1
      ]
    },
    {
      "name": "Cube_r5_c2_roughness_0.25_metallic_0.00",
      "mesh": 21,
      "translation": [
        -1,
        -2,
        -1
      ]
    },
    {
      "name": "Cube_r5_c3_roughness_0.50_metallic_0.00",
      "mesh": 22,
      "translation": [
        0,
        -2,
        -1
      ]
    },
    {
      "name": "Cube_r5_c4_roughness_0.75_metallic_0.00",
      "mesh": 23,
      "translation": [
        1,
        -2,
        -1
      ]
    },
    {
      "name": "Cube_r5_c5_roughness_1.00_metallic_0.00",
      "mesh": 24,
      "translation": [
        2,
        -2,
        -1
      ]
    },
    {
      "name": "Warm gray enclosure inward-facing interior",
      "mesh": 25,
      "scale": [
        1.5,
        1.5,
        1.5
      ],
      "translation": [
        0,
        0,
        -1
      ]
    },
    {
      "name": "Camera",
      "camera": 0,
      "translation": [
        0,
        0,
        3
      ]
    }
  ],
  "meshes": [
    {
      "name": "Cube_r1_c1_roughness_0.00_metallic_1.00",
      "primitives": [
        {
          "attributes": {
            "POSITION": 0,
            "NORMAL": 1,
            "TEXCOORD_0": 2
          },
          "indices": 3,
          "mode": 4,
          "material": 0
        }
      ]
    },
    {
      "name": "Cube_r1_c2_roughness_0.25_metallic_1.00",
      "primitives": [
        {
          "attributes": {
            "POSITION": 0,
            "NORMAL": 1,
            "TEXCOORD_0": 2
          },
          "indices": 3,
          "mode": 4,
          "material": 1
        }
      ]
    },
    {
      "name": "Cube_r1_c3_roughness_0.50_metallic_1.00",
      "primitives": [
        {
          "attributes": {
            "POSITION": 0,
            "NORMAL": 1,
            "TEXCOORD_0": 2
          },
          "indices": 3,
          "mode": 4,
          "material": 2
        }
      ]
    },
    {
      "name": "Cube_r1_c4_roughness_0.75_metallic_1.00",
      "primitives": [
        {
          "attributes": {
            "POSITION": 0,
            "NORMAL": 1,
            "TEXCOORD_0": 2
          },
          "indices": 3,
          "mode": 4,
          "material": 3
        }
      ]
    },
    {
      "name": "Cube_r1_c5_roughness_1.00_metallic_1.00",
      "primitives": [
        {
          "attributes": {
            "POSITION": 0,
            "NORMAL": 1,
            "TEXCOORD_0": 2
          },
          "indices": 3,
          "mode": 4,
          "material": 4
        }
      ]
    },
    {
      "name": "Cube_r2_c1_roughness_0.00_metallic_0.75",
      "primitives": [
        {
          "attributes": {
            "POSITION": 0,
            "NORMAL": 1,
            "TEXCOORD_0": 2
          },
          "indices": 3,
          "mode": 4,
          "material": 5
        }
      ]
    },
    {
      "name": "Cube_r2_c2_roughness_0.25_metallic_0.75",
      "primitives": [
        {
          "attributes": {
            "POSITION": 0,
            "NORMAL": 1,
            "TEXCOORD_0": 2
          },
          "indices": 3,
          "mode": 4,
          "material": 6
        }
      ]
    },
    {
      "name": "Cube_r2_c3_roughness_0.50_metallic_0.75",
      "primitives": [
        {
          "attributes": {
            "POSITION": 0,
            "NORMAL": 1,
            "TEXCOORD_0": 2
          },
          "indices": 3,
          "mode": 4,
          "material": 7
        }
      ]
    },
    {
      "name": "Cube_r2_c4_roughness_0.75_metallic_0.75",
      "primitives": [
        {
          "attributes": {
            "POSITION": 0,
            "NORMAL": 1,
            "TEXCOORD_0": 2
          },
          "indices": 3,
          "mode": 4,
          "material": 8
        }
      ]
    },
    {
      "name": "Cube_r2_c5_roughness_1.00_metallic_0.75",
      "primitives": [
        {
          "attributes": {
            "POSITION": 0,
            "NORMAL": 1,
            "TEXCOORD_0": 2
          },
          "indices": 3,
          "mode": 4,
          "material": 9
        }
      ]
    },
    {
      "name": "Cube_r3_c1_roughness_0.00_metallic_0.50",
      "primitives": [
        {
          "attributes": {
            "POSITION": 0,
            "NORMAL": 1,
            "TEXCOORD_0": 2
          },
          "indices": 3,
          "mode": 4,
          "material": 10
        }
      ]
    },
    {
      "name": "Cube_r3_c2_roughness_0.25_metallic_0.50",
      "primitives": [
        {
          "attributes": {
            "POSITION": 0,
            "NORMAL": 1,
            "TEXCOORD_0": 2
          },
          "indices": 3,
          "mode": 4,
          "material": 11
        }
      ]
    },
    {
      "name": "Cube_r3_c3_roughness_0.50_metallic_0.50",
      "primitives": [
        {
          "attributes": {
            "POSITION": 0,
            "NORMAL": 1,
            "TEXCOORD_0": 2
          },
          "indices": 3,
          "mode": 4,
          "material": 12
        }
      ]
    },
    {
      "name": "Cube_r3_c4_roughness_0.75_metallic_0.50",
      "primitives": [
        {
          "attributes": {
            "POSITION": 0,
            "NORMAL": 1,
            "TEXCOORD_0": 2
          },
          "indices": 3,
          "mode": 4,
          "material": 13
        }
      ]
    },
    {
      "name": "Cube_r3_c5_roughness_1.00_metallic_0.50",
      "primitives": [
        {
          "attributes": {
            "POSITION": 0,
            "NORMAL": 1,
            "TEXCOORD_0": 2
          },
          "indices": 3,
          "mode": 4,
          "material": 14
        }
      ]
    },
    {
      "name": "Cube_r4_c1_roughness_0.00_metallic_0.25",
      "primitives": [
        {
          "attributes": {
            "POSITION": 0,
            "NORMAL": 1,
            "TEXCOORD_0": 2
          },
          "indices": 3,
          "mode": 4,
          "material": 15
        }
      ]
    },
    {
      "name": "Cube_r4_c2_roughness_0.25_metallic_0.25",
      "primitives": [
        {
          "attributes": {
            "POSITION": 0,
            "NORMAL": 1,
            "TEXCOORD_0": 2
          },
          "indices": 3,
          "mode": 4,
          "material": 16
        }
      ]
    },
    {
      "name": "Cube_r4_c3_roughness_0.50_metallic_0.25",
      "primitives": [
        {
          "attributes": {
            "POSITION": 0,
            "NORMAL": 1,
            "TEXCOORD_0": 2
          },
          "indices": 3,
          "mode": 4,
          "material": 17
        }
      ]
    },
    {
      "name": "Cube_r4_c4_roughness_0.75_metallic_0.25",
      "primitives": [
        {
          "attributes": {
            "POSITION": 0,
            "NORMAL": 1,
            "TEXCOORD_0": 2
          },
          "indices": 3,
          "mode": 4,
          "material": 18
        }
      ]
    },
    {
      "name": "Cube_r4_c5_roughness_1.00_metallic_0.25",
      "primitives": [
        {
          "attributes": {
            "POSITION": 0,
            "NORMAL": 1,
            "TEXCOORD_0": 2
          },
          "indices": 3,
          "mode": 4,
          "material": 19
        }
      ]
    },
    {
      "name": "Cube_r5_c1_roughness_0.00_metallic_0.00",
      "primitives": [
        {
          "attributes": {
            "POSITION": 0,
            "NORMAL": 1,
            "TEXCOORD_0": 2
          },
          "indices": 3,
          "mode": 4,
          "material": 20
        }
      ]
    },
    {
      "name": "Cube_r5_c2_roughness_0.25_metallic_0.00",
      "primitives": [
        {
          "attributes": {
            "POSITION": 0,
            "NORMAL": 1,
            "TEXCOORD_0": 2
          },
          "indices": 3,
          "mode": 4,
          "material": 21
        }
      ]
    },
    {
      "name": "Cube_r5_c3_roughness_0.50_metallic_0.00",
      "primitives": [
        {
          "attributes": {
            "POSITION": 0,
            "NORMAL": 1,
            "TEXCOORD_0": 2
          },
          "indices": 3,
          "mode": 4,
          "material": 22
        }
      ]
    },
    {
      "name": "Cube_r5_c4_roughness_0.75_metallic_0.00",
      "primitives": [
        {
          "attributes": {
            "POSITION": 0,
            "NORMAL": 1,
            "TEXCOORD_0": 2
          },
          "indices": 3,
          "mode": 4,
          "material": 23
        }
      ]
    },
    {
      "name": "Cube_r5_c5_roughness_1.00_metallic_0.00",
      "primitives": [
        {
          "attributes": {
            "POSITION": 0,
            "NORMAL": 1,
            "TEXCOORD_0": 2
          },
          "indices": 3,
          "mode": 4,
          "material": 24
        }
      ]
    },
    {
      "name": "Purple box inward-facing interior",
      "primitives": [
        {
          "attributes": {
            "POSITION": 4,
            "NORMAL": 5,
            "TEXCOORD_0": 6
          },
          "indices": 7,
          "mode": 4,
          "material": 25
        }
      ]
    }
  ],
  "materials": [
    {
      "name": "Cube_r1_c1_roughness_0.00_metallic_1.00",
      "pbrMetallicRoughness": {
        "baseColorFactor": [
          0,
          0.23,
          0.43,
          1
        ],
        "roughnessFactor": 0.0,
        "metallicFactor": 1.0
      }
    },
    {
      "name": "Cube_r1_c2_roughness_0.25_metallic_1.00",
      "pbrMetallicRoughness": {
        "baseColorFactor": [
          0,
          0.23,
          0.43,
          1
        ],
        "roughnessFactor": 0.25,
        "metallicFactor": 1.0
      }
    },
    {
      "name": "Cube_r1_c3_roughness_0.50_metallic_1.00",
      "pbrMetallicRoughness": {
        "baseColorFactor": [
          0,
          0.23,
          0.43,
          1
        ],
        "roughnessFactor": 0.5,
        "metallicFactor": 1.0
      }
    },
    {
      "name": "Cube_r1_c4_roughness_0.75_metallic_1.00",
      "pbrMetallicRoughness": {
        "baseColorFactor": [
          0,
          0.23,
          0.43,
          1
        ],
        "roughnessFactor": 0.75,
        "metallicFactor": 1.0
      }
    },
    {
      "name": "Cube_r1_c5_roughness_1.00_metallic_1.00",
      "pbrMetallicRoughness": {
        "baseColorFactor": [
          0,
          0.23,
          0.43,
          1
        ],
        "roughnessFactor": 1.0,
        "metallicFactor": 1.0
      }
    },
    {
      "name": "Cube_r2_c1_roughness_0.00_metallic_0.75",
      "pbrMetallicRoughness": {
        "baseColorFactor": [
          0,
          0.23,
          0.43,
          1
        ],
        "roughnessFactor": 0.0,
        "metallicFactor": 0.75
      }
    },
    {
      "name": "Cube_r2_c2_roughness_0.25_metallic_0.75",
      "pbrMetallicRoughness": {
        "baseColorFactor": [
          0,
          0.23,
          0.43,
          1
        ],
        "roughnessFactor": 0.25,
        "metallicFactor": 0.75
      }
    },
    {
      "name": "Cube_r2_c3_roughness_0.50_metallic_0.75",
      "pbrMetallicRoughness": {
        "baseColorFactor": [
          0,
          0.23,
          0.43,
          1
        ],
        "roughnessFactor": 0.5,
        "metallicFactor": 0.75
      }
    },
    {
      "name": "Cube_r2_c4_roughness_0.75_metallic_0.75",
      "pbrMetallicRoughness": {
        "baseColorFactor": [
          0,
          0.23,
          0.43,
          1
        ],
        "roughnessFactor": 0.75,
        "metallicFactor": 0.75
      }
    },
    {
      "name": "Cube_r2_c5_roughness_1.00_metallic_0.75",
      "pbrMetallicRoughness": {
        "baseColorFactor": [
          0,
          0.23,
          0.43,
          1
        ],
        "roughnessFactor": 1.0,
        "metallicFactor": 0.75
      }
    },
    {
      "name": "Cube_r3_c1_roughness_0.00_metallic_0.50",
      "pbrMetallicRoughness": {
        "baseColorFactor": [
          0,
          0.23,
          0.43,
          1
        ],
        "roughnessFactor": 0.0,
        "metallicFactor": 0.5
      }
    },
    {
      "name": "Cube_r3_c2_roughness_0.25_metallic_0.50",
      "pbrMetallicRoughness": {
        "baseColorFactor": [
          0,
          0.23,
          0.43,
          1
        ],
        "roughnessFactor": 0.25,
        "metallicFactor": 0.5
      }
    },
    {
      "name": "Cube_r3_c3_roughness_0.50_metallic_0.50",
      "pbrMetallicRoughness": {
        "baseColorFactor": [
          0,
          0.23,
          0.43,
          1
        ],
        "roughnessFactor": 0.5,
        "metallicFactor": 0.5
      }
    },
    {
      "name": "Cube_r3_c4_roughness_0.75_metallic_0.50",
      "pbrMetallicRoughness": {
        "baseColorFactor": [
          0,
          0.23,
          0.43,
          1
        ],
        "roughnessFactor": 0.75,
        "metallicFactor": 0.5
      }
    },
    {
      "name": "Cube_r3_c5_roughness_1.00_metallic_0.50",
      "pbrMetallicRoughness": {
        "baseColorFactor": [
          0,
          0.23,
          0.43,
          1
        ],
        "roughnessFactor": 1.0,
        "metallicFactor": 0.5
      }
    },
    {
      "name": "Cube_r4_c1_roughness_0.00_metallic_0.25",
      "pbrMetallicRoughness": {
        "baseColorFactor": [
          0,
          0.23,
          0.43,
          1
        ],
        "roughnessFactor": 0.0,
        "metallicFactor": 0.25
      }
    },
    {
      "name": "Cube_r4_c2_roughness_0.25_metallic_0.25",
      "pbrMetallicRoughness": {
        "baseColorFactor": [
          0,
          0.23,
          0.43,
          1
        ],
        "roughnessFactor": 0.25,
        "metallicFactor": 0.25
      }
    },
    {
      "name": "Cube_r4_c3_roughness_0.50_metallic_0.25",
      "pbrMetallicRoughness": {
        "baseColorFactor": [
          0,
          0.23,
          0.43,
          1
        ],
        "roughnessFactor": 0.5,
        "metallicFactor": 0.25
      }
    },
    {
      "name": "Cube_r4_c4_roughness_0.75_metallic_0.25",
      "pbrMetallicRoughness": {
        "baseColorFactor": [
          0,
          0.23,
          0.43,
          1
        ],
        "roughnessFactor": 0.75,
        "metallicFactor": 0.25
      }
    },
    {
      "name": "Cube_r4_c5_roughness_1.00_metallic_0.25",
      "pbrMetallicRoughness": {
        "baseColorFactor": [
          0,
          0.23,
          0.43,
          1
        ],
        "roughnessFactor": 1.0,
        "metallicFactor": 0.25
      }
    },
    {
      "name": "Cube_r5_c1_roughness_0.00_metallic_0.00",
      "pbrMetallicRoughness": {
        "baseColorFactor": [
          0,
          0.23,
          0.43,
          1
        ],
        "roughnessFactor": 0.0,
        "metallicFactor": 0.0
      }
    },
    {
      "name": "Cube_r5_c2_roughness_0.25_metallic_0.00",
      "pbrMetallicRoughness": {
        "baseColorFactor": [
          0,
          0.23,
          0.43,
          1
        ],
        "roughnessFactor": 0.25,
        "metallicFactor": 0.0
      }
    },
    {
      "name": "Cube_r5_c3_roughness_0.50_metallic_0.00",
      "pbrMetallicRoughness": {
        "baseColorFactor": [
          0,
          0.23,
          0.43,
          1
        ],
        "roughnessFactor": 0.5,
        "metallicFactor": 0.0
      }
    },
    {
      "name": "Cube_r5_c4_roughness_0.75_metallic_0.00",
      "pbrMetallicRoughness": {
        "baseColorFactor": [
          0,
          0.23,
          0.43,
          1
        ],
        "roughnessFactor": 0.75,
        "metallicFactor": 0.0
      }
    },
    {
      "name": "Cube_r5_c5_roughness_1.00_metallic_0.00",
      "pbrMetallicRoughness": {
        "baseColorFactor": [
          0,
          0.23,
          0.43,
          1
        ],
        "roughnessFactor": 1.0,
        "metallicFactor": 0.0
      }
    },
    {
      "name": "Matte warm gray enclosure",
      "pbrMetallicRoughness": {
        "baseColorFactor": [
          0.3,
          0.28,
          0.26,
          1
        ],
        "roughnessFactor": 1,
        "metallicFactor": 0
      },
      "doubleSided": true
    }
  ],
  "accessors": [
    {
      "bufferView": 0,
      "componentType": 5126,
      "count": 24,
      "type": "VEC3",
      "min": [
        -0.5,
        -0.5,
        -0.5
      ],
      "max": [
        0.5,
        0.5,
        0.5
      ]
    },
    {
      "bufferView": 1,
      "componentType": 5126,
      "count": 24,
      "type": "VEC3",
      "min": [
        -1,
        -1,
        -1
      ],
      "max": [
        1,
        1,
        1
      ]
    },
    {
      "bufferView": 2,
      "componentType": 5126,
      "count": 24,
      "type": "VEC2"
    },
    {
      "bufferView": 3,
      "componentType": 5123,
      "count": 36,
      "type": "SCALAR"
    },
    {
      "bufferView": 4,
      "componentType": 5126,
      "count": 24,
      "type": "VEC3",
      "min": [
        -3.5,
        -3.5,
        -2
      ],
      "max": [
        3.5,
        3.5,
        6
      ]
    },
    {
      "bufferView": 5,
      "componentType": 5126,
      "count": 24,
      "type": "VEC3",
      "min": [
        -1,
        -1,
        -1
      ],
      "max": [
        1,
        1,
        1
      ]
    },
    {
      "bufferView": 6,
      "componentType": 5126,
      "count": 24,
      "type": "VEC2"
    },
    {
      "bufferView": 7,
      "componentType": 5123,
      "count": 36,
      "type": "SCALAR"
    }
  ],
  "bufferViews": [
    {
      "buffer": 0,
      "byteOffset": 0,
      "byteLength": 288,
      "target": 34962
    },
    {
      "buffer": 0,
      "byteOffset": 288,
      "byteLength": 288,
      "target": 34962
    },
    {
      "buffer": 0,
      "byteOffset": 576,
      "byteLength": 192,
      "target": 34962
    },
    {
      "buffer": 0,
      "byteOffset": 768,
      "byteLength": 72,
      "target": 34963
    },
    {
      "buffer": 0,
      "byteOffset": 840,
      "byteLength": 288,
      "target": 34962
    },
    {
      "buffer": 0,
      "byteOffset": 1128,
      "byteLength": 288,
      "target": 34962
    },
    {
      "buffer": 0,
      "byteOffset": 1416,
      "byteLength": 192,
      "target": 34962
    },
    {
      "buffer": 0,
      "byteOffset": 1608,
      "byteLength": 72,
      "target": 34963
    }
  ],
  "cameras": [
    {
      "name": "Front view inside enclosure",
      "type": "perspective",
      "perspective": {
        "yfov": 1.5707963267948966,
        "aspectRatio": 1,
        "znear": 0.01,
        "zfar": 100
      }
    }
  ],
  "extras": {
    "grid": {
      "rows": 5,
      "columns": 5,
      "cubeSideLength": 1,
      "gap": 0,
      "roughness": "0 to 1 left to right",
      "metallic": "1 to 0 top to bottom",
      "center": [
        0,
        0,
        -1
      ]
    },
    "rendererIntegration": {
      "light": "Reuse rectangle appended by optixSetup.cpp; do not add duplicate geometry.",
      "lightVertices": [
        [
          -2,
          3,
          1
        ],
        [
          2,
          3,
          1
        ],
        [
          2,
          3,
          5
        ],
        [
          -2,
          3,
          5
        ]
      ],
      "lightColor": [
        1,
        1,
        1
      ],
      "requiredLightEmittance": 5,
      "cameraPosition": [
        0,
        0,
        3
      ],
      "cameraLookAt": [
        0,
        0,
        0
      ],
      "cameraUp": [
        0,
        1,
        0
      ],
      "cameraFovYDegrees": 90,
      "note": "Current renderer treats JSON FOVY as a half-angle. Keep EYE [0,0,3], LOOKAT [0,0,0], UP [0,1,0], FOVY 45. glTF camera is not imported. Restore lightMaterial.emittance to 5 in main.cpp.",
      "sceneJsonFOVY": 45
    },
    "enclosure": {
      "boundsMin": [
        -5.25,
        -5.25,
        -4
      ],
      "boundsMax": [
        5.25,
        5.25,
        8
      ],
      "dimensions": [
        10.5,
        10.5,
        12
      ],
      "baseColor": [
        0.3,
        0.28,
        0.26
      ]
    }
  },
  "buffers": [
    {
      "byteLength": 1680,
      "uri": "data:application/octet-stream;base64,"
    }
  ]
}
