{
  "accessors": [
    {
      "bufferView": 2,
      "componentType": 5126,
      "count": 1938,
      "max": [
        2.294830560684204,
        12.928442001342773,
        10.230606079101563
      ],
      "min": [
        -34.26774597167969,
        -17.415729522705078,
        -22.06999969482422
      ],
      "type": "VEC3"
    },
    {
      "bufferView": 2,
      "byteOffset": 23256,
      "componentType": 5126,
      "count": 1938,
      "max": [
        0.999678373336792,
        0.9991978406906128,
        0.99567049741745
      ],
      "min": [
        -0.9996492266654968,
        -0.9991399049758911,
        -0.9995037317276001
      ],
      "type": "VEC3"
    },
    {
      "bufferView": 1,
      "componentType": 5126,
      "count": 1938,
      "max": [
        0.9876209497451782,
        1.0014886856079102
      ],
      "min": [
        0.25135186314582825,
        0.0
      ],
      "type": "VEC2"
    },
    {
      "bufferView": 0,
      "componentType": 5125,
      "count": 8688,
      "type": "SCALAR"
    }
  ],
  "asset": {
    "extras": {
      "author": "Stopapypa (https://sketchfab.com/Stopapypa)",
      "license": "CC-BY-4.0 (http://creativecommons.org/licenses/by/4.0/)",
      "source": "https://sketchfab.com/3d-models/spheal-pokemon-05815c4e8d714690bbb615588585d941",
      "title": "Spheal Pokemon"
    },
    "generator": "Sketchfab-15.26.0",
    "version": "2.0"
  },
  "bufferViews": [
    {
      "buffer": 0,
      "byteLength": 34752,
      "name": "floatBufferViews",
      "target": 34963
    },
    {
      "buffer": 0,
      "byteLength": 15504,
      "byteOffset": 34752,
      "byteStride": 8,
      "name": "floatBufferViews",
      "target": 34962
    },
    {
      "buffer": 0,
      "byteLength": 46512,
      "byteOffset": 50256,
      "byteStride": 12,
      "name": "floatBufferViews",
      "target": 34962
    }
  ],
  "buffers": [
    {
      "byteLength": 96768,
      "uri": "scene.bin"
    }
  ],
  "images": [
    {
      "uri": "textures/puzo_i_nos_baseColor.png"
    }
  ],
  "materials": [
    {
      "doubleSided": true,
      "emissiveFactor": [
        0.228572125172191,
        0.228572125172191,
        0.228572125172191
      ],
      "emissiveTexture": {
        "index": 0
      },
      "name": "puzo_i_nos",
      "pbrMetallicRoughness": {
        "baseColorTexture": {
          "index": 0
        },
        "metallicFactor": 0.0,
        "roughnessFactor": 0.5
      }
    }
  ],
  "meshes": [
    {
      "name": "Object_0",
      "primitives": [
        {
          "attributes": {
            "NORMAL": 1,
            "POSITION": 0,
            "TEXCOORD_0": 2
          },
          "indices": 3,
          "material": 0,
          "mode": 4
        }
      ]
    }
  ],
  "nodes": [
    {
      "children": [
        1
      ],
      "matrix": [
        1.0,
        0.0,
        0.0,
        0.0,
        0.0,
        2.220446049250313e-16,
        -1.0,
        0.0,
        0.0,
        1.0,
        2.220446049250313e-16,
        0.0,
        0.0,
        0.0,
        0.0,
        1.0
      ],
      "name": "Sketchfab_model"
    },
    {
      "children": [
        2
      ],
      "name": "root"
    },
    {
      "children": [
        3
      ],
      "matrix": [
        1.0,
        0.0,
        0.0,
        0.0,
        0.0,
        2.220446049250313e-16,
        1.0,
        0.0,
        0.0,
        -1.0,
        2.220446049250313e-16,
        0.0,
        0.0,
        0.0,
        0.0,
        1.0
      ],
      "name": "GLTF_SceneRootNode"
    },
    {
      "children": [
        4
      ],
      "matrix": [
        0.06504416690009857,
        0.03130047222305998,
        0.0017688663452692219,
        0.0,
        0.030722561562700673,
        -0.06282873697638659,
        -0.01795177200835482,
        0.0,
        -0.0062428087076285615,
        0.01692401683488098,
        -0.0699156426765461,
        0.0,
        0.952170729637146,
        0.23371797800064087,
        -0.29158729314804077,
        1.0
      ],
      "name": "Cone_2"
    },
    {
      "mesh": 0,
      "name": "Object_4"
    }
  ],
  "samplers": [
    {
      "magFilter": 9729,
      "minFilter": 9987,
      "wrapS": 10497,
      "wrapT": 10497
    }
  ],
  "scene": 0,
  "scenes": [
    {
      "name": "Sketchfab_Scene",
      "nodes": [
        0
      ]
    }
  ],
  "textures": [
    {
      "sampler": 0,
      "source": 0
    }
  ]
}
