{
  "accessors": [
    {
      "bufferView": 2,
      "componentType": 5126,
      "count": 760,
      "max": [
        0.46046701073646545,
        0.40025800466537476,
        0.1562120020389557
      ],
      "min": [
        -0.20893600583076477,
        -0.40026599168777466,
        0.022626999765634537
      ],
      "type": "VEC3"
    },
    {
      "bufferView": 2,
      "byteOffset": 9120,
      "componentType": 5126,
      "count": 760,
      "max": [
        0.9414185285568237,
        0.9995604753494263,
        0.9999877214431763
      ],
      "min": [
        -0.9748894572257996,
        -0.9995604753494263,
        -1.0
      ],
      "type": "VEC3"
    },
    {
      "bufferView": 1,
      "componentType": 5126,
      "count": 760,
      "max": [
        0.5164210200309753,
        0.8586810231208801
      ],
      "min": [
        0.11773200333118439,
        0.6261119842529297
      ],
      "type": "VEC2"
    },
    {
      "bufferView": 0,
      "componentType": 5125,
      "count": 3840,
      "type": "SCALAR"
    },
    {
      "bufferView": 2,
      "byteOffset": 18240,
      "componentType": 5126,
      "count": 8664,
      "max": [
        0.5774589776992798,
        0.6088219881057739,
        1.3551239967346191
      ],
      "min": [
        -0.5774589776992798,
        -0.6088219881057739,
        0.058065999299287796
      ],
      "type": "VEC3"
    },
    {
      "bufferView": 2,
      "byteOffset": 122208,
      "componentType": 5126,
      "count": 8664,
      "max": [
        1.0,
        1.0,
        0.9999880790710449
      ],
      "min": [
        -1.0,
        -1.0,
        -1.0
      ],
      "type": "VEC3"
    },
    {
      "bufferView": 1,
      "byteOffset": 6080,
      "componentType": 5126,
      "count": 8664,
      "max": [
        0.6889079809188843,
        0.9226790070533752
      ],
      "min": [
        0.20691899955272675,
        0.29953300952911377
      ],
      "type": "VEC2"
    },
    {
      "bufferView": 0,
      "byteOffset": 15360,
      "componentType": 5125,
      "count": 49968,
      "type": "SCALAR"
    },
    {
      "bufferView": 2,
      "byteOffset": 226176,
      "componentType": 5126,
      "count": 7993,
      "max": [
        0.6502990126609802,
        0.1910790055990219,
        1.349485993385315
      ],
      "min": [
        0.003232999937608838,
        -0.21221700310707092,
        0.8417140245437622
      ],
      "type": "VEC3"
    },
    {
      "bufferView": 2,
      "byteOffset": 322092,
      "componentType": 5126,
      "count": 7993,
      "max": [
        0.995517373085022,
        0.9999122619628906,
        1.0
      ],
      "min": [
        -0.999947190284729,
        -0.999804675579071,
        -0.9998958110809326
      ],
      "type": "VEC3"
    },
    {
      "bufferView": 1,
      "byteOffset": 75392,
      "componentType": 5126,
      "count": 7993,
      "max": [
        0.518688976764679,
        0.9310410022735596
      ],
      "min": [
        0.1371680051088333,
        0.5495200157165527
      ],
      "type": "VEC2"
    },
    {
      "bufferView": 0,
      "byteOffset": 215232,
      "componentType": 5125,
      "count": 46080,
      "type": "SCALAR"
    },
    {
      "bufferView": 2,
      "byteOffset": 418008,
      "componentType": 5126,
      "count": 1318,
      "max": [
        0.5847619771957397,
        0.3552910089492798,
        0.854623019695282
      ],
      "min": [
        0.3577759861946106,
        -0.3610300123691559,
        0.5732089877128601
      ],
      "type": "VEC3"
    },
    {
      "bufferView": 2,
      "byteOffset": 433824,
      "componentType": 5126,
      "count": 1318,
      "max": [
        0.9981668591499329,
        0.9993598461151123,
        0.9950657486915588
      ],
      "min": [
        -0.9981668591499329,
        -0.9993598461151123,
        -0.9950657486915588
      ],
      "type": "VEC3"
    },
    {
      "bufferView": 1,
      "byteOffset": 139336,
      "componentType": 5126,
      "count": 1318,
      "max": [
        1.0,
        1.0
      ],
      "min": [
        0.0,
        0.0
      ],
      "type": "VEC2"
    },
    {
      "bufferView": 0,
      "byteOffset": 399552,
      "componentType": 5125,
      "count": 5760,
      "type": "SCALAR"
    }
  ],
  "asset": {
    "extras": {
      "author": "cenzo (https://sketchfab.com/cenzo_salva)",
      "license": "CC-BY-NC-4.0 (http://creativecommons.org/licenses/by-nc/4.0/)",
      "source": "https://sketchfab.com/3d-models/jigglypuff-low-poly-3d-pokemon-eced566ba2224be58a35752949d4a354",
      "title": "Jigglypuff - Low Poly 3D Pokémon"
    },
    "generator": "Sketchfab-12.66.0",
    "version": "2.0"
  },
  "bufferViews": [
    {
      "buffer": 0,
      "byteLength": 422592,
      "name": "floatBufferViews",
      "target": 34963
    },
    {
      "buffer": 0,
      "byteLength": 149880,
      "byteOffset": 422592,
      "byteStride": 8,
      "name": "floatBufferViews",
      "target": 34962
    },
    {
      "buffer": 0,
      "byteLength": 449640,
      "byteOffset": 572472,
      "byteStride": 12,
      "name": "floatBufferViews",
      "target": 34962
    }
  ],
  "buffers": [
    {
      "byteLength": 1022112,
      "uri": "scene.bin"
    }
  ],
  "images": [
    {
      "uri": "textures/Material_baseColor.png"
    }
  ],
  "materials": [
    {
      "doubleSided": true,
      "name": "Material",
      "pbrMetallicRoughness": {
        "baseColorTexture": {
          "index": 0
        },
        "metallicFactor": 0.0
      }
    },
    {
      "doubleSided": true,
      "name": "Material.001",
      "pbrMetallicRoughness": {
        "baseColorTexture": {
          "index": 0
        },
        "metallicFactor": 0.0,
        "roughnessFactor": 0.7567700720902213
      }
    },
    {
      "doubleSided": true,
      "name": "Material.002",
      "pbrMetallicRoughness": {
        "baseColorTexture": {
          "index": 0
        },
        "metallicFactor": 0.0
      }
    },
    {
      "doubleSided": true,
      "name": "Material.003",
      "pbrMetallicRoughness": {
        "baseColorTexture": {
          "index": 0
        },
        "metallicFactor": 0.0,
        "roughnessFactor": 0.8881966011250105
      }
    }
  ],
  "meshes": [
    {
      "name": "Object_0",
      "primitives": [
        {
          "attributes": {
            "NORMAL": 1,
            "POSITION": 0,
            "TEXCOORD_0": 2
          },
          "indices": 3,
          "material": 0,
          "mode": 4
        }
      ]
    },
    {
      "name": "Object_1",
      "primitives": [
        {
          "attributes": {
            "NORMAL": 5,
            "POSITION": 4,
            "TEXCOORD_0": 6
          },
          "indices": 7,
          "material": 2,
          "mode": 4
        }
      ]
    },
    {
      "name": "Object_2",
      "primitives": [
        {
          "attributes": {
            "NORMAL": 9,
            "POSITION": 8,
            "TEXCOORD_0": 10
          },
          "indices": 11,
          "material": 3,
          "mode": 4
        }
      ]
    },
    {
      "name": "Object_3",
      "primitives": [
        {
          "attributes": {
            "NORMAL": 13,
            "POSITION": 12,
            "TEXCOORD_0": 14
          },
          "indices": 15,
          "material": 1,
          "mode": 4
        }
      ]
    }
  ],
  "nodes": [
    {
      "children": [
        1
      ],
      "matrix": [
        1.0,
        0.0,
        0.0,
        0.0,
        0.0,
        2.220446049250313e-16,
        -1.0,
        0.0,
        0.0,
        1.0,
        2.220446049250313e-16,
        0.0,
        0.0,
        0.0,
        0.0,
        1.0
      ],
      "name": "Sketchfab_model"
    },
    {
      "children": [
        2,
        3,
        4,
        5
      ],
      "name": "JIGGLYPUFF.obj.cleaner.materialmerger.gles"
    },
    {
      "mesh": 0,
      "name": "Object_2"
    },
    {
      "mesh": 1,
      "name": "Object_3"
    },
    {
      "mesh": 2,
      "name": "Object_4"
    },
    {
      "mesh": 3,
      "name": "Object_5"
    }
  ],
  "samplers": [
    {
      "magFilter": 9729,
      "minFilter": 9987,
      "wrapS": 10497,
      "wrapT": 10497
    }
  ],
  "scene": 0,
  "scenes": [
    {
      "name": "Sketchfab_Scene",
      "nodes": [
        0
      ]
    }
  ],
  "textures": [
    {
      "sampler": 0,
      "source": 0
    }
  ]
}
